<?xml version="1.0" encoding="UTF-8" standalone="no"?>
<svg
   height="56"
   viewBox="0 0 28 28"
   width="56"
   fill="#000000"
   version="1.1"
   id="svg13"
   sodipodi:docname="adb_48dp.svg"
   inkscape:version="1.2.2 (732a01da63, 2022-12-09)"
   xmlns:inkscape="http://www.inkscape.org/namespaces/inkscape"
   xmlns:sodipodi="http://sodipodi.sourceforge.net/DTD/sodipodi-0.dtd"
   xmlns="http://www.w3.org/2000/svg"
   xmlns:svg="http://www.w3.org/2000/svg">
  <defs
     id="defs17" />
  <sodipodi:namedview
     id="namedview15"
     pagecolor="#ffffff"
     bordercolor="#999999"
     borderopacity="1"
     inkscape:showpageshadow="0"
     inkscape:pageopacity="0"
     inkscape:pagecheckerboard="0"
     inkscape:deskcolor="#d1d1d1"
     showgrid="false"
     inkscape:zoom="7.5645694"
     inkscape:cx="-24.720508"
     inkscape:cy="26.571241"
     inkscape:window-width="2560"
     inkscape:window-height="1369"
     inkscape:window-x="-8"
     inkscape:window-y="-8"
     inkscape:window-maximized="1"
     inkscape:current-layer="svg13" />
  <path
     d="M 0,0 H 24 V 24 H 0 Z"
     fill="none"
     id="path9" />
  <path
     d="m 5.4678339,18.78125 c 0,4.890343 3.9552391,8.845582 8.8455821,8.845582 4.890344,0 8.845583,-3.955239 8.845583,-8.845582 V 13.726631 H 5.4678339 Z M 19.519673,4.0849464 22.173348,1.4312715 21.137151,0.38243815 18.230746,3.3014805 c -1.187836,-0.5939178 -2.502037,-0.947741 -3.91733,-0.947741 -1.415293,0 -2.729493,0.3538232 -3.904692,0.947741 L 7.4896814,0.38243815 6.4534845,1.4312715 9.1071592,4.0849464 C 6.9084001,5.6897877 5.4678339,8.2676434 5.4678339,11.199322 v 1.263654 H 23.158999 v -1.263654 c 0,-2.9316786 -1.440567,-5.5095343 -3.639326,-7.1143756 z m -8.99722,5.8507212 c -0.6950098,0 -1.2636552,-0.5686447 -1.2636552,-1.2636547 0,-0.69501 0.5686454,-1.2636547 1.2636552,-1.2636547 0.69501,0 1.263654,0.5686447 1.263654,1.2636547 0,0.69501 -0.568644,1.2636547 -1.263654,1.2636547 z m 7.581927,0 c -0.69501,0 -1.263655,-0.5686447 -1.263655,-1.2636547 0,-0.69501 0.568645,-1.2636547 1.263655,-1.2636547 0.69501,0 1.263654,0.5686447 1.263654,1.2636547 0,0.69501 -0.568644,1.2636547 -1.263654,1.2636547 z"
     id="path11"
     style="stroke-width:1.26366" />
</svg>
