<?xml version="1.0" encoding="UTF-8" standalone="no"?>
<svg
   xmlns:dc="http://purl.org/dc/elements/1.1/"
   xmlns:cc="http://creativecommons.org/ns#"
   xmlns:rdf="http://www.w3.org/1999/02/22-rdf-syntax-ns#"
   xmlns:svg="http://www.w3.org/2000/svg"
   xmlns="http://www.w3.org/2000/svg"
   xmlns:sodipodi="http://sodipodi.sourceforge.net/DTD/sodipodi-0.dtd"
   xmlns:inkscape="http://www.inkscape.org/namespaces/inkscape"
   height="56"
   viewBox="0 0 24 24"
   width="56"
   fill="#000000"
   version="1.1"
   id="svg8084"
   sodipodi:docname="add.svg"
   inkscape:version="0.92.4 (5da689c313, 2019-01-14)">
  <metadata
     id="metadata8090">
    <rdf:RDF>
      <cc:Work
         rdf:about="">
        <dc:format>image/svg+xml</dc:format>
        <dc:type
           rdf:resource="http://purl.org/dc/dcmitype/StillImage" />
      </cc:Work>
    </rdf:RDF>
  </metadata>
  <defs
     id="defs8088" />
  <sodipodi:namedview
     pagecolor="#ffffff"
     bordercolor="#666666"
     borderopacity="1"
     objecttolerance="10"
     gridtolerance="10"
     guidetolerance="10"
     inkscape:pageopacity="0"
     inkscape:pageshadow="2"
     inkscape:window-width="933"
     inkscape:window-height="480"
     id="namedview8086"
     showgrid="false"
     inkscape:zoom="4.2142857"
     inkscape:cx="28"
     inkscape:cy="28"
     inkscape:window-x="0"
     inkscape:window-y="0"
     inkscape:window-maximized="0"
     inkscape:current-layer="svg8084" />
  <path
     d="M0 0h24v24H0V0z"
     fill="none"
     id="path8080" />
  <path
     d="m 22.285714,13.714286 h -8.571428 v 8.571428 C 13.714286,23.228571 12.942857,24 12,24 11.057143,24 10.285714,23.228571 10.285714,22.285714 V 13.714286 H 1.7142857 C 0.77142857,13.714286 0,12.942857 0,12 0,11.057143 0.77142857,10.285714 1.7142857,10.285714 H 10.285714 V 1.7142857 C 10.285714,0.77142857 11.057143,0 12,0 c 0.942857,0 1.714286,0.77142857 1.714286,1.7142857 v 8.5714283 h 8.571428 C 23.228571,10.285714 24,11.057143 24,12 c 0,0.942857 -0.771429,1.714286 -1.714286,1.714286 z"
     id="path8082"
     inkscape:connector-curvature="0"
     style="stroke-width:1.71428573" />
</svg>
