<?xml version="1.0" encoding="UTF-8" standalone="no"?>
<svg
   height="56"
   viewBox="0 0 28 28"
   width="56"
   fill="#000000"
   version="1.1"
   id="svg13"
   sodipodi:docname="airport_shuttle_48dp.svg"
   inkscape:version="1.2.2 (732a01da63, 2022-12-09)"
   xmlns:inkscape="http://www.inkscape.org/namespaces/inkscape"
   xmlns:sodipodi="http://sodipodi.sourceforge.net/DTD/sodipodi-0.dtd"
   xmlns="http://www.w3.org/2000/svg"
   xmlns:svg="http://www.w3.org/2000/svg">
  <defs
     id="defs17" />
  <sodipodi:namedview
     id="namedview15"
     pagecolor="#ffffff"
     bordercolor="#999999"
     borderopacity="1"
     inkscape:showpageshadow="0"
     inkscape:pageopacity="0"
     inkscape:pagecheckerboard="0"
     inkscape:deskcolor="#d1d1d1"
     showgrid="false"
     inkscape:zoom="15.129139"
     inkscape:cx="9.451959"
     inkscape:cy="26.439046"
     inkscape:window-width="2560"
     inkscape:window-height="1369"
     inkscape:window-x="3832"
     inkscape:window-y="-8"
     inkscape:window-maximized="1"
     inkscape:current-layer="svg13" />
  <path
     d="M 0,0 H 24 V 24 H 0 Z"
     fill="none"
     id="path9" />
  <path
     d="M 27.095725,11.940906 21.024128,5.8693087 C 20.559016,5.4041967 19.917916,5.1402143 19.251675,5.1402143 H 2.6962025 c -1.3827653,0 -2.51411876,1.1187828 -2.51411876,2.5141187 v 8.799416 c 0,1.382765 1.13135346,2.514119 2.51411876,2.514119 0,2.086718 1.6844596,3.771178 3.7711782,3.771178 2.0867186,0 3.7711783,-1.68446 3.7711783,-3.771178 h 7.542356 c 0,2.086718 1.68446,3.771178 3.771178,3.771178 2.086719,0 3.771179,-1.68446 3.771179,-3.771178 1.382765,0 2.514118,-1.131354 2.514118,-2.514119 V 13.72593 c 0,-0.666242 -0.263982,-1.307342 -0.741665,-1.785024 z M 2.6962025,11.425511 V 8.9113924 c 0,-0.6913826 0.5656768,-1.2570594 1.2570594,-1.2570594 h 3.7711782 v 5.028238 H 3.9532619 c -0.6913826,0 -1.2570594,-0.565677 -1.2570594,-1.25706 z m 3.7711782,9.113681 c -0.867371,0 -1.5713242,-0.703953 -1.5713242,-1.571324 0,-0.867371 0.7039532,-1.571325 1.5713242,-1.571325 0.867371,0 1.5713242,0.703954 1.5713242,1.571325 0,0.867371 -0.7039532,1.571324 -1.5713242,1.571324 z M 15.266796,12.682571 H 10.238559 V 7.654333 h 5.028237 z m 6.285297,7.856621 c -0.867371,0 -1.571324,-0.703953 -1.571324,-1.571324 0,-0.867371 0.703953,-1.571325 1.571324,-1.571325 0.867371,0 1.571325,0.703954 1.571325,1.571325 0,0.867371 -0.703954,1.571324 -1.571325,1.571324 z M 17.780915,12.682571 V 7.654333 h 1.25706 l 5.028237,5.028238 z"
     id="path11"
     style="stroke-width:1.25706" />
</svg>
