<?xml version="1.0" encoding="UTF-8" standalone="no"?>
<svg
   enable-background="new 0 0 20 20"
   height="56"
   viewBox="0 0 23.333333 23.333333"
   width="56"
   fill="#000000"
   version="1.1"
   id="svg216"
   sodipodi:docname="balance_48dp.svg"
   inkscape:version="1.2.2 (732a01da63, 2022-12-09)"
   xmlns:inkscape="http://www.inkscape.org/namespaces/inkscape"
   xmlns:sodipodi="http://sodipodi.sourceforge.net/DTD/sodipodi-0.dtd"
   xmlns="http://www.w3.org/2000/svg"
   xmlns:svg="http://www.w3.org/2000/svg">
  <defs
     id="defs220" />
  <sodipodi:namedview
     id="namedview218"
     pagecolor="#ffffff"
     bordercolor="#999999"
     borderopacity="1"
     inkscape:showpageshadow="0"
     inkscape:pageopacity="0"
     inkscape:pagecheckerboard="false"
     inkscape:deskcolor="#d1d1d1"
     showgrid="false"
     inkscape:zoom="15.129139"
     inkscape:cx="16.788794"
     inkscape:cy="30.471001"
     inkscape:window-width="2560"
     inkscape:window-height="1369"
     inkscape:window-x="3832"
     inkscape:window-y="-8"
     inkscape:window-maximized="1"
     inkscape:current-layer="svg216" />
  <g
     id="g210">
    <rect
       fill="none"
       height="20"
       width="20"
       id="rect208"
       x="0"
       y="0" />
  </g>
  <g
     id="g214"
     transform="matrix(1.4406508,0,0,1.4406508,-2.6680057,-2.1937049)">
    <path
       d="M 12.12,3.5 C 11.81,2.63 10.98,2 10,2 9.02,2 8.19,2.63 7.88,3.5 H 3.75 C 3.34,3.5 3,3.84 3,4.25 3,4.66 3.34,5 3.75,5 H 4.5 L 2.17,10.36 C 2.04,10.66 1.99,11.01 2.09,11.32 2.4,12.29 3.47,13 4.75,13 6.03,13 7.1,12.29 7.41,11.32 7.51,11.01 7.46,10.66 7.33,10.36 L 5,5 H 7.88 C 8.1,5.64 8.61,6.15 9.25,6.37 V 15.5 H 2.75 C 2.34,15.5 2,15.84 2,16.25 2,16.66 2.34,17 2.75,17 h 14.5 C 17.66,17 18,16.66 18,16.25 18,15.84 17.66,15.5 17.25,15.5 h -6.5 V 6.37 C 11.39,6.15 11.9,5.64 12.12,5 H 15 l -2.33,5.36 c -0.13,0.3 -0.18,0.65 -0.08,0.96 0.31,0.97 1.38,1.68 2.66,1.68 1.28,0 2.35,-0.71 2.66,-1.68 0.1,-0.31 0.05,-0.66 -0.08,-0.96 L 15.5,5 h 0.75 C 16.66,5 17,4.66 17,4.25 17,3.84 16.66,3.5 16.25,3.5 Z m 4.79,7.25 h -3.32 l 1.66,-3.82 z m -10.5,0 H 3.09 L 4.75,6.93 Z M 10,5 C 9.59,5 9.25,4.66 9.25,4.25 9.25,3.84 9.59,3.5 10,3.5 c 0.41,0 0.75,0.34 0.75,0.75 C 10.75,4.66 10.41,5 10,5 Z"
       id="path212" />
  </g>
</svg>
