<?xml version="1.0" encoding="UTF-8" standalone="no"?>
<svg
   enable-background="new 0 0 24 24"
   height="56"
   viewBox="0 0 28 28"
   width="56"
   fill="#000000"
   version="1.1"
   id="svg245"
   sodipodi:docname="blender_48dp.svg"
   inkscape:version="1.2.2 (732a01da63, 2022-12-09)"
   xmlns:inkscape="http://www.inkscape.org/namespaces/inkscape"
   xmlns:sodipodi="http://sodipodi.sourceforge.net/DTD/sodipodi-0.dtd"
   xmlns="http://www.w3.org/2000/svg"
   xmlns:svg="http://www.w3.org/2000/svg">
  <defs
     id="defs249" />
  <sodipodi:namedview
     id="namedview247"
     pagecolor="#ffffff"
     bordercolor="#999999"
     borderopacity="1"
     inkscape:showpageshadow="0"
     inkscape:pageopacity="0"
     inkscape:pagecheckerboard="0"
     inkscape:deskcolor="#d1d1d1"
     showgrid="false"
     inkscape:zoom="15.129139"
     inkscape:cx="13.550011"
     inkscape:cy="26.571241"
     inkscape:window-width="2560"
     inkscape:window-height="1369"
     inkscape:window-x="3832"
     inkscape:window-y="-8"
     inkscape:window-maximized="1"
     inkscape:current-layer="svg245" />
  <g
     id="g237">
    <path
       d="M 0,0 H 24 V 24 H 0 Z"
       fill="none"
       id="path235" />
  </g>
  <g
     id="g243"
     transform="matrix(1.3899759,0,0,1.3899759,-0.69072012,-2.6637339)">
    <g
       id="g241">
      <path
         d="M 16.13,15.13 17.82,4.15 C 17.92,3.55 17.45,3 16.83,3 H 14 V 3 C 14,2.45 13.55,2 13,2 H 11 C 10.45,2 10,2.45 10,3 V 3 H 5 C 3.9,3 3,3.9 3,5 v 4 c 0,1.1 0.9,2 2,2 h 2.23 l 0.64,4.13 C 6.74,16.05 6,17.43 6,19 v 1 c 0,1.1 0.9,2 2,2 h 8 c 1.1,0 2,-0.9 2,-2 v -1 c 0,-1.57 -0.74,-2.95 -1.87,-3.87 z M 5,9 V 5 h 1.31 l 0.62,4 z m 7,10 c -0.55,0 -1,-0.45 -1,-1 0,-0.55 0.45,-1 1,-1 0.55,0 1,0.45 1,1 0,0.55 -0.45,1 -1,1 z m 2.29,-5 H 9.72 L 8.33,5 h 7.34 z"
         id="path239" />
    </g>
  </g>
</svg>
