<?xml version="1.0" encoding="UTF-8" standalone="no"?>
<svg
   xmlns:dc="http://purl.org/dc/elements/1.1/"
   xmlns:cc="http://creativecommons.org/ns#"
   xmlns:rdf="http://www.w3.org/1999/02/22-rdf-syntax-ns#"
   xmlns:svg="http://www.w3.org/2000/svg"
   xmlns="http://www.w3.org/2000/svg"
   xmlns:sodipodi="http://sodipodi.sourceforge.net/DTD/sodipodi-0.dtd"
   xmlns:inkscape="http://www.inkscape.org/namespaces/inkscape"
   height="56"
   viewBox="0 0 24 24"
   width="56"
   fill="#000000"
   version="1.1"
   id="svg5115"
   sodipodi:docname="bug.svg"
   inkscape:version="0.92.4 (5da689c313, 2019-01-14)">
  <metadata
     id="metadata5121">
    <rdf:RDF>
      <cc:Work
         rdf:about="">
        <dc:format>image/svg+xml</dc:format>
        <dc:type
           rdf:resource="http://purl.org/dc/dcmitype/StillImage" />
      </cc:Work>
    </rdf:RDF>
  </metadata>
  <defs
     id="defs5119" />
  <sodipodi:namedview
     pagecolor="#ffffff"
     bordercolor="#666666"
     borderopacity="1"
     objecttolerance="10"
     gridtolerance="10"
     guidetolerance="10"
     inkscape:pageopacity="0"
     inkscape:pageshadow="2"
     inkscape:window-width="933"
     inkscape:window-height="480"
     id="namedview5117"
     showgrid="false"
     inkscape:zoom="1.489975"
     inkscape:cx="-6.4722486"
     inkscape:cy="52.926075"
     inkscape:window-x="0"
     inkscape:window-y="0"
     inkscape:window-maximized="0"
     inkscape:current-layer="svg5115" />
  <path
     d="M0 0h24v24H0V0z"
     fill="none"
     id="path5111" />
  <path
     d="M 21.208469,6.6737351 H 18.827422 C 18.235449,5.6476485 17.419843,4.7662663 16.43322,4.0953636 l 1.223412,-1.223411 c 0.513043,-0.5130433 0.513043,-1.3418056 0,-1.8548489 -0.513044,-0.51304332 -1.341806,-0.51304332 -1.85485,0 L 13.868004,2.9508824 C 13.262876,2.8061778 12.644593,2.727248 12,2.727248 c -0.644593,0 -1.262876,0.078929 -1.854849,0.2236344 L 8.1982175,1.0171037 c -0.5130433,-0.51304332 -1.3418056,-0.51304332 -1.8548489,0 -0.5130433,0.5130433 -0.5130433,1.3418056 0,1.8548489 l 1.210256,1.223411 C 6.5801579,4.7662663 5.7645506,5.6476485 5.1725775,6.6737351 H 2.7915303 c -0.7235226,0 -1.3154956,0.591973 -1.3154956,1.3154957 0,0.7235225 0.591973,1.3154956 1.3154956,1.3154956 H 4.2254206 C 4.1596458,9.73884 4.107026,10.172953 4.107026,10.620222 v 1.315496 H 2.7915303 c -0.7235226,0 -1.3154956,0.591973 -1.3154956,1.315496 0,0.723523 0.591973,1.315495 1.3154956,1.315495 H 4.107026 v 1.315496 c 0,0.447268 0.05262,0.881382 0.1183946,1.315495 H 2.7915303 c -0.7235226,0 -1.3154956,0.591974 -1.3154956,1.315496 0,0.723522 0.591973,1.315496 1.3154956,1.315496 H 5.1725775 C 6.540693,22.183429 9.0795997,23.775178 12,23.775178 c 2.920401,0 5.459307,-1.591749 6.827422,-3.946486 h 2.381047 c 0.723523,0 1.315497,-0.591974 1.315497,-1.315496 0,-0.723522 -0.591974,-1.315496 -1.315497,-1.315496 h -1.43389 c 0.06577,-0.434113 0.118395,-0.868227 0.118395,-1.315495 v -1.315496 h 1.315495 c 0.723523,0 1.315497,-0.591972 1.315497,-1.315495 0,-0.723523 -0.591974,-1.315496 -1.315497,-1.315496 h -1.315495 v -1.315496 c 0,-0.447269 -0.05262,-0.881382 -0.118395,-1.3154956 h 1.43389 c 0.723523,0 1.315497,-0.5919731 1.315497,-1.3154956 0,-0.7235227 -0.591974,-1.3154957 -1.315497,-1.3154957 z M 13.315495,17.1977 h -2.63099 c -0.7235233,0 -1.3154963,-0.591973 -1.3154963,-1.315495 0,-0.723523 0.591973,-1.315496 1.3154963,-1.315496 h 2.63099 c 0.723523,0 1.315496,0.591973 1.315496,1.315496 0,0.723522 -0.591973,1.315495 -1.315496,1.315495 z m 0,-5.261982 h -2.63099 c -0.7235233,0 -1.3154963,-0.591973 -1.3154963,-1.315496 0,-0.7235226 0.591973,-1.3154956 1.3154963,-1.3154956 h 2.63099 c 0.723523,0 1.315496,0.591973 1.315496,1.3154956 0,0.723523 -0.591973,1.315496 -1.315496,1.315496 z"
     id="path5113"
     inkscape:connector-curvature="0"
     style="stroke-width:1.31549573" />
</svg>
