<?xml version="1.0" encoding="UTF-8" standalone="no"?>
<svg
   height="56"
   viewBox="0 0 28 28"
   width="56"
   fill="#000000"
   version="1.1"
   id="svg269"
   sodipodi:docname="cake_48dp.svg"
   inkscape:version="1.2.2 (732a01da63, 2022-12-09)"
   xmlns:inkscape="http://www.inkscape.org/namespaces/inkscape"
   xmlns:sodipodi="http://sodipodi.sourceforge.net/DTD/sodipodi-0.dtd"
   xmlns="http://www.w3.org/2000/svg"
   xmlns:svg="http://www.w3.org/2000/svg">
  <defs
     id="defs273" />
  <sodipodi:namedview
     id="namedview271"
     pagecolor="#ffffff"
     bordercolor="#999999"
     borderopacity="1"
     inkscape:showpageshadow="0"
     inkscape:pageopacity="0"
     inkscape:pagecheckerboard="0"
     inkscape:deskcolor="#d1d1d1"
     showgrid="false"
     inkscape:zoom="15.129139"
     inkscape:cx="12.360254"
     inkscape:cy="25.711972"
     inkscape:window-width="2560"
     inkscape:window-height="1369"
     inkscape:window-x="3832"
     inkscape:window-y="-8"
     inkscape:window-maximized="1"
     inkscape:current-layer="svg269" />
  <path
     d="M 0,0 H 24 V 24 H 0 Z"
     fill="none"
     id="path265" />
  <path
     d="m 14.780817,6.9714562 c 0.889399,-0.3049369 1.550096,-1.1435135 1.651742,-2.0837357 0.06353,-0.5971681 -0.06353,-1.1562192 -0.35576,-1.6136246 l -1.62633,-2.82066656 c -0.241409,-0.41928828 -0.851283,-0.41928828 -1.105397,0 l -1.62633,2.82066656 c -0.215997,0.3811712 -0.343054,0.8258709 -0.343054,1.3086877 0,1.6771531 1.651742,2.9858408 3.405129,2.3886726 z m 4.891697,12.7565278 -1.270571,-1.27057 -1.372216,1.35951 c -1.651742,1.651742 -4.548643,1.664448 -6.21309,0 l -1.359509,-1.35951 -1.3849216,1.35951 C 7.2463356,20.642795 6.1409392,21.1002 4.9720143,21.1002 c -0.9275165,0 -1.7787987,-0.292231 -2.4903183,-0.775048 v 4.58676 c 0,1.397628 1.1435135,2.541141 2.5411411,2.541141 H 22.810823 c 1.397627,0 2.541141,-1.143513 2.541141,-2.541141 v -4.58676 c -0.952928,0.647991 -2.172676,0.952928 -3.481363,0.660697 -0.838577,-0.17788 -1.588214,-0.647991 -2.198087,-1.257865 z m 1.867738,-8.792348 H 15.1874 V 9.6650653 c 0,-0.6988133 -0.571757,-1.2705701 -1.270571,-1.2705701 -0.698814,0 -1.270571,0.5717568 -1.270571,1.2705701 V 10.935636 H 6.2934077 c -2.1091471,0 -3.8117117,1.702565 -3.8117117,3.811712 v 1.855033 c 0,1.079985 0.6352853,2.121852 1.6644475,2.464906 0.9275165,0.304937 1.9312672,0.07624 2.5792582,-0.584462 l 2.7190205,-2.706315 2.7063138,2.706315 c 0.965634,0.965634 2.553847,0.965634 3.51948,0 l 2.719021,-2.706315 2.706316,2.706315 c 0.546345,0.546345 1.308687,0.800459 2.096441,0.698814 1.257865,-0.165174 2.147264,-1.346805 2.147264,-2.617375 v -1.804211 c 0.01271,-2.121852 -1.689859,-3.824417 -3.799006,-3.824417 z"
     id="path267"
     style="stroke-width:1.27057" />
</svg>
