<?xml version="1.0" encoding="UTF-8" standalone="no"?>
<svg
   xmlns:dc="http://purl.org/dc/elements/1.1/"
   xmlns:cc="http://creativecommons.org/ns#"
   xmlns:rdf="http://www.w3.org/1999/02/22-rdf-syntax-ns#"
   xmlns:svg="http://www.w3.org/2000/svg"
   xmlns="http://www.w3.org/2000/svg"
   xmlns:sodipodi="http://sodipodi.sourceforge.net/DTD/sodipodi-0.dtd"
   xmlns:inkscape="http://www.inkscape.org/namespaces/inkscape"
   height="56"
   viewBox="0 0 24 24"
   width="56"
   fill="#000000"
   version="1.1"
   id="svg10942"
   sodipodi:docname="check_circle.svg"
   inkscape:version="0.92.4 (5da689c313, 2019-01-14)">
  <metadata
     id="metadata10948">
    <rdf:RDF>
      <cc:Work
         rdf:about="">
        <dc:format>image/svg+xml</dc:format>
        <dc:type
           rdf:resource="http://purl.org/dc/dcmitype/StillImage" />
      </cc:Work>
    </rdf:RDF>
  </metadata>
  <defs
     id="defs10946" />
  <sodipodi:namedview
     pagecolor="#ffffff"
     bordercolor="#666666"
     borderopacity="1"
     objecttolerance="10"
     gridtolerance="10"
     guidetolerance="10"
     inkscape:pageopacity="0"
     inkscape:pageshadow="2"
     inkscape:window-width="933"
     inkscape:window-height="480"
     id="namedview10944"
     showgrid="false"
     inkscape:zoom="4.2142857"
     inkscape:cx="28"
     inkscape:cy="28"
     inkscape:window-x="0"
     inkscape:window-y="0"
     inkscape:window-maximized="0"
     inkscape:current-layer="svg10942" />
  <path
     d="M0 0h24v24H0V0z"
     fill="none"
     id="path10938" />
  <path
     d="M 12,0 C 5.376,0 0,5.376 0,12 0,18.624 5.376,24 12,24 18.624,24 24,18.624 24,12 24,5.376 18.624,0 12,0 Z m 0,21.6 C 6.708,21.6 2.4,17.292 2.4,12 2.4,6.708 6.708,2.4 12,2.4 c 5.292,0 9.6,4.308 9.6,9.6 0,5.292 -4.308,9.6 -9.6,9.6 z M 16.656,7.548 9.6,14.604 7.344,12.348 c -0.468,-0.468 -1.224,-0.468 -1.692,0 -0.468,0.468 -0.468,1.224 0,1.692 l 3.108,3.108 c 0.468,0.468 1.224,0.468 1.692,0 L 18.36,9.24 c 0.468,-0.468 0.468,-1.224 0,-1.692 -0.468,-0.468 -1.236,-0.468 -1.704,0 z"
     id="path10940"
     inkscape:connector-curvature="0"
     style="stroke-width:1.20000005" />
</svg>
