<?xml version="1.0" encoding="UTF-8" standalone="no"?>
<svg
   height="56"
   viewBox="0 0 28 28"
   width="56"
   fill="#000000"
   version="1.1"
   id="svg311"
   sodipodi:docname="child_friendly_48dp.svg"
   inkscape:version="1.2.2 (732a01da63, 2022-12-09)"
   xmlns:inkscape="http://www.inkscape.org/namespaces/inkscape"
   xmlns:sodipodi="http://sodipodi.sourceforge.net/DTD/sodipodi-0.dtd"
   xmlns="http://www.w3.org/2000/svg"
   xmlns:svg="http://www.w3.org/2000/svg">
  <defs
     id="defs315" />
  <sodipodi:namedview
     id="namedview313"
     pagecolor="#ffffff"
     bordercolor="#999999"
     borderopacity="1"
     inkscape:showpageshadow="0"
     inkscape:pageopacity="0"
     inkscape:pagecheckerboard="0"
     inkscape:deskcolor="#d1d1d1"
     showgrid="false"
     inkscape:zoom="10.697917"
     inkscape:cx="-1.0282376"
     inkscape:cy="22.995131"
     inkscape:window-width="2560"
     inkscape:window-height="1369"
     inkscape:window-x="3832"
     inkscape:window-y="-8"
     inkscape:window-maximized="1"
     inkscape:current-layer="svg311" />
  <path
     d="M 0,0 H 24 V 24 H 0 Z"
     fill="none"
     id="path307" />
  <path
     d="M 16.007239,1.5992359 V 11.18048 h 11.076582 c 0,-5.5798288 -4.126026,-10.20430183 -9.498169,-10.96581685 C 16.754909,0.0900516 16.007239,0.75464653 16.007239,1.5992359 Z m 8.7505,17.7363771 c 1.453802,-1.869173 2.326082,-4.222947 2.326082,-6.770561 H 6.9244414 L 5.9829319,10.585113 C 5.7614002,10.100513 5.262954,9.7959068 4.7368164,9.7959068 H 2.161511 c -0.761515,0 -1.38457271,0.6230582 -1.38457271,1.3845732 0,0.761515 0.62305771,1.384572 1.38457271,1.384572 h 1.6891788 c 0,0 2.6168426,5.635212 2.9352943,6.119812 -1.8414818,0.983047 -2.9629857,3.14298 -2.4091566,5.455217 0.4153718,1.744561 1.8553275,3.14298 3.5998892,3.53066 2.9076033,0.636904 5.5106003,-1.32919 5.8844343,-4.029106 h 2.879912 c 0.373834,2.686071 2.962986,4.652164 5.842897,4.042952 1.758407,-0.373835 3.198363,-1.758407 3.641426,-3.502969 0.484601,-1.924556 -0.19384,-3.710655 -1.467647,-4.846005 z M 9.0843755,25.026207 c -1.149196,0 -2.0768598,-0.927663 -2.0768598,-2.076859 0,-1.149195 0.9276638,-2.076859 2.0768598,-2.076859 1.1491955,0 2.0768595,0.927664 2.0768595,2.076859 0,1.149196 -0.927664,2.076859 -2.0768595,2.076859 z m 12.4611545,0 c -1.149195,0 -2.076859,-0.927663 -2.076859,-2.076859 0,-1.149195 0.927664,-2.076859 2.076859,-2.076859 1.149196,0 2.07686,0.927664 2.07686,2.076859 0,1.149196 -0.927664,2.076859 -2.07686,2.076859 z"
     id="path309"
     style="stroke-width:1.38457" />
</svg>
