<?xml version="1.0" encoding="UTF-8" standalone="no"?>
<svg
   height="56"
   viewBox="0 0 28 28"
   width="56"
   fill="#000000"
   version="1.1"
   id="svg332"
   sodipodi:docname="cloud_done_48dp.svg"
   inkscape:version="1.2.2 (732a01da63, 2022-12-09)"
   xmlns:inkscape="http://www.inkscape.org/namespaces/inkscape"
   xmlns:sodipodi="http://sodipodi.sourceforge.net/DTD/sodipodi-0.dtd"
   xmlns="http://www.w3.org/2000/svg"
   xmlns:svg="http://www.w3.org/2000/svg">
  <defs
     id="defs336" />
  <sodipodi:namedview
     id="namedview334"
     pagecolor="#ffffff"
     bordercolor="#999999"
     borderopacity="1"
     inkscape:showpageshadow="0"
     inkscape:pageopacity="0"
     inkscape:pagecheckerboard="0"
     inkscape:deskcolor="#d1d1d1"
     showgrid="false"
     inkscape:zoom="21.395833"
     inkscape:cx="23.976631"
     inkscape:cy="20.237585"
     inkscape:window-width="2560"
     inkscape:window-height="1369"
     inkscape:window-x="3832"
     inkscape:window-y="-8"
     inkscape:window-maximized="1"
     inkscape:current-layer="svg332" />
  <path
     d="M 0,0 H 24 V 24 H 0 Z"
     fill="none"
     id="path328" />
  <path
     d="M 22.575,11.046667 C 21.781667,7.0216667 18.246667,4 14,4 10.628333,4 7.7,5.9133333 6.2416667,8.7133333 2.73,9.0866667 0,12.061667 0,15.666667 c 0,3.861666 3.1383333,7 7,7 h 15.166667 c 3.22,0 5.833333,-2.613334 5.833333,-5.833334 0,-3.08 -2.391667,-5.576666 -5.425,-5.786666 z m -10.08,7.291666 c -0.455,0.455 -1.19,0.455 -1.645,0 L 8.4,15.9 c -0.455,-0.455 -0.455,-1.19 0,-1.645 0.455,-0.455 1.19,-0.455 1.645,0 L 11.666667,15.876667 16.893333,10.65 c 0.455,-0.455 1.19,-0.455 1.645,0 0.455,0.455 0.455,1.19 0,1.645 z"
     id="path330"
     style="stroke-width:1.16667" />
</svg>
