<?xml version="1.0" encoding="UTF-8" standalone="no"?>
<svg
   xmlns:dc="http://purl.org/dc/elements/1.1/"
   xmlns:cc="http://creativecommons.org/ns#"
   xmlns:rdf="http://www.w3.org/1999/02/22-rdf-syntax-ns#"
   xmlns:svg="http://www.w3.org/2000/svg"
   xmlns="http://www.w3.org/2000/svg"
   xmlns:sodipodi="http://sodipodi.sourceforge.net/DTD/sodipodi-0.dtd"
   xmlns:inkscape="http://www.inkscape.org/namespaces/inkscape"
   enable-background="new 0 0 24 24"
   height="56"
   viewBox="0 0 24 24"
   width="56"
   fill="#000000"
   version="1.1"
   id="svg12687"
   sodipodi:docname="copy.svg"
   inkscape:version="0.92.4 (5da689c313, 2019-01-14)">
  <metadata
     id="metadata12693">
    <rdf:RDF>
      <cc:Work
         rdf:about="">
        <dc:format>image/svg+xml</dc:format>
        <dc:type
           rdf:resource="http://purl.org/dc/dcmitype/StillImage" />
      </cc:Work>
    </rdf:RDF>
  </metadata>
  <defs
     id="defs12691" />
  <sodipodi:namedview
     pagecolor="#ffffff"
     bordercolor="#666666"
     borderopacity="1"
     objecttolerance="10"
     gridtolerance="10"
     guidetolerance="10"
     inkscape:pageopacity="0"
     inkscape:pageshadow="2"
     inkscape:window-width="933"
     inkscape:window-height="480"
     id="namedview12689"
     showgrid="false"
     inkscape:zoom="2.97995"
     inkscape:cx="19.012586"
     inkscape:cy="75.966653"
     inkscape:window-x="0"
     inkscape:window-y="0"
     inkscape:window-maximized="0"
     inkscape:current-layer="svg12687" />
  <g
     id="g12681">
    <rect
       fill="none"
       height="24"
       width="24"
       id="rect12679" />
  </g>
  <g
     id="g12685"
     transform="matrix(1.2,0,0,1.2,-2.3,-2.4)">
    <path
       d="M 15,20 H 5 V 7 C 5,6.45 4.55,6 4,6 V 6 C 3.45,6 3,6.45 3,7 v 13 c 0,1.1 0.9,2 2,2 h 10 c 0.55,0 1,-0.45 1,-1 v 0 c 0,-0.55 -0.45,-1 -1,-1 z m 5,-4 V 4 C 20,2.9 19.1,2 18,2 H 9 C 7.9,2 7,2.9 7,4 v 12 c 0,1.1 0.9,2 2,2 h 9 c 1.1,0 2,-0.9 2,-2 z m -2,0 H 9 V 4 h 9 z"
       id="path12683"
       inkscape:connector-curvature="0" />
  </g>
</svg>
