<?xml version="1.0" encoding="UTF-8" standalone="no"?>
<svg
   xmlns:dc="http://purl.org/dc/elements/1.1/"
   xmlns:cc="http://creativecommons.org/ns#"
   xmlns:rdf="http://www.w3.org/1999/02/22-rdf-syntax-ns#"
   xmlns:svg="http://www.w3.org/2000/svg"
   xmlns="http://www.w3.org/2000/svg"
   xmlns:sodipodi="http://sodipodi.sourceforge.net/DTD/sodipodi-0.dtd"
   xmlns:inkscape="http://www.inkscape.org/namespaces/inkscape"
   height="56"
   viewBox="0 0 24 24"
   width="56"
   fill="#000000"
   version="1.1"
   id="svg13274"
   sodipodi:docname="cps_trends.svg"
   inkscape:version="0.92.4 (5da689c313, 2019-01-14)">
  <metadata
     id="metadata13280">
    <rdf:RDF>
      <cc:Work
         rdf:about="">
        <dc:format>image/svg+xml</dc:format>
        <dc:type
           rdf:resource="http://purl.org/dc/dcmitype/StillImage" />
      </cc:Work>
    </rdf:RDF>
  </metadata>
  <defs
     id="defs13278" />
  <sodipodi:namedview
     pagecolor="#ffffff"
     bordercolor="#666666"
     borderopacity="1"
     objecttolerance="10"
     gridtolerance="10"
     guidetolerance="10"
     inkscape:pageopacity="0"
     inkscape:pageshadow="2"
     inkscape:window-width="933"
     inkscape:window-height="480"
     id="namedview13276"
     showgrid="false"
     inkscape:zoom="4.2142857"
     inkscape:cx="28"
     inkscape:cy="28"
     inkscape:window-x="0"
     inkscape:window-y="0"
     inkscape:window-maximized="0"
     inkscape:current-layer="svg13274" />
  <path
     d="M0 0h24v24H0V0z"
     fill="none"
     id="path13270" />
  <path
     d="M 17.900897,5.7312092 19.66661,7.4969223 13.682804,13.480728 9.6486401,9.446564 c -0.478214,-0.478214 -1.2507135,-0.478214 -1.7289275,0 l -7.35713818,7.3694 c -0.47821399,0.478214 -0.47821399,1.250714 0,1.728928 0.47821398,0.478214 1.25071348,0.478214 1.72892748,0 L 8.7780454,12.046086 12.81221,16.08025 c 0.478214,0.478214 1.250713,0.478214 1.728927,0 l 6.8544,-6.8421383 1.765714,1.7657133 c 0.380118,0.380119 1.042261,0.110357 1.042261,-0.429166 V 5.3020428 c 0.01226,-0.3433331 -0.2575,-0.6130949 -0.600833,-0.6130949 h -5.260354 c -0.551785,0 -0.821547,0.6621425 -0.441428,1.0422613 z"
     id="path13272"
     inkscape:connector-curvature="0"
     style="stroke-width:1.22618973" />
</svg>
