<?xml version="1.0" encoding="UTF-8" standalone="no"?>
<svg
   enable-background="new 0 0 20 20"
   height="56"
   viewBox="0 0 23.333333 23.333333"
   width="56"
   fill="#000000"
   version="1.1"
   id="svg410"
   sodipodi:docname="cruelty_free_48dp.svg"
   inkscape:version="1.2.2 (732a01da63, 2022-12-09)"
   xmlns:inkscape="http://www.inkscape.org/namespaces/inkscape"
   xmlns:sodipodi="http://sodipodi.sourceforge.net/DTD/sodipodi-0.dtd"
   xmlns="http://www.w3.org/2000/svg"
   xmlns:svg="http://www.w3.org/2000/svg">
  <defs
     id="defs414" />
  <sodipodi:namedview
     id="namedview412"
     pagecolor="#ffffff"
     bordercolor="#999999"
     borderopacity="1"
     inkscape:showpageshadow="0"
     inkscape:pageopacity="0"
     inkscape:pagecheckerboard="0"
     inkscape:deskcolor="#d1d1d1"
     showgrid="false"
     inkscape:zoom="7.5645694"
     inkscape:cx="-1.8507332"
     inkscape:cy="35.560517"
     inkscape:window-width="2560"
     inkscape:window-height="1369"
     inkscape:window-x="3832"
     inkscape:window-y="-8"
     inkscape:window-maximized="1"
     inkscape:current-layer="svg410" />
  <rect
     fill="none"
     height="20"
     width="20"
     id="rect406"
     x="0"
     y="0" />
  <path
     d="m 17.49914,14.719095 c -0.301803,-0.244316 -0.56049,-0.56049 -0.977265,-1.03475 0.776063,-1.049122 3.291082,-4.8432084 3.291082,-9.72953 0,-2.2563311 -0.704205,-3.60725536 -2.15573,-3.60725536 -1.767699,0 -4.555777,2.37130326 -5.748615,6.86959386 C 10.715775,2.7188629 7.927697,0.34755964 6.1599982,0.34755964 c -1.4515251,0 -2.1557303,1.35092426 -2.1557303,3.59288376 0,4.8863222 2.5150187,8.6804076 3.2910816,9.7295296 -0.4167745,0.488632 -0.6754622,0.790435 -0.9772644,1.049122 -0.5317468,0.445518 -1.9545288,1.623984 -1.9545288,3.592884 0,2.572505 2.0982441,4.670749 4.670749,4.670749 1.7102127,0 2.8743067,-0.617976 2.8743067,-0.617976 0,0 1.164095,0.617976 2.874308,0.617976 2.572504,0 4.670748,-2.098244 4.670748,-4.670749 0,-1.9689 -1.422782,-3.147366 -1.954528,-3.592884 z M 8.8474753,12.117847 C 7.712124,10.465121 6.1599982,7.4758411 6.1599982,3.9404434 c 0,-0.7185767 0.086229,-1.1640943 0.1724584,-1.3940389 0.9341498,0.3161738 3.9090574,2.9317932 3.9952874,8.9534665 -0.8766642,0.172459 -1.4802687,0.617976 -1.4802687,0.617976 z m 1.3365527,5.188125 c -0.3161741,0 -0.5748611,-0.388032 -0.5748611,-0.862292 0,-0.474261 0.258687,-0.862293 0.5748611,-0.862293 0.316174,0 0.574862,0.388032 0.574862,0.862293 0,0.47426 -0.258688,0.862292 -0.574862,0.862292 z m 1.724584,3.161737 c -0.632347,0 -1.149722,-0.833549 -1.149722,-1.149722 0,-0.316174 0.517375,-0.574862 1.149722,-0.574862 0.632348,0 1.149723,0.258688 1.149723,0.574862 0,0.316173 -0.517375,1.149722 -1.149723,1.149722 z m 1.724585,-3.161737 c -0.316174,0 -0.574862,-0.388032 -0.574862,-0.862292 0,-0.474261 0.258688,-0.862293 0.574862,-0.862293 0.316173,0 0.574861,0.388032 0.574861,0.862293 0,0.47426 -0.258688,0.862292 -0.574861,0.862292 z m -0.143716,-5.806101 c 0.08623,-6.0216733 3.046766,-8.6372927 3.995287,-8.9534665 0.08623,0.2299446 0.172459,0.6754622 0.172459,1.3940389 0,3.5353977 -1.552126,6.5246776 -2.687478,8.1774036 0,0 -0.603604,-0.445517 -1.480268,-0.617976 z"
     id="path408"
     style="stroke-width:1.43715" />
</svg>
