<?xml version="1.0" encoding="UTF-8" standalone="no"?>
<svg
   enable-background="new 0 0 20 20"
   height="56"
   viewBox="0 0 23.333333 23.333333"
   width="56"
   fill="#000000"
   version="1.1"
   id="svg439"
   sodipodi:docname="cyclone_48dp.svg"
   inkscape:version="1.2.2 (732a01da63, 2022-12-09)"
   xmlns:inkscape="http://www.inkscape.org/namespaces/inkscape"
   xmlns:sodipodi="http://sodipodi.sourceforge.net/DTD/sodipodi-0.dtd"
   xmlns="http://www.w3.org/2000/svg"
   xmlns:svg="http://www.w3.org/2000/svg">
  <defs
     id="defs443" />
  <sodipodi:namedview
     id="namedview441"
     pagecolor="#ffffff"
     bordercolor="#999999"
     borderopacity="1"
     inkscape:showpageshadow="0"
     inkscape:pageopacity="0"
     inkscape:pagecheckerboard="0"
     inkscape:deskcolor="#d1d1d1"
     showgrid="false"
     inkscape:zoom="7.5645694"
     inkscape:cx="0"
     inkscape:cy="20.622456"
     inkscape:window-width="2560"
     inkscape:window-height="1369"
     inkscape:window-x="3832"
     inkscape:window-y="-8"
     inkscape:window-maximized="1"
     inkscape:current-layer="svg439" />
  <g
     id="g429">
    <rect
       fill="none"
       height="20"
       width="20"
       id="rect427"
       x="0"
       y="0" />
  </g>
  <g
     id="g437"
     transform="matrix(1.3958972,0,0,1.3958972,-2.2239093,-2.2789907)">
    <g
       id="g435">
      <path
         d="m 10,13.5 c 1.93,0 3.5,-1.57 3.5,-3.5 0,-1.93 -1.57,-3.5 -3.5,-3.5 -1.93,0 -3.5,1.57 -3.5,3.5 0,1.93 1.57,3.5 3.5,3.5 z M 10,8 c 1.1,0 2,0.9 2,2 0,1.1 -0.9,2 -2,2 C 8.9,12 8,11.1 8,10 8,8.9 8.9,8 10,8 Z"
         id="path431" />
      <path
         d="m 18,4.67 v 0 C 18,4.33 17.77,4.02 17.44,3.93 14.15,3.05 11.17,3 10,3 8,3 6.2,3.84 4.93,5.18 4.93,5.15 5.08,4.21 5.41,2.96 5.54,2.48 5.17,2 4.67,2 V 2 C 4.33,2 4.02,2.23 3.93,2.56 3.05,5.85 3,8.84 3,10 3,12 3.84,13.8 5.18,15.07 5.15,15.07 4.21,14.92 2.96,14.59 2.48,14.46 2,14.83 2,15.33 v 0 c 0,0.34 0.23,0.65 0.56,0.74 C 5.85,16.95 8.83,17 10,17 c 2,0 3.8,-0.84 5.07,-2.18 0,0.03 -0.15,0.97 -0.48,2.22 -0.13,0.48 0.24,0.96 0.74,0.96 v 0 c 0.34,0 0.65,-0.23 0.74,-0.56 C 16.95,14.15 17,11.17 17,10 17,8 16.16,6.2 14.82,4.93 c 0.03,0 0.97,0.15 2.22,0.48 C 17.52,5.54 18,5.17 18,4.67 Z M 15.5,10 c 0,3.03 -2.47,5.5 -5.5,5.5 -3.03,0 -5.5,-2.47 -5.5,-5.5 0,-3.03 2.47,-5.5 5.5,-5.5 3.03,0 5.5,2.47 5.5,5.5 z"
         id="path433" />
    </g>
  </g>
</svg>
