<?xml version="1.0" encoding="UTF-8" standalone="no"?>
<svg
   height="56"
   viewBox="0 0 28 28"
   width="56"
   fill="#000000"
   version="1.1"
   id="svg464"
   sodipodi:docname="download_48dp.svg"
   inkscape:version="1.2.2 (732a01da63, 2022-12-09)"
   xmlns:inkscape="http://www.inkscape.org/namespaces/inkscape"
   xmlns:sodipodi="http://sodipodi.sourceforge.net/DTD/sodipodi-0.dtd"
   xmlns="http://www.w3.org/2000/svg"
   xmlns:svg="http://www.w3.org/2000/svg">
  <defs
     id="defs468" />
  <sodipodi:namedview
     id="namedview466"
     pagecolor="#ffffff"
     bordercolor="#999999"
     borderopacity="1"
     inkscape:showpageshadow="0"
     inkscape:pageopacity="0"
     inkscape:pagecheckerboard="0"
     inkscape:deskcolor="#d1d1d1"
     showgrid="false"
     inkscape:zoom="5.3489583"
     inkscape:cx="-22.247322"
     inkscape:cy="19.069133"
     inkscape:window-width="2560"
     inkscape:window-height="1369"
     inkscape:window-x="3832"
     inkscape:window-y="-8"
     inkscape:window-maximized="1"
     inkscape:current-layer="svg464" />
  <path
     d="M 0,0 H 24 V 24 H 0 Z"
     fill="none"
     id="path460" />
  <path
     d="M 21.438408,10.091668 H 18.946029 V 2.2539991 c 0,-0.8621435 -0.70539,-1.56753367 -1.567533,-1.56753367 h -6.270135 c -0.862144,0 -1.5675353,0.70539017 -1.5675353,1.56753367 V 10.091668 H 7.0484476 c -1.3951051,0 -2.1004952,1.692936 -1.112949,2.680482 l 7.1949804,7.19498 c 0.611338,0.611338 1.598885,0.611338 2.210223,0 l 7.19498,-7.19498 c 0.987546,-0.987546 0.297831,-2.680482 -1.097274,-2.680482 z M 3.2706913,25.767004 c 0,0.862144 0.7053902,1.567534 1.5675337,1.567534 h 18.810406 c 0.862143,0 1.567533,-0.70539 1.567533,-1.567534 0,-0.862143 -0.70539,-1.567533 -1.567533,-1.567533 H 4.838225 c -0.8621435,0 -1.5675337,0.70539 -1.5675337,1.567533 z"
     id="path462"
     style="stroke-width:1.56753" />
</svg>
