<?xml version="1.0" encoding="UTF-8" standalone="no"?>
<svg
   height="56"
   viewBox="0 0 28 28"
   width="56"
   fill="#000000"
   version="1.1"
   id="svg515"
   sodipodi:docname="euro_symbol_48dp.svg"
   inkscape:version="1.2.2 (732a01da63, 2022-12-09)"
   xmlns:inkscape="http://www.inkscape.org/namespaces/inkscape"
   xmlns:sodipodi="http://sodipodi.sourceforge.net/DTD/sodipodi-0.dtd"
   xmlns="http://www.w3.org/2000/svg"
   xmlns:svg="http://www.w3.org/2000/svg">
  <defs
     id="defs519" />
  <sodipodi:namedview
     id="namedview517"
     pagecolor="#ffffff"
     bordercolor="#999999"
     borderopacity="1"
     inkscape:showpageshadow="0"
     inkscape:pageopacity="0"
     inkscape:pagecheckerboard="0"
     inkscape:deskcolor="#d1d1d1"
     showgrid="false"
     inkscape:zoom="10.697917"
     inkscape:cx="15.984421"
     inkscape:cy="32.763388"
     inkscape:window-width="1346"
     inkscape:window-height="1230"
     inkscape:window-x="3986"
     inkscape:window-y="55"
     inkscape:window-maximized="0"
     inkscape:current-layer="svg515" />
  <path
     d="M 0,0 H 24 V 24 H 0 Z"
     fill="none"
     id="path511" />
  <path
     d="m 18.992897,23.932077 c -3.843759,0 -7.16685,-2.174557 -8.82074,-5.359823 h 7.289361 c 0.842258,0 1.531379,-0.689121 1.531379,-1.531379 0,-0.842258 -0.689121,-1.531378 -1.531379,-1.531378 H 9.1614486 c -0.076567,-0.505355 -0.1225108,-1.01071 -0.1225108,-1.531378 0,-0.520669 0.04594,-1.026024 0.1225108,-1.531378 h 8.3000694 c 0.842258,0 1.531379,-0.689121 1.531379,-1.531379 0,-0.842258 -0.689121,-1.5313775 -1.531379,-1.5313775 h -7.289361 c 1.65389,-3.1852666 4.992294,-5.3598235 8.82074,-5.3598235 1.914222,0 3.705934,0.551296 5.237312,1.4854367 0.765689,0.4747272 1.761085,0.3981583 2.404264,-0.2450205 0.888199,-0.8881993 0.68912,-2.3430085 -0.382844,-3.001501 -2.113302,-1.30167151 -4.609448,-2.06736052 -7.258732,-2.06736052 -6.003003,0 -11.0871788,3.84375902 -12.9860878,9.18826882 H 2.1477364 c -0.8422579,0 -1.53137807,0.6891195 -1.53137807,1.5313775 0,0.842258 0.68912017,1.531379 1.53137807,1.531379 h 3.1546389 c -0.061255,0.505354 -0.091883,1.010709 -0.091883,1.531378 0,0.520668 0.030628,1.026023 0.091883,1.531378 H 2.1477364 c -0.8422579,0 -1.53137807,0.68912 -1.53137807,1.531378 0,0.842258 0.68912017,1.531379 1.53137807,1.531379 h 3.8590728 c 1.898909,5.344508 6.9830848,9.188267 12.9860878,9.188267 2.664597,0 5.14543,-0.750375 7.258732,-2.067359 1.056651,-0.658493 1.255729,-2.128617 0.36753,-3.016816 -0.643178,-0.643178 -1.638574,-0.719747 -2.404263,-0.229706 -1.516065,0.949455 -3.292464,1.485437 -5.221999,1.485437 z"
     id="path513"
     style="stroke-width:1.53137" />
</svg>
