<?xml version="1.0" encoding="UTF-8" standalone="no"?>
<svg
   enable-background="new 0 0 20 20"
   height="56"
   viewBox="0 0 23.333333 23.333333"
   width="56"
   fill="#000000"
   version="1.1"
   id="svg538"
   sodipodi:docname="flutter_dash_48dp.svg"
   inkscape:version="1.2.2 (732a01da63, 2022-12-09)"
   xmlns:inkscape="http://www.inkscape.org/namespaces/inkscape"
   xmlns:sodipodi="http://sodipodi.sourceforge.net/DTD/sodipodi-0.dtd"
   xmlns="http://www.w3.org/2000/svg"
   xmlns:svg="http://www.w3.org/2000/svg">
  <defs
     id="defs542" />
  <sodipodi:namedview
     id="namedview540"
     pagecolor="#ffffff"
     bordercolor="#999999"
     borderopacity="1"
     inkscape:showpageshadow="0"
     inkscape:pageopacity="0"
     inkscape:pagecheckerboard="0"
     inkscape:deskcolor="#d1d1d1"
     showgrid="false"
     inkscape:zoom="7.5645694"
     inkscape:cx="0.39658569"
     inkscape:cy="42.236376"
     inkscape:window-width="1346"
     inkscape:window-height="1230"
     inkscape:window-x="3867"
     inkscape:window-y="59"
     inkscape:window-maximized="0"
     inkscape:current-layer="svg538" />
  <rect
     fill="none"
     height="20"
     width="20"
     id="rect532"
     x="0"
     y="0" />
  <g
     id="g536"
     transform="matrix(1.3236029,0,0,1.3236029,-1.5285073,-1.6097523)">
    <path
       d="m 9.26,9.56 c 0.23,-0.32 0.65,-0.45 1.01,-0.3 0.14,0.06 0.26,0.15 0.35,0.26 0.18,0.22 0.2,0.47 0.17,0.68 -0.04,0.27 -0.2,0.5 -0.43,0.63 0,0 -3.89,2.36 -4.06,2.15 C 6.14,12.78 9.26,9.56 9.26,9.56 Z M 18,8.2 c 0,2 -0.8,2.4 -1.2,2.4 -0.19,0 -0.35,-0.08 -0.5,-0.21 -0.38,2.65 -1.89,4.25 -4.26,4.79 0.08,0.35 0.39,0.62 0.76,0.62 v 0 h 0.46 c 0.18,0 0.33,0.12 0.38,0.29 0.14,0.42 0.53,0.82 0.82,1.06 0.2,0.17 0.19,0.47 -0.02,0.62 -0.27,0.19 -0.72,0.39 -1.43,0.43 -0.14,0.01 -0.28,-0.06 -0.36,-0.18 -0.11,-0.17 -0.26,-0.45 -0.26,-0.82 0,-0.24 0.03,-0.45 0.08,-0.64 -0.62,-0.13 -1.11,-0.62 -1.24,-1.25 -0.39,0.05 -0.8,0.08 -1.23,0.08 -0.71,0 -1.36,-0.07 -1.96,-0.2 C 8.02,15.26 8,15.33 8,15.4 c 0,0.44 0.36,0.8 0.8,0.8 v 0 h 0.46 c 0.18,0 0.33,0.12 0.38,0.29 0.14,0.42 0.53,0.82 0.82,1.06 0.2,0.17 0.19,0.47 -0.02,0.62 C 10.17,18.36 9.72,18.56 9.01,18.6 8.87,18.61 8.73,18.54 8.65,18.42 8.54,18.25 8.4,17.97 8.4,17.6 8.4,17.36 8.43,17.15 8.48,16.96 7.75,16.81 7.2,16.16 7.2,15.39 7.2,15.24 7.23,15.1 7.26,14.97 5.29,14.28 4.04,12.75 3.69,10.38 3.54,10.51 3.38,10.59 3.19,10.59 2.8,10.6 2,10.2 2,8.2 2,6.39 3.36,4.6 4.4,4.6 4.74,4.6 4.79,4.99 4.8,5.28 5.82,3.85 7.41,2.87 9.24,2.65 9.4,1.88 10.1,1.4 10.8,1.4 v 0.8 c 0,0 0.26,-0.4 0.8,-0.4 0.54,0 0.8,0.4 0.8,0.4 -0.39,0 -0.68,0.28 -0.76,0.62 1.46,0.39 2.71,1.27 3.57,2.46 C 15.22,4.99 15.27,4.6 15.61,4.6 16.64,4.6 18,6.39 18,8.2 Z M 4.4,9 c 0,0.65 0.08,1.23 0.2,1.77 C 4.75,10.22 4.97,9.7 5.27,9.23 5.1,8.85 5,8.44 5,8 5,6.34 6.34,5 8,5 8.77,5 9.47,5.3 10,5.78 10.53,5.3 11.23,5 12,5 c 1.66,0 3,1.34 3,3 0,0.44 -0.1,0.85 -0.27,1.23 0.3,0.47 0.53,0.99 0.67,1.55 C 15.52,10.24 15.6,9.66 15.6,9 15.6,5.91 13.09,3.4 10,3.4 6.91,3.4 4.4,5.91 4.4,9 Z m 10.38,3.44 c 0,-0.08 0.02,-0.15 0.02,-0.24 0,-0.8 -0.21,-1.56 -0.56,-2.22 C 13.69,10.6 12.9,11 12,11 c -0.22,0 -0.43,-0.02 -0.63,-0.07 0.11,-0.19 0.18,-0.4 0.21,-0.62 0.01,-0.05 0.01,-0.1 0.01,-0.16 0.13,0.03 0.27,0.04 0.4,0.04 1.21,0 2.2,-0.99 2.2,-2.2 C 14.19,6.78 13.21,5.8 12,5.8 11.47,5.8 10.95,6 10.54,6.37 L 10,6.86 9.46,6.37 C 9.05,6 8.53,5.8 8,5.8 6.79,5.8 5.8,6.79 5.8,8 c 0,1.07 0.77,1.97 1.79,2.16 L 6.98,10.82 C 6.5,10.65 6.09,10.35 5.76,9.98 5.41,10.65 5.2,11.4 5.2,12.2 c 0,0.07 0.01,0.12 0.01,0.19 0.89,1.46 2.5,2.21 4.79,2.21 2.3,0 3.9,-0.73 4.78,-2.16 z M 13.2,8 c 0,0.77 -0.54,1.4 -1.2,1.4 -0.66,0 -1.2,-0.63 -1.2,-1.4 0,-0.77 0.54,-1.4 1.2,-1.4 0.66,0 1.2,0.63 1.2,1.4 z M 12.6,7.3 C 12.6,7.13 12.47,7 12.3,7 12.13,7 12,7.13 12,7.3 c 0,0.17 0.13,0.3 0.3,0.3 0.17,0 0.3,-0.13 0.3,-0.3 z M 9.2,8 C 9.2,8.77 8.66,9.4 8,9.4 7.34,9.4 6.8,8.77 6.8,8 6.8,7.23 7.34,6.6 8,6.6 8.66,6.6 9.2,7.23 9.2,8 Z M 8.6,7.3 C 8.6,7.13 8.47,7 8.3,7 8.13,7 8,7.13 8,7.3 8,7.47 8.13,7.6 8.3,7.6 8.47,7.6 8.6,7.47 8.6,7.3 Z"
       id="path534" />
  </g>
</svg>
