<?xml version="1.0" encoding="UTF-8" standalone="no"?>
<svg
   xmlns:dc="http://purl.org/dc/elements/1.1/"
   xmlns:cc="http://creativecommons.org/ns#"
   xmlns:rdf="http://www.w3.org/1999/02/22-rdf-syntax-ns#"
   xmlns:svg="http://www.w3.org/2000/svg"
   xmlns="http://www.w3.org/2000/svg"
   xmlns:sodipodi="http://sodipodi.sourceforge.net/DTD/sodipodi-0.dtd"
   xmlns:inkscape="http://www.inkscape.org/namespaces/inkscape"
   height="56"
   viewBox="0 0 24 24"
   width="56"
   fill="#000000"
   version="1.1"
   id="svg16808"
   sodipodi:docname="folder_open.svg"
   inkscape:version="0.92.4 (5da689c313, 2019-01-14)">
  <metadata
     id="metadata16814">
    <rdf:RDF>
      <cc:Work
         rdf:about="">
        <dc:format>image/svg+xml</dc:format>
        <dc:type
           rdf:resource="http://purl.org/dc/dcmitype/StillImage" />
      </cc:Work>
    </rdf:RDF>
  </metadata>
  <defs
     id="defs16812" />
  <sodipodi:namedview
     pagecolor="#ffffff"
     bordercolor="#666666"
     borderopacity="1"
     objecttolerance="10"
     gridtolerance="10"
     guidetolerance="10"
     inkscape:pageopacity="0"
     inkscape:pageshadow="2"
     inkscape:window-width="933"
     inkscape:window-height="480"
     id="namedview16810"
     showgrid="false"
     inkscape:zoom="4.2142857"
     inkscape:cx="28"
     inkscape:cy="28"
     inkscape:window-x="0"
     inkscape:window-y="0"
     inkscape:window-maximized="0"
     inkscape:current-layer="svg16808" />
  <path
     d="M0 0h24v24H0V0z"
     fill="none"
     id="path16804" />
  <path
     d="M 21.6,4.8 H 12 L 10.308,3.108 C 9.852,2.652 9.24,2.4 8.604,2.4 H 2.4 C 1.08,2.4 0.012,3.48 0.012,4.8 L 0,19.2 c 0,1.32 1.08,2.4 2.4,2.4 h 19.2 c 1.32,0 2.4,-1.08 2.4,-2.4 V 7.2 C 24,5.88 22.92,4.8 21.6,4.8 Z M 20.4,19.2 H 3.6 C 2.94,19.2 2.4,18.66 2.4,18 V 8.4 C 2.4,7.74 2.94,7.2 3.6,7.2 h 16.8 c 0.66,0 1.2,0.54 1.2,1.2 V 18 c 0,0.66 -0.54,1.2 -1.2,1.2 z"
     id="path16806"
     inkscape:connector-curvature="0"
     style="stroke-width:1.20000005" />
</svg>
