<?xml version="1.0" encoding="UTF-8" standalone="no"?>
<svg
   xmlns:dc="http://purl.org/dc/elements/1.1/"
   xmlns:cc="http://creativecommons.org/ns#"
   xmlns:rdf="http://www.w3.org/1999/02/22-rdf-syntax-ns#"
   xmlns:svg="http://www.w3.org/2000/svg"
   xmlns="http://www.w3.org/2000/svg"
   xmlns:sodipodi="http://sodipodi.sourceforge.net/DTD/sodipodi-0.dtd"
   xmlns:inkscape="http://www.inkscape.org/namespaces/inkscape"
   height="56"
   viewBox="0 0 24 24"
   width="56"
   fill="#000000"
   version="1.1"
   id="svg2556"
   sodipodi:docname="fullscreen_exit.svg"
   inkscape:version="0.92.4 (5da689c313, 2019-01-14)">
  <metadata
     id="metadata2562">
    <rdf:RDF>
      <cc:Work
         rdf:about="">
        <dc:format>image/svg+xml</dc:format>
        <dc:type
           rdf:resource="http://purl.org/dc/dcmitype/StillImage" />
      </cc:Work>
    </rdf:RDF>
  </metadata>
  <defs
     id="defs2560" />
  <sodipodi:namedview
     pagecolor="#ffffff"
     bordercolor="#666666"
     borderopacity="1"
     objecttolerance="10"
     gridtolerance="10"
     guidetolerance="10"
     inkscape:pageopacity="0"
     inkscape:pageshadow="2"
     inkscape:window-width="1290"
     inkscape:window-height="749"
     id="namedview2558"
     showgrid="false"
     inkscape:zoom="4.2142857"
     inkscape:cx="28"
     inkscape:cy="28"
     inkscape:window-x="0"
     inkscape:window-y="0"
     inkscape:window-maximized="0"
     inkscape:current-layer="svg2556" />
  <path
     d="M0 0h24v24H0V0z"
     fill="none"
     id="path2552" />
  <path
     d="m 1.7142857,18.857143 h 3.4285714 v 3.428571 C 5.1428571,23.228571 5.9142857,24 6.8571429,24 7.8,24 8.5714286,23.228571 8.5714286,22.285714 V 17.142857 C 8.5714286,16.2 7.8,15.428571 6.8571429,15.428571 H 1.7142857 C 0.77142857,15.428571 0,16.2 0,17.142857 c 0,0.942857 0.77142857,1.714286 1.7142857,1.714286 z M 5.1428571,5.1428571 H 1.7142857 C 0.77142857,5.1428571 0,5.9142857 0,6.8571429 0,7.8 0.77142857,8.5714286 1.7142857,8.5714286 H 6.8571429 C 7.8,8.5714286 8.5714286,7.8 8.5714286,6.8571429 V 1.7142857 C 8.5714286,0.77142857 7.8,0 6.8571429,0 5.9142857,0 5.1428571,0.77142857 5.1428571,1.7142857 Z M 17.142857,24 c 0.942857,0 1.714286,-0.771429 1.714286,-1.714286 v -3.428571 h 3.428571 C 23.228571,18.857143 24,18.085714 24,17.142857 24,16.2 23.228571,15.428571 22.285714,15.428571 h -5.142857 c -0.942857,0 -1.714286,0.771429 -1.714286,1.714286 v 5.142857 C 15.428571,23.228571 16.2,24 17.142857,24 Z M 18.857143,5.1428571 V 1.7142857 C 18.857143,0.77142857 18.085714,0 17.142857,0 16.2,0 15.428571,0.77142857 15.428571,1.7142857 V 6.8571429 C 15.428571,7.8 16.2,8.5714286 17.142857,8.5714286 h 5.142857 C 23.228571,8.5714286 24,7.8 24,6.8571429 24,5.9142857 23.228571,5.1428571 22.285714,5.1428571 Z"
     id="path2554"
     inkscape:connector-curvature="0"
     style="stroke-width:1.71428573" />
</svg>
