<?xml version="1.0" encoding="UTF-8" standalone="no"?>
<svg
   enable-background="new 0 0 20 20"
   height="56"
   viewBox="0 0 23.333333 23.333333"
   width="56"
   fill="#000000"
   version="1.1"
   id="svg564"
   sodipodi:docname="heat_pump_48dp.svg"
   inkscape:version="1.2.2 (732a01da63, 2022-12-09)"
   xmlns:inkscape="http://www.inkscape.org/namespaces/inkscape"
   xmlns:sodipodi="http://sodipodi.sourceforge.net/DTD/sodipodi-0.dtd"
   xmlns="http://www.w3.org/2000/svg"
   xmlns:svg="http://www.w3.org/2000/svg">
  <defs
     id="defs568" />
  <sodipodi:namedview
     id="namedview566"
     pagecolor="#ffffff"
     bordercolor="#999999"
     borderopacity="1"
     inkscape:showpageshadow="0"
     inkscape:pageopacity="0"
     inkscape:pagecheckerboard="0"
     inkscape:deskcolor="#d1d1d1"
     showgrid="false"
     inkscape:zoom="10.697917"
     inkscape:cx="1.4021422"
     inkscape:cy="35.380721"
     inkscape:window-width="1346"
     inkscape:window-height="1230"
     inkscape:window-x="3935"
     inkscape:window-y="76"
     inkscape:window-maximized="0"
     inkscape:current-layer="svg564" />
  <g
     id="g558">
    <rect
       fill="none"
       height="20"
       width="20"
       id="rect556"
       x="0"
       y="0" />
  </g>
  <g
     id="g562"
     transform="matrix(1.6398665,0,0,1.6398665,-4.7238837,-4.7628321)">
    <path
       d="M 15.5,3 H 4.5 C 3.67,3 3,3.67 3,4.5 v 11 C 3,16.33 3.67,17 4.5,17 h 11 C 16.33,17 17,16.33 17,15.5 V 4.5 C 17,3.67 16.33,3 15.5,3 Z m -5,3.3 c 0.66,0.09 1.26,0.34 1.76,0.73 L 10.5,8.79 Z m -1,0 V 8.79 L 7.74,7.03 C 8.24,6.64 8.84,6.39 9.5,6.3 Z M 7.03,7.74 8.79,9.5 H 6.3 C 6.39,8.84 6.64,8.24 7.03,7.74 Z M 6.3,10.5 H 8.79 L 7.03,12.26 C 6.64,11.76 6.39,11.16 6.3,10.5 Z m 3.2,3.2 C 8.84,13.61 8.24,13.36 7.74,12.97 L 9.5,11.21 Z M 9.25,10 c 0,-0.41 0.34,-0.75 0.75,-0.75 0.41,0 0.75,0.34 0.75,0.75 0,0.41 -0.34,0.75 -0.75,0.75 -0.41,0 -0.75,-0.34 -0.75,-0.75 z m 1.25,3.7 v -2.49 l 1.76,1.76 c -0.5,0.39 -1.1,0.64 -1.76,0.73 z m 2.47,-1.44 -1.76,-1.76 h 2.49 c -0.09,0.66 -0.34,1.26 -0.73,1.76 z M 11.21,9.5 12.97,7.74 c 0.38,0.5 0.64,1.1 0.73,1.76 z"
       id="path560" />
  </g>
</svg>
