<?xml version="1.0" encoding="UTF-8" standalone="no"?>
<svg
   xmlns:dc="http://purl.org/dc/elements/1.1/"
   xmlns:cc="http://creativecommons.org/ns#"
   xmlns:rdf="http://www.w3.org/1999/02/22-rdf-syntax-ns#"
   xmlns:svg="http://www.w3.org/2000/svg"
   xmlns="http://www.w3.org/2000/svg"
   xmlns:sodipodi="http://sodipodi.sourceforge.net/DTD/sodipodi-0.dtd"
   xmlns:inkscape="http://www.inkscape.org/namespaces/inkscape"
   height="56"
   viewBox="0 0 24 24"
   width="56"
   fill="#000000"
   version="1.1"
   id="svg17954"
   sodipodi:docname="home.svg"
   inkscape:version="0.92.4 (5da689c313, 2019-01-14)">
  <metadata
     id="metadata17960">
    <rdf:RDF>
      <cc:Work
         rdf:about="">
        <dc:format>image/svg+xml</dc:format>
        <dc:type
           rdf:resource="http://purl.org/dc/dcmitype/StillImage" />
      </cc:Work>
    </rdf:RDF>
  </metadata>
  <defs
     id="defs17958" />
  <sodipodi:namedview
     pagecolor="#ffffff"
     bordercolor="#666666"
     borderopacity="1"
     objecttolerance="10"
     gridtolerance="10"
     guidetolerance="10"
     inkscape:pageopacity="0"
     inkscape:pageshadow="2"
     inkscape:window-width="933"
     inkscape:window-height="480"
     id="namedview17956"
     showgrid="false"
     inkscape:zoom="4.2142857"
     inkscape:cx="28"
     inkscape:cy="28"
     inkscape:window-x="0"
     inkscape:window-y="0"
     inkscape:window-maximized="0"
     inkscape:current-layer="svg17954" />
  <path
     d="M0 0h24v24H0V0z"
     fill="none"
     id="path17950" />
  <path
     d="m 9.3906491,21.230032 v -6.521687 h 5.2173499 v 6.521687 c 0,0.717386 0.586952,1.304338 1.304337,1.304338 h 3.913012 c 0.717386,0 1.304338,-0.586952 1.304338,-1.304338 v -9.130361 h 2.217373 c 0.599996,0 0.88695,-0.743473 0.430432,-1.134774 L 12.87323,1.1432362 c -0.495648,-0.44347475 -1.252164,-0.44347475 -1.747812,0 L 0.22115703,10.964897 c -0.44347472,0.391301 -0.16956386,1.134774 0.43043135,1.134774 H 2.868962 v 9.130361 c 0,0.717386 0.5869518,1.304338 1.3043374,1.304338 h 3.9130123 c 0.7173856,0 1.3043374,-0.586952 1.3043374,-1.304338 z"
     id="path17952"
     inkscape:connector-curvature="0"
     style="stroke-width:1.30433738" />
</svg>
