<?xml version="1.0" encoding="UTF-8" standalone="no"?>
<svg
   xmlns:dc="http://purl.org/dc/elements/1.1/"
   xmlns:cc="http://creativecommons.org/ns#"
   xmlns:rdf="http://www.w3.org/1999/02/22-rdf-syntax-ns#"
   xmlns:svg="http://www.w3.org/2000/svg"
   xmlns="http://www.w3.org/2000/svg"
   xmlns:sodipodi="http://sodipodi.sourceforge.net/DTD/sodipodi-0.dtd"
   xmlns:inkscape="http://www.inkscape.org/namespaces/inkscape"
   height="56"
   viewBox="0 0 56 56"
   width="56"
   version="1.1"
   id="svg4"
   sodipodi:docname="icon_PSE.svg"
   inkscape:version="0.92.4 (5da689c313, 2019-01-14)"
   style="fill:#000000">
  <metadata
     id="metadata10">
    <rdf:RDF>
      <cc:Work
         rdf:about="">
        <dc:format>image/svg+xml</dc:format>
        <dc:type
           rdf:resource="http://purl.org/dc/dcmitype/StillImage" />
        <dc:title></dc:title>
      </cc:Work>
    </rdf:RDF>
  </metadata>
  <defs
     id="defs8" />
  <sodipodi:namedview
     pagecolor="#ffffff"
     bordercolor="#666666"
     borderopacity="1"
     objecttolerance="10"
     gridtolerance="10"
     guidetolerance="10"
     inkscape:pageopacity="0"
     inkscape:pageshadow="2"
     inkscape:window-width="1920"
     inkscape:window-height="1017"
     id="namedview6"
     showgrid="false"
     inkscape:zoom="10.24"
     inkscape:cx="28.50898"
     inkscape:cy="16.611559"
     inkscape:window-x="-8"
     inkscape:window-y="-8"
     inkscape:window-maximized="1"
     inkscape:current-layer="svg4" />
  <path
     id="rect1193"
     style="fill:#000000;fill-opacity:1;stroke:none;stroke-width:3.5;stroke-linecap:square;stroke-linejoin:miter;stroke-miterlimit:4;stroke-dasharray:none;stroke-opacity:1"
     d="M 5.709376,5.2 C 2.546684,5.199997 0,7.746681 0,10.909374 v 33.38125 C 0,47.453319 2.546684,50 5.709376,50 H 50.290624 C 53.453316,50 56,47.453319 56,44.290624 V 10.909374 C 56,7.746681 53.453316,5.2 50.290624,5.2 Z m 3.144532,14 c 0.042364,-3e-6 0.073556,0.02974 0.114856,0.03282 0.01484,-8.4e-4 0.02324,-0.01652 0.038276,-0.01652 h 2.96406 c 0.0045,0 0.0064,0.0053 0.01092,0.0056 h 4.642972 c 2.290598,0 4.134373,1.840535 4.134373,4.128905 v 2.920313 c -3e-6,2.288368 -1.843775,4.134377 -4.134373,4.134377 h -5.517983 c -0.04906,0 -0.09355,-0.01484 -0.142184,-0.01652 V 33.8835 c 0,1.171615 -0.942497,2.116408 -2.1109366,2.116408 C 7.685446,35.99991 6.742952,35.055115 6.742952,33.8835 V 21.310937 C 6.742952,20.139324 7.685446,19.2 8.8538884,19.2 Z m 18.839842,0 h 5.583592 c 0.958124,0 1.728126,0.760547 1.728126,1.711718 v 0.07655 c 0,0.951169 -0.770002,1.717187 -1.728126,1.717187 h -2.22031 c 5.6e-4,0.0076 0.005,0.01428 0.0056,0.02184 h -3.478127 v 3.07344 h 3.489063 c 0.07596,-0.0045 0.147028,-0.02184 0.224224,-0.02184 2.049556,0 3.696877,1.63485 3.696877,3.669531 v 2.876564 c 0,2.034684 -1.647319,3.675 -3.696877,3.675 -0.116844,0 -0.225148,-0.0224 -0.339063,-0.03282 -0.03856,0.0025 -0.0756,0.02184 -0.114828,0.02184 h -5.589063 c -0.958124,-6e-6 -1.728126,-0.766019 -1.728124,-1.71719 v -0.07655 c -5e-6,-0.951168 0.77,-1.717187 1.728124,-1.717187 h 5.589063 c 0.09013,0 0.170688,0.03606 0.25704,0.04922 V 29.47028 h -3.5 v -0.02184 c 0,-0.01316 0.0053,-0.0252 0.0056,-0.03828 -0.07608,0.0045 -0.152376,0.02184 -0.229684,0.02184 -2.049555,0 -3.702345,-1.63485 -3.702345,-3.669532 v -2.882043 c 0,-2.034681 1.652793,-3.669531 3.702345,-3.669531 0.06045,0 0.120736,0.01344 0.18046,0.01652 0.04763,-0.0039 0.08806,-0.02744 0.136724,-0.02744 z m 12.195313,0 c 0.01148,0 0.02128,0.0053 0.03282,0.0056 0.0098,-1.4e-4 0.01764,-0.0056 0.02744,-0.0056 h 7.563282 c 0.968884,0 1.744531,0.76636 1.744531,1.728124 0,0.961763 -0.775639,1.739063 -1.744531,1.739063 h -5.501664 v 3.226563 h 5.255468 c 0.968893,0 1.75,0.7773 1.75,1.73906 0,0.961764 -0.781107,1.739064 -1.75,1.739064 h -5.255468 v 3.155468 h 5.255468 c 0.968893,0 1.75,0.771831 1.75,1.733595 0,0.961761 -0.781107,1.739063 -1.75,1.739063 h -7.377342 -0.175 C 39.190725,36 38.738351,35.758164 38.417972,35.398437 38.02439,35.016419 37.772659,34.486776 37.772659,33.894532 V 21.3 c 0,-1.164708 0.943065,-2.1 2.116408,-2.1 z M 11.025,23.585937 v 2.860155 h 5.6 v -2.860155 z"
     inkscape:connector-curvature="0" />
</svg>
