<?xml version="1.0" encoding="UTF-8" standalone="no"?>
<svg
   xmlns:dc="http://purl.org/dc/elements/1.1/"
   xmlns:cc="http://creativecommons.org/ns#"
   xmlns:rdf="http://www.w3.org/1999/02/22-rdf-syntax-ns#"
   xmlns:svg="http://www.w3.org/2000/svg"
   xmlns="http://www.w3.org/2000/svg"
   xmlns:sodipodi="http://sodipodi.sourceforge.net/DTD/sodipodi-0.dtd"
   xmlns:inkscape="http://www.inkscape.org/namespaces/inkscape"
   height="56"
   viewBox="0 0 24 24"
   width="56"
   fill="#000000"
   version="1.1"
   id="svg18529"
   sodipodi:docname="import.svg"
   inkscape:version="0.92.4 (5da689c313, 2019-01-14)">
  <metadata
     id="metadata18535">
    <rdf:RDF>
      <cc:Work
         rdf:about="">
        <dc:format>image/svg+xml</dc:format>
        <dc:type
           rdf:resource="http://purl.org/dc/dcmitype/StillImage" />
      </cc:Work>
    </rdf:RDF>
  </metadata>
  <defs
     id="defs18533" />
  <sodipodi:namedview
     pagecolor="#ffffff"
     bordercolor="#666666"
     borderopacity="1"
     objecttolerance="10"
     gridtolerance="10"
     guidetolerance="10"
     inkscape:pageopacity="0"
     inkscape:pageshadow="2"
     inkscape:window-width="933"
     inkscape:window-height="480"
     id="namedview18531"
     showgrid="false"
     inkscape:zoom="4.2142857"
     inkscape:cx="28"
     inkscape:cy="28"
     inkscape:window-x="0"
     inkscape:window-y="0"
     inkscape:window-maximized="0"
     inkscape:current-layer="svg18529" />
  <path
     d="M 1.7969103,8.5653742 H 16.909583 c 0.831197,0 1.511268,0.6800702 1.511268,1.5112668 0,0.831198 -0.680071,1.511268 -1.511268,1.511268 H 1.7969103 c -0.83119693,0 -1.51126722,-0.68007 -1.51126722,-1.511268 0,-0.8311966 0.68007029,-1.5112668 1.51126722,-1.5112668 z m 0,-6.0450693 H 16.909583 c 0.831197,0 1.511268,0.6800703 1.511268,1.5112674 0,0.831197 -0.680071,1.5112673 -1.511268,1.5112673 H 1.7969103 c -0.83119693,0 -1.51126722,-0.6800703 -1.51126722,-1.5112673 0,-0.8311971 0.68007029,-1.5112674 1.51126722,-1.5112674 z m 0,12.0901381 h 9.0676037 c 0.831198,0 1.511268,0.68007 1.511268,1.511268 0,0.831197 -0.68007,1.511267 -1.511268,1.511267 H 1.7969103 c -0.83119693,0 -1.51126722,-0.68007 -1.51126722,-1.511267 0,-0.831198 0.68007029,-1.511268 1.51126722,-1.511268 z m 13.6014057,1.329916 v 6.39266 c 0,0.589395 0.634733,0.952099 1.148564,0.649845 l 5.334772,-3.203886 c 0.483606,-0.287141 0.483606,-0.997437 0,-1.29969 L 16.54688,15.275401 c -0.513831,-0.287141 -1.148564,0.07556 -1.148564,0.664958 z"
     id="path18527"
     inkscape:connector-curvature="0"
     style="stroke-width:1.5112673" />
</svg>
