<?xml version="1.0" encoding="UTF-8" standalone="no"?>
<svg
   xmlns:dc="http://purl.org/dc/elements/1.1/"
   xmlns:cc="http://creativecommons.org/ns#"
   xmlns:rdf="http://www.w3.org/1999/02/22-rdf-syntax-ns#"
   xmlns:svg="http://www.w3.org/2000/svg"
   xmlns="http://www.w3.org/2000/svg"
   xmlns:sodipodi="http://sodipodi.sourceforge.net/DTD/sodipodi-0.dtd"
   xmlns:inkscape="http://www.inkscape.org/namespaces/inkscape"
   height="56"
   viewBox="0 0 24 24"
   width="56"
   fill="#000000"
   version="1.1"
   id="svg19101"
   sodipodi:docname="info.svg"
   inkscape:version="0.92.4 (5da689c313, 2019-01-14)">
  <metadata
     id="metadata19107">
    <rdf:RDF>
      <cc:Work
         rdf:about="">
        <dc:format>image/svg+xml</dc:format>
        <dc:type
           rdf:resource="http://purl.org/dc/dcmitype/StillImage" />
      </cc:Work>
    </rdf:RDF>
  </metadata>
  <defs
     id="defs19105" />
  <sodipodi:namedview
     pagecolor="#ffffff"
     bordercolor="#666666"
     borderopacity="1"
     objecttolerance="10"
     gridtolerance="10"
     guidetolerance="10"
     inkscape:pageopacity="0"
     inkscape:pageshadow="2"
     inkscape:window-width="933"
     inkscape:window-height="480"
     id="namedview19103"
     showgrid="false"
     inkscape:zoom="90.509668"
     inkscape:cx="27.061102"
     inkscape:cy="-0.795919"
     inkscape:window-x="0"
     inkscape:window-y="0"
     inkscape:window-maximized="0"
     inkscape:current-layer="svg19101" />
  <path
     d="M0 0h24v24H0V0z"
     fill="none"
     id="path19097" />
  <path
     d="M 12,0 C 5.376,0 0,5.376 0,12 0,18.624 5.376,24 12,24 18.624,24 24,18.624 24,12 24,5.376 18.624,0 12,0 Z m 0,18 c -0.66,0 -1.2,-0.54 -1.2,-1.2 V 12 c 0,-0.66 0.54,-1.2 1.2,-1.2 0.66,0 1.2,0.54 1.2,1.2 v 4.8 C 13.2,17.46 12.66,18 12,18 Z M 13.2,8.4 H 10.8 V 6 h 2.4 z"
     id="path19099"
     inkscape:connector-curvature="0"
     style="stroke-width:1.20000005" />
</svg>
