<?xml version="1.0" encoding="UTF-8" standalone="no"?>
<svg
   enable-background="new 0 0 20 20"
   height="56"
   viewBox="0 0 23.333333 23.333333"
   width="56"
   fill="#000000"
   version="1.1"
   id="svg218"
   sodipodi:docname="inventory_2_48dp.svg"
   inkscape:version="1.2.2 (732a01da63, 2022-12-09)"
   xmlns:inkscape="http://www.inkscape.org/namespaces/inkscape"
   xmlns:sodipodi="http://sodipodi.sourceforge.net/DTD/sodipodi-0.dtd"
   xmlns="http://www.w3.org/2000/svg"
   xmlns:svg="http://www.w3.org/2000/svg">
  <defs
     id="defs222" />
  <sodipodi:namedview
     id="namedview220"
     pagecolor="#ffffff"
     bordercolor="#999999"
     borderopacity="1"
     inkscape:showpageshadow="0"
     inkscape:pageopacity="0"
     inkscape:pagecheckerboard="0"
     inkscape:deskcolor="#d1d1d1"
     showgrid="false"
     inkscape:zoom="7.5645694"
     inkscape:cx="-14.673671"
     inkscape:cy="48.51565"
     inkscape:window-width="2560"
     inkscape:window-height="1369"
     inkscape:window-x="3832"
     inkscape:window-y="-8"
     inkscape:window-maximized="1"
     inkscape:current-layer="svg218" />
  <g
     id="g208">
    <rect
       fill="none"
       height="20"
       width="20"
       y="0"
       id="rect206"
       x="0" />
  </g>
  <g
     id="g216"
     transform="matrix(1.4337656,0,0,1.4337656,-2.6852155,-2.6852155)">
    <g
       id="g214">
      <path
         d="M 16.5,2 H 3.5 C 2.67,2 2,2.67 2,3.5 v 3 C 2,7.15 2.42,7.7 3,7.91 V 16.5 C 3,17.33 3.67,18 4.5,18 h 11 C 16.33,18 17,17.33 17,16.5 V 7.91 C 17.58,7.7 18,7.15 18,6.5 v -3 C 18,2.67 17.33,2 16.5,2 Z m 0,4.5 h -13 v -3 h 13 z m -12,10 V 8 h 11 v 8.5 z"
         id="path210" />
      <rect
         height="1.5"
         width="4"
         x="8"
         y="10"
         id="rect212" />
    </g>
  </g>
</svg>
