<?xml version="1.0" encoding="UTF-8" standalone="no"?>
<svg
   xmlns:dc="http://purl.org/dc/elements/1.1/"
   xmlns:cc="http://creativecommons.org/ns#"
   xmlns:rdf="http://www.w3.org/1999/02/22-rdf-syntax-ns#"
   xmlns:svg="http://www.w3.org/2000/svg"
   xmlns="http://www.w3.org/2000/svg"
   xmlns:sodipodi="http://sodipodi.sourceforge.net/DTD/sodipodi-0.dtd"
   xmlns:inkscape="http://www.inkscape.org/namespaces/inkscape"
   height="56"
   viewBox="0 0 24 24"
   width="56"
   fill="#000000"
   version="1.1"
   id="svg5779"
   sodipodi:docname="lidl_budget.svg"
   inkscape:version="0.92.4 (5da689c313, 2019-01-14)">
  <metadata
     id="metadata5785">
    <rdf:RDF>
      <cc:Work
         rdf:about="">
        <dc:format>image/svg+xml</dc:format>
        <dc:type
           rdf:resource="http://purl.org/dc/dcmitype/StillImage" />
      </cc:Work>
    </rdf:RDF>
  </metadata>
  <defs
     id="defs5783" />
  <sodipodi:namedview
     pagecolor="#ffffff"
     bordercolor="#666666"
     borderopacity="1"
     objecttolerance="10"
     gridtolerance="10"
     guidetolerance="10"
     inkscape:pageopacity="0"
     inkscape:pageshadow="2"
     inkscape:window-width="828"
     inkscape:window-height="480"
     id="namedview5781"
     showgrid="false"
     inkscape:zoom="4.2142857"
     inkscape:cx="16.013122"
     inkscape:cy="28"
     inkscape:window-x="0"
     inkscape:window-y="0"
     inkscape:window-maximized="0"
     inkscape:current-layer="svg5779" />
  <path
     d="M0 0h24v24H0V0z"
     fill="none"
     id="path5775" />
  <path
     d="M 11.9,0 5.3,10.8 h 13.2 z m 0,4.608 2.316,3.792 H 9.572 Z m 6.6,8.592 c -2.988,0 -5.4,2.412 -5.4,5.4 0,2.988 2.412,5.4 5.4,5.4 2.988,0 5.4,-2.412 5.4,-5.4 0,-2.988 -2.412,-5.4 -5.4,-5.4 z m 0,8.4 c -1.656,0 -3,-1.344 -3,-3 0,-1.656 1.344,-3 3,-3 1.656,0 3,1.344 3,3 0,1.656 -1.344,3 -3,3 z M 1.1,23.4 h 9.6 V 13.8 H 1.1 Z M 3.5,16.2 H 8.3 V 21 H 3.5 Z"
     id="path5777"
     inkscape:connector-curvature="0"
     style="stroke-width:1.20000005" />
</svg>
