<?xml version="1.0" encoding="UTF-8" standalone="no"?>
<svg
   xmlns:dc="http://purl.org/dc/elements/1.1/"
   xmlns:cc="http://creativecommons.org/ns#"
   xmlns:rdf="http://www.w3.org/1999/02/22-rdf-syntax-ns#"
   xmlns:svg="http://www.w3.org/2000/svg"
   xmlns="http://www.w3.org/2000/svg"
   xmlns:sodipodi="http://sodipodi.sourceforge.net/DTD/sodipodi-0.dtd"
   xmlns:inkscape="http://www.inkscape.org/namespaces/inkscape"
   enable-background="new 0 0 24 24"
   height="56"
   viewBox="0 0 24 24"
   width="56"
   fill="#000000"
   version="1.1"
   id="svg20293"
   sodipodi:docname="news.svg"
   inkscape:version="0.92.4 (5da689c313, 2019-01-14)">
  <metadata
     id="metadata20299">
    <rdf:RDF>
      <cc:Work
         rdf:about="">
        <dc:format>image/svg+xml</dc:format>
        <dc:type
           rdf:resource="http://purl.org/dc/dcmitype/StillImage" />
      </cc:Work>
    </rdf:RDF>
  </metadata>
  <defs
     id="defs20297" />
  <sodipodi:namedview
     pagecolor="#ffffff"
     bordercolor="#666666"
     borderopacity="1"
     objecttolerance="10"
     gridtolerance="10"
     guidetolerance="10"
     inkscape:pageopacity="0"
     inkscape:pageshadow="2"
     inkscape:window-width="933"
     inkscape:window-height="480"
     id="namedview20295"
     showgrid="false"
     inkscape:zoom="4.2142857"
     inkscape:cx="28"
     inkscape:cy="28"
     inkscape:window-x="0"
     inkscape:window-y="0"
     inkscape:window-maximized="0"
     inkscape:current-layer="svg20293" />
  <g
     id="g20281">
    <rect
       fill="none"
       height="24"
       width="24"
       id="rect20279" />
  </g>
  <path
     d="m 19.2,10.8 c 0,0.804 0,1.596 0,2.4 1.44,0 3.312,0 4.8,0 0,-0.804 0,-1.596 0,-2.4 -1.488,0 -3.36,0 -4.8,0 z"
     id="path20283"
     inkscape:connector-curvature="0"
     style="stroke-width:1.20000005" />
  <path
     d="m 16.8,18.732 c 1.152,0.852 2.652,1.98 3.84,2.868 0.48,-0.636 0.96,-1.284 1.44,-1.92 -1.188,-0.888 -2.688,-2.016 -3.84,-2.88 -0.48,0.648 -0.96,1.296 -1.44,1.932 z"
     id="path20285"
     inkscape:connector-curvature="0"
     style="stroke-width:1.20000005" />
  <path
     d="M 22.08,4.32 C 21.6,3.684 21.12,3.036 20.64,2.4 19.452,3.288 17.952,4.416 16.8,5.28 c 0.48,0.636 0.96,1.284 1.44,1.92 1.152,-0.864 2.652,-1.98 3.84,-2.88 z"
     id="path20287"
     inkscape:connector-curvature="0"
     style="stroke-width:1.20000005" />
  <path
     d="M 2.4,8.4 C 1.08,8.4 0,9.48 0,10.8 v 2.4 c 0,1.32 1.08,2.4 2.4,2.4 h 1.2 v 4.8 H 6 v -4.8 h 1.2 l 6,3.6 V 4.8 l -6,3.6 z M 8.436,10.452 10.8,9.036 v 5.928 L 8.436,13.548 7.86,13.2 H 7.2 2.4 v -2.4 h 4.8 0.66 z"
     id="path20289"
     inkscape:connector-curvature="0"
     style="stroke-width:1.20000005" />
  <path
     d="m 16.2,12 c 0,-1.596 -0.696,-3.036 -1.8,-4.02 v 8.028 C 15.504,15.036 16.2,13.596 16.2,12 Z"
     id="path20291"
     inkscape:connector-curvature="0"
     style="stroke-width:1.20000005" />
</svg>
