<?xml version="1.0" encoding="UTF-8" standalone="no"?>
<svg
   xmlns:dc="http://purl.org/dc/elements/1.1/"
   xmlns:cc="http://creativecommons.org/ns#"
   xmlns:rdf="http://www.w3.org/1999/02/22-rdf-syntax-ns#"
   xmlns:svg="http://www.w3.org/2000/svg"
   xmlns="http://www.w3.org/2000/svg"
   xmlns:sodipodi="http://sodipodi.sourceforge.net/DTD/sodipodi-0.dtd"
   xmlns:inkscape="http://www.inkscape.org/namespaces/inkscape"
   enable-background="new 0 0 24 24"
   height="56"
   viewBox="0 0 24 24"
   width="56"
   fill="#000000"
   version="1.1"
   id="svg4548"
   sodipodi:docname="palette.svg"
   inkscape:version="0.92.4 (5da689c313, 2019-01-14)">
  <metadata
     id="metadata4554">
    <rdf:RDF>
      <cc:Work
         rdf:about="">
        <dc:format>image/svg+xml</dc:format>
        <dc:type
           rdf:resource="http://purl.org/dc/dcmitype/StillImage" />
        <dc:title></dc:title>
      </cc:Work>
    </rdf:RDF>
  </metadata>
  <defs
     id="defs4552" />
  <sodipodi:namedview
     pagecolor="#ffffff"
     bordercolor="#666666"
     borderopacity="1"
     objecttolerance="10"
     gridtolerance="10"
     guidetolerance="10"
     inkscape:pageopacity="0"
     inkscape:pageshadow="2"
     inkscape:window-width="1497"
     inkscape:window-height="767"
     id="namedview4550"
     showgrid="false"
     inkscape:zoom="2.1071429"
     inkscape:cx="12.907508"
     inkscape:cy="-18.438545"
     inkscape:window-x="0"
     inkscape:window-y="0"
     inkscape:window-maximized="0"
     inkscape:current-layer="svg4548" />
  <g
     id="g4542">
    <rect
       fill="none"
       height="56"
       width="56"
       id="rect4540" />
  </g>
  <g
     id="g4546"
     transform="matrix(1.2,0,0,1.2,-2.4,-2.4)">
    <path
       d="M 12,2 C 6.49,2 2,6.49 2,12 c 0,5.51 4.49,10 10,10 1.38,0 2.5,-1.12 2.5,-2.5 0,-0.61 -0.23,-1.2 -0.64,-1.67 -0.08,-0.1 -0.13,-0.21 -0.13,-0.33 0,-0.28 0.22,-0.5 0.5,-0.5 H 16 c 3.31,0 6,-2.69 6,-6 C 22,6.04 17.51,2 12,2 Z m 5.5,11 C 16.67,13 16,12.33 16,11.5 16,10.67 16.67,10 17.5,10 c 0.83,0 1.5,0.67 1.5,1.5 0,0.83 -0.67,1.5 -1.5,1.5 z m -3,-4 C 13.67,9 13,8.33 13,7.5 13,6.67 13.67,6 14.5,6 15.33,6 16,6.67 16,7.5 16,8.33 15.33,9 14.5,9 Z M 5,11.5 C 5,10.67 5.67,10 6.5,10 7.33,10 8,10.67 8,11.5 8,12.33 7.33,13 6.5,13 5.67,13 5,12.33 5,11.5 Z m 6,-4 C 11,8.33 10.33,9 9.5,9 8.67,9 8,8.33 8,7.5 8,6.67 8.67,6 9.5,6 10.33,6 11,6.67 11,7.5 Z"
       id="path4544"
       inkscape:connector-curvature="0" />
  </g>
</svg>
