<?xml version="1.0" encoding="UTF-8" standalone="no"?>
<svg
   xmlns:dc="http://purl.org/dc/elements/1.1/"
   xmlns:cc="http://creativecommons.org/ns#"
   xmlns:rdf="http://www.w3.org/1999/02/22-rdf-syntax-ns#"
   xmlns:svg="http://www.w3.org/2000/svg"
   xmlns="http://www.w3.org/2000/svg"
   xmlns:sodipodi="http://sodipodi.sourceforge.net/DTD/sodipodi-0.dtd"
   xmlns:inkscape="http://www.inkscape.org/namespaces/inkscape"
   enable-background="new 0 0 24 24"
   height="56"
   viewBox="0 0 24 24"
   width="56"
   fill="#000000"
   version="1.1"
   id="svg21530"
   sodipodi:docname="pap.svg"
   inkscape:version="0.92.4 (5da689c313, 2019-01-14)">
  <metadata
     id="metadata21536">
    <rdf:RDF>
      <cc:Work
         rdf:about="">
        <dc:format>image/svg+xml</dc:format>
        <dc:type
           rdf:resource="http://purl.org/dc/dcmitype/StillImage" />
      </cc:Work>
    </rdf:RDF>
  </metadata>
  <defs
     id="defs21534" />
  <sodipodi:namedview
     pagecolor="#ffffff"
     bordercolor="#666666"
     borderopacity="1"
     objecttolerance="10"
     gridtolerance="10"
     guidetolerance="10"
     inkscape:pageopacity="0"
     inkscape:pageshadow="2"
     inkscape:window-width="933"
     inkscape:window-height="480"
     id="namedview21532"
     showgrid="false"
     inkscape:zoom="4.2142857"
     inkscape:cx="28"
     inkscape:cy="28"
     inkscape:window-x="0"
     inkscape:window-y="0"
     inkscape:window-maximized="0"
     inkscape:current-layer="svg21530" />
  <g
     id="g21520">
    <rect
       fill="none"
       height="24"
       width="24"
       id="rect21516" />
    <rect
       fill="none"
       height="24"
       width="24"
       id="rect21518" />
  </g>
  <g
     id="g21528"
     transform="matrix(1.1109901,0,0,1.1109901,-1.4199819,-1.3098216)">
    <g
       id="g21526">
      <path
         d="m 5,5 h 2 v 1 c 0,1.1 0.9,2 2,2 h 6 c 1.1,0 2,-0.9 2,-2 V 5 h 2 v 5 h 2 V 5 C 21,3.9 20.1,3 19,3 H 14.82 C 14.4,1.84 13.3,1 12,1 10.7,1 9.6,1.84 9.18,3 H 5 C 3.9,3 3,3.9 3,5 v 14 c 0,1.1 0.9,2 2,2 h 5 V 19 H 5 Z m 7,-2 c 0.55,0 1,0.45 1,1 0,0.55 -0.45,1 -1,1 -0.55,0 -1,-0.45 -1,-1 0,-0.55 0.45,-1 1,-1 z"
         id="path21522"
         inkscape:connector-curvature="0" />
      <path
         d="m 22.3,20.9 -2,-2 c 0.58,-1.01 0.95,-2.23 0.51,-3.65 -0.53,-1.72 -2.04,-3.05 -3.84,-3.22 -2.87,-0.28 -5.23,2.07 -4.95,4.95 0.18,1.79 1.5,3.31 3.22,3.84 1.43,0.44 2.64,0.07 3.65,-0.51 l 2,2 c 0.39,0.39 1.01,0.39 1.4,0 0.39,-0.39 0.4,-1.02 0.01,-1.41 z M 16.5,19 C 15.1,19 14,17.9 14,16.5 14,15.1 15.1,14 16.5,14 c 1.4,0 2.5,1.1 2.5,2.5 0,1.4 -1.1,2.5 -2.5,2.5 z"
         id="path21524"
         inkscape:connector-curvature="0" />
    </g>
  </g>
</svg>
