<?xml version="1.0" encoding="UTF-8" standalone="no"?>
<svg
   enable-background="new 0 0 20 20"
   height="56"
   viewBox="0 0 23.333333 23.333333"
   width="56"
   fill="#000000"
   version="1.1"
   id="svg597"
   sodipodi:docname="person_search_48dp.svg"
   inkscape:version="1.2.2 (732a01da63, 2022-12-09)"
   xmlns:inkscape="http://www.inkscape.org/namespaces/inkscape"
   xmlns:sodipodi="http://sodipodi.sourceforge.net/DTD/sodipodi-0.dtd"
   xmlns="http://www.w3.org/2000/svg"
   xmlns:svg="http://www.w3.org/2000/svg">
  <defs
     id="defs601" />
  <sodipodi:namedview
     id="namedview599"
     pagecolor="#ffffff"
     bordercolor="#999999"
     borderopacity="1"
     inkscape:showpageshadow="0"
     inkscape:pageopacity="0"
     inkscape:pagecheckerboard="0"
     inkscape:deskcolor="#d1d1d1"
     showgrid="false"
     inkscape:zoom="7.5645694"
     inkscape:cx="-1.1897571"
     inkscape:cy="48.185162"
     inkscape:window-width="1346"
     inkscape:window-height="1230"
     inkscape:window-x="3932"
     inkscape:window-y="82"
     inkscape:window-maximized="0"
     inkscape:current-layer="svg597" />
  <g
     id="g585">
    <rect
       fill="none"
       height="20"
       width="20"
       id="rect583"
       x="0"
       y="0" />
  </g>
  <g
     id="g595"
     transform="matrix(1.8266769,0,0,1.8266769,-6.556507,-8.5398921)">
    <g
       id="g593">
      <path
         d="M 10.14,10.93 C 7.85,10.59 4,11.52 4,13.21 V 14 c 0,0.55 0.45,1 1,1 H 9.35 C 9.04,14.36 8.47,12.47 10.14,10.93 Z"
         id="path587" />
      <circle
         cx="9"
         cy="7.5"
         r="2.5"
         id="circle589" />
      <path
         d="M 16.06,16.35 14.58,14.87 C 14.84,14.47 15,14 15,13.49 c 0,-1.38 -1.12,-2.5 -2.5,-2.5 -1.38,0 -2.5,1.13 -2.5,2.51 0,1.38 1.12,2.5 2.5,2.5 0.51,0 0.98,-0.15 1.38,-0.42 l 1.48,1.48 z M 12.5,15 C 11.67,15 11,14.33 11,13.5 11,12.67 11.67,12 12.5,12 c 0.83,0 1.5,0.67 1.5,1.5 0,0.83 -0.67,1.5 -1.5,1.5 z"
         id="path591" />
    </g>
  </g>
</svg>
