<?xml version="1.0" encoding="UTF-8" standalone="no"?>
<svg
   xmlns:dc="http://purl.org/dc/elements/1.1/"
   xmlns:cc="http://creativecommons.org/ns#"
   xmlns:rdf="http://www.w3.org/1999/02/22-rdf-syntax-ns#"
   xmlns:svg="http://www.w3.org/2000/svg"
   xmlns="http://www.w3.org/2000/svg"
   xmlns:sodipodi="http://sodipodi.sourceforge.net/DTD/sodipodi-0.dtd"
   xmlns:inkscape="http://www.inkscape.org/namespaces/inkscape"
   enable-background="new 0 0 24 24"
   height="56"
   viewBox="0 0 24 24"
   width="56"
   fill="#000000"
   version="1.1"
   id="svg6946"
   sodipodi:docname="read_more.svg"
   inkscape:version="0.92.4 (5da689c313, 2019-01-14)">
  <metadata
     id="metadata6952">
    <rdf:RDF>
      <cc:Work
         rdf:about="">
        <dc:format>image/svg+xml</dc:format>
        <dc:type
           rdf:resource="http://purl.org/dc/dcmitype/StillImage" />
      </cc:Work>
    </rdf:RDF>
  </metadata>
  <defs
     id="defs6950" />
  <sodipodi:namedview
     pagecolor="#ffffff"
     bordercolor="#666666"
     borderopacity="1"
     objecttolerance="10"
     gridtolerance="10"
     guidetolerance="10"
     inkscape:pageopacity="0"
     inkscape:pageshadow="2"
     inkscape:window-width="828"
     inkscape:window-height="480"
     id="namedview6948"
     showgrid="false"
     inkscape:zoom="4.2142857"
     inkscape:cx="28"
     inkscape:cy="28"
     inkscape:window-x="0"
     inkscape:window-y="0"
     inkscape:window-maximized="0"
     inkscape:current-layer="svg6946" />
  <g
     id="g6932">
    <rect
       fill="none"
       height="24"
       width="24"
       id="rect6928" />
    <rect
       fill="none"
       height="24"
       width="24"
       id="rect6930" />
  </g>
  <g
     id="g6944"
     transform="matrix(1.2,0,0,1.2,-2.4,-2.4)">
    <g
       id="g6942">
      <path
         d="m 14,9 h 7 C 21.55,9 22,8.55 22,8 22,7.45 21.55,7 21,7 h -7 c -0.55,0 -1,0.45 -1,1 0,0.55 0.45,1 1,1 z"
         id="path6934"
         inkscape:connector-curvature="0" />
      <path
         d="m 21,15 h -7 c -0.55,0 -1,0.45 -1,1 0,0.55 0.45,1 1,1 h 7 c 0.55,0 1,-0.45 1,-1 0,-0.55 -0.45,-1 -1,-1 z"
         id="path6936"
         inkscape:connector-curvature="0" />
      <path
         d="m 21,11 h -4 c -0.55,0 -1,0.45 -1,1 0,0.55 0.45,1 1,1 h 4 c 0.55,0 1,-0.45 1,-1 0,-0.55 -0.45,-1 -1,-1 z"
         id="path6938"
         inkscape:connector-curvature="0" />
      <path
         d="M 8.85,7.85 C 8.54,7.54 8,7.76 8,8.21 V 11 H 3 c -0.55,0 -1,0.45 -1,1 0,0.55 0.45,1 1,1 h 5 v 2.79 c 0,0.45 0.54,0.67 0.85,0.35 l 3.79,-3.79 c 0.2,-0.2 0.2,-0.51 0,-0.71 z"
         id="path6940"
         inkscape:connector-curvature="0" />
    </g>
  </g>
</svg>
