<?xml version="1.0" encoding="UTF-8" standalone="no"?>
<svg
   xmlns:dc="http://purl.org/dc/elements/1.1/"
   xmlns:cc="http://creativecommons.org/ns#"
   xmlns:rdf="http://www.w3.org/1999/02/22-rdf-syntax-ns#"
   xmlns:svg="http://www.w3.org/2000/svg"
   xmlns="http://www.w3.org/2000/svg"
   xmlns:sodipodi="http://sodipodi.sourceforge.net/DTD/sodipodi-0.dtd"
   xmlns:inkscape="http://www.inkscape.org/namespaces/inkscape"
   height="56"
   viewBox="0 0 24 24"
   width="56"
   fill="#000000"
   version="1.1"
   id="svg22717"
   sodipodi:docname="refresh.svg"
   inkscape:version="0.92.4 (5da689c313, 2019-01-14)">
  <metadata
     id="metadata22723">
    <rdf:RDF>
      <cc:Work
         rdf:about="">
        <dc:format>image/svg+xml</dc:format>
        <dc:type
           rdf:resource="http://purl.org/dc/dcmitype/StillImage" />
      </cc:Work>
    </rdf:RDF>
  </metadata>
  <defs
     id="defs22721" />
  <sodipodi:namedview
     pagecolor="#ffffff"
     bordercolor="#666666"
     borderopacity="1"
     objecttolerance="10"
     gridtolerance="10"
     guidetolerance="10"
     inkscape:pageopacity="0"
     inkscape:pageshadow="2"
     inkscape:window-width="933"
     inkscape:window-height="480"
     id="namedview22719"
     showgrid="false"
     inkscape:zoom="4.2142857"
     inkscape:cx="28"
     inkscape:cy="28"
     inkscape:window-x="0"
     inkscape:window-y="0"
     inkscape:window-maximized="0"
     inkscape:current-layer="svg22717" />
  <path
     d="M0 0h24v24H0V0z"
     fill="none"
     id="path22713" />
  <path
     d="M 20.46943,3.5272183 C 18.024859,1.0826477 14.560468,-0.32710474 10.751137,0.06282677 5.2471034,0.61772931 0.71789891,5.0869444 0.1030069,10.590978 -0.72184822,17.8647 4.902164,23.998623 11.995918,23.998623 c 4.78416,0 8.893438,-2.804508 10.813101,-6.838799 0.479916,-1.004824 -0.239958,-2.159621 -1.349763,-2.159621 -0.554902,0 -1.07981,0.299948 -1.319768,0.794861 -1.694703,3.64436 -5.758989,5.953954 -10.198209,4.964128 C 6.6118637,20.024321 3.9273352,17.309798 3.222459,13.980382 1.9626803,8.1614044 6.3869032,3.0023105 11.995918,3.0023105 c 2.489563,0 4.709173,1.0348183 6.328889,2.6695311 L 16.060204,7.9364439 C 15.11537,8.881278 15.775254,10.500993 17.11002,10.500993 h 5.384054 c 0.824855,0 1.499737,-0.674881 1.499737,-1.4997361 V 3.6172025 c 0,-1.3347656 -1.619716,-2.009647 -2.56455,-1.064813 z"
     id="path22715"
     inkscape:connector-curvature="0"
     style="stroke-width:1.49973655" />
</svg>
