<?xml version="1.0" encoding="UTF-8" standalone="no"?>
<svg
   enable-background="new 0 0 20 20"
   height="56"
   viewBox="0 0 23.333333 23.333333"
   width="56"
   fill="#000000"
   version="1.1"
   id="svg627"
   sodipodi:docname="satellite_alt_48dp.svg"
   inkscape:version="1.2.2 (732a01da63, 2022-12-09)"
   xmlns:inkscape="http://www.inkscape.org/namespaces/inkscape"
   xmlns:sodipodi="http://sodipodi.sourceforge.net/DTD/sodipodi-0.dtd"
   xmlns="http://www.w3.org/2000/svg"
   xmlns:svg="http://www.w3.org/2000/svg">
  <defs
     id="defs631" />
  <sodipodi:namedview
     id="namedview629"
     pagecolor="#ffffff"
     bordercolor="#999999"
     borderopacity="1"
     inkscape:showpageshadow="0"
     inkscape:pageopacity="0"
     inkscape:pagecheckerboard="0"
     inkscape:deskcolor="#d1d1d1"
     showgrid="false"
     inkscape:zoom="10.697917"
     inkscape:cx="3.8325219"
     inkscape:cy="33.885102"
     inkscape:window-width="1346"
     inkscape:window-height="1230"
     inkscape:window-x="4027"
     inkscape:window-y="89"
     inkscape:window-maximized="0"
     inkscape:current-layer="svg627" />
  <g
     id="g621">
    <rect
       fill="none"
       height="20"
       width="20"
       id="rect619"
       x="0"
       y="0" />
  </g>
  <g
     id="g625"
     transform="matrix(1.2199288,0,0,1.2199288,0.15634339,0.15634339)">
    <path
       d="m 12,18.2 c 0,-0.38 0.29,-0.7 0.67,-0.75 2.5,-0.3 4.49,-2.3 4.79,-4.8 0.05,-0.37 0.36,-0.65 0.74,-0.65 0.45,0 0.8,0.4 0.74,0.85 -0.39,3.19 -2.92,5.72 -6.12,6.1 C 12.39,19 12,18.65 12,18.2 Z M 15.16,12 c -0.35,0 -0.65,0.24 -0.73,0.58 -0.22,0.91 -0.94,1.63 -1.85,1.85 -0.34,0.08 -0.58,0.38 -0.58,0.73 0,0.48 0.45,0.84 0.92,0.73 1.47,-0.35 2.63,-1.51 2.98,-2.98 C 16,12.45 15.64,12 15.16,12 Z m 0.13,-11.56 3.18,3.18 c 0.59,0.59 0.59,1.54 0,2.12 l -2.83,2.83 c -0.59,0.59 -1.54,0.59 -2.12,0 l -1.24,-1.24 -0.71,0.71 1.24,1.24 c 0.59,0.59 0.59,1.54 0,2.12 l -1.41,1.41 c -0.59,0.59 -1.54,0.59 -2.12,0 l -1.24,-1.24 -0.71,0.71 1.24,1.24 c 0.59,0.59 0.59,1.54 0,2.12 l -2.83,2.83 c -0.59,0.59 -1.54,0.59 -2.12,0 L 0.44,15.29 c -0.59,-0.59 -0.59,-1.54 0,-2.12 l 2.83,-2.83 c 0.59,-0.59 1.54,-0.59 2.12,0 L 6.63,11.58 7.34,10.87 6.1,9.63 C 5.51,9.04 5.51,8.09 6.1,7.51 L 7.51,6.1 C 8.1,5.51 9.05,5.51 9.63,6.1 L 10.87,7.34 11.58,6.63 10.34,5.39 C 9.75,4.8 9.75,3.85 10.34,3.27 l 2.83,-2.83 c 0.58,-0.59 1.53,-0.59 2.12,0 z M 2.56,13.17 1.5,14.23 4.68,17.41 5.74,16.35 Z m 1.77,-1.77 -1.06,1.06 3.18,3.18 1.06,-1.06 z m 8.13,-8.13 -1.06,1.06 3.18,3.18 1.06,-1.06 z m 1.77,-1.77 -1.06,1.06 3.18,3.18 1.06,-1.06 z"
       id="path623" />
  </g>
</svg>
