<?xml version="1.0" encoding="UTF-8" standalone="no"?>
<svg
   xmlns:dc="http://purl.org/dc/elements/1.1/"
   xmlns:cc="http://creativecommons.org/ns#"
   xmlns:rdf="http://www.w3.org/1999/02/22-rdf-syntax-ns#"
   xmlns:svg="http://www.w3.org/2000/svg"
   xmlns="http://www.w3.org/2000/svg"
   xmlns:sodipodi="http://sodipodi.sourceforge.net/DTD/sodipodi-0.dtd"
   xmlns:inkscape="http://www.inkscape.org/namespaces/inkscape"
   height="56"
   viewBox="0 0 24 24"
   width="56"
   fill="#000000"
   version="1.1"
   id="svg831"
   sodipodi:docname="save_alt.svg"
   inkscape:version="0.92.4 (5da689c313, 2019-01-14)">
  <metadata
     id="metadata837">
    <rdf:RDF>
      <cc:Work
         rdf:about="">
        <dc:format>image/svg+xml</dc:format>
        <dc:type
           rdf:resource="http://purl.org/dc/dcmitype/StillImage" />
      </cc:Work>
    </rdf:RDF>
  </metadata>
  <defs
     id="defs835" />
  <sodipodi:namedview
     pagecolor="#ffffff"
     bordercolor="#666666"
     borderopacity="1"
     objecttolerance="10"
     gridtolerance="10"
     guidetolerance="10"
     inkscape:pageopacity="0"
     inkscape:pageshadow="2"
     inkscape:window-width="828"
     inkscape:window-height="480"
     id="namedview833"
     showgrid="false"
     inkscape:zoom="4.0658544"
     inkscape:cx="27.101853"
     inkscape:cy="25.67497"
     inkscape:window-x="0"
     inkscape:window-y="0"
     inkscape:window-maximized="1"
     inkscape:current-layer="svg831" />
  <path
     d="M0 0h24v24H0V0z"
     fill="none"
     id="path827" />
  <path
     d="M 21.333333,13.333333 V 20 c 0,0.733333 -0.6,1.333333 -1.333333,1.333333 H 4 c -0.7333333,0 -1.3333333,-0.6 -1.3333333,-1.333333 V 13.333333 C 2.6666667,12.6 2.0666667,12 1.3333333,12 0.6,12 0,12.6 0,13.333333 v 8 C 0,22.8 1.2,24 2.6666667,24 H 21.333333 C 22.8,24 24,22.8 24,21.333333 v -8 C 24,12.6 23.4,12 22.666667,12 c -0.733334,0 -1.333334,0.6 -1.333334,1.333333 z m -8,-0.44 L 15.84,10.386667 c 0.52,-0.5200003 1.36,-0.5200003 1.88,0 0.52,0.52 0.52,1.36 0,1.88 l -4.786667,4.786666 c -0.52,0.52 -1.36,0.52 -1.88,0 L 6.2666667,12.266667 c -0.52,-0.52 -0.52,-1.36 0,-1.88 0.52,-0.5200003 1.36,-0.5200003 1.88,0 l 2.5200003,2.506666 V 1.3333333 C 10.666667,0.6 11.266667,0 12,0 c 0.733333,0 1.333333,0.6 1.333333,1.3333333 z"
     id="path829"
     inkscape:connector-curvature="0"
     style="stroke-width:1.33333337" />
</svg>
