<?xml version="1.0" encoding="UTF-8" standalone="no"?>
<svg
   enable-background="new 0 0 20 20"
   height="56"
   viewBox="0 0 23.333333 23.333333"
   width="56"
   fill="#000000"
   version="1.1"
   id="svg755"
   sodipodi:docname="workspace_premium_48dp.svg"
   inkscape:version="1.2.2 (732a01da63, 2022-12-09)"
   xmlns:inkscape="http://www.inkscape.org/namespaces/inkscape"
   xmlns:sodipodi="http://sodipodi.sourceforge.net/DTD/sodipodi-0.dtd"
   xmlns="http://www.w3.org/2000/svg"
   xmlns:svg="http://www.w3.org/2000/svg">
  <defs
     id="defs759" />
  <sodipodi:namedview
     id="namedview757"
     pagecolor="#ffffff"
     bordercolor="#999999"
     borderopacity="1"
     inkscape:showpageshadow="0"
     inkscape:pageopacity="0"
     inkscape:pagecheckerboard="0"
     inkscape:deskcolor="#d1d1d1"
     showgrid="false"
     inkscape:zoom="7.5645694"
     inkscape:cx="3.5031736"
     inkscape:cy="46.00394"
     inkscape:window-width="1161"
     inkscape:window-height="1149"
     inkscape:window-x="3938"
     inkscape:window-y="88"
     inkscape:window-maximized="0"
     inkscape:current-layer="svg755" />
  <rect
     fill="none"
     height="20"
     width="20"
     id="rect751"
     x="0"
     y="0" />
  <path
     d="m 17.745563,17.103223 v -1.65938 c 1.672981,-1.604974 2.720294,-3.862817 2.720294,-6.3654888 0,-4.8829287 -3.958028,-8.84095725 -8.840957,-8.84095725 -4.882929,0 -8.8409575,3.95802855 -8.8409575,8.84095725 0,2.4890698 1.0337119,4.7333118 2.6794901,6.3382858 v 2.040221 m 0,0 v 4.202855 c 0,0.870494 0.8024869,1.509764 1.6593796,1.332944 L 11.6249,21.999753 16.086183,22.99266 c 0.843291,0.190421 1.65938,-0.46245 1.65938,-1.332944 V 17.103223 M 11.6249,15.87909 c -3.7540068,0 -6.8007366,-3.046729 -6.8007366,-6.8007358 0,-3.7540065 3.0467298,-6.8007363 6.8007366,-6.8007363 3.754007,0 6.800736,3.0467298 6.800736,6.8007363 0,3.7540068 -3.046729,6.8007358 -6.800736,6.8007358 z m -0.843292,-4.202854 0.843292,-0.639269 0.82969,0.625667 c 0.530457,0.394443 1.251335,-0.108811 1.060915,-0.748081 L 13.189069,9.8400366 14.181977,9.0511512 c 0.503255,-0.3944427 0.217624,-1.210531 -0.421646,-1.210531 H 12.617808 L 12.277771,6.7797053 c -0.204022,-0.6256677 -1.088119,-0.6256677 -1.292141,0 L 10.631992,7.8542216 H 9.4894685 c -0.6392692,0 -0.9249002,0.8160884 -0.4216457,1.2105311 L 10.06073,9.8536386 9.7206935,10.941756 c -0.1904206,0.625668 0.5440585,1.142524 1.0609145,0.73448 z"
     id="path753"
     style="stroke-width:1.36015" />
</svg>
