<?xml version="1.0" encoding="UTF-8" standalone="no"?>
<svg
   height="56"
   width="56"
   version="1.1"
   id="svg19"
   sodipodi:docname="testbase_manager.svg"
   inkscape:version="1.2.2 (732a01da63, 2022-12-09)"
   xmlns:inkscape="http://www.inkscape.org/namespaces/inkscape"
   xmlns:sodipodi="http://sodipodi.sourceforge.net/DTD/sodipodi-0.dtd"
   xmlns="http://www.w3.org/2000/svg"
   xmlns:svg="http://www.w3.org/2000/svg">
  <defs
     id="defs23" />
  <sodipodi:namedview
     id="namedview21"
     pagecolor="#ffffff"
     bordercolor="#999999"
     borderopacity="1"
     inkscape:showpageshadow="0"
     inkscape:pageopacity="0"
     inkscape:pagecheckerboard="0"
     inkscape:deskcolor="#d1d1d1"
     showgrid="false"
     inkscape:zoom="18.339286"
     inkscape:cx="27.972736"
     inkscape:cy="21.592989"
     inkscape:window-width="2560"
     inkscape:window-height="1377"
     inkscape:window-x="-8"
     inkscape:window-y="-8"
     inkscape:window-maximized="1"
     inkscape:current-layer="svg19" />
  <path
     d="M 24.374994,29.5 27.999999,26.812501 31.562494,29.5 q 0.562501,0.437501 1.12501,0.0625 Q 33.25,29.187499 33.062495,28.5 L 31.687505,24.062499 35.5,21.124999 q 0.5,-0.4375 0.281247,-1.062499 -0.218752,-0.625002 -0.906242,-0.625002 h -4.562511 l -1.4375,-4.624999 Q 28.687505,14.125 28.031248,14.125 q -0.656254,0 -0.906244,0.687499 l -1.499999,4.624999 h -4.500011 q -0.68749,0 -0.906242,0.625002 -0.218753,0.624999 0.281248,1.062499 l 3.812494,2.9375 L 22.937504,28.5 q -0.187505,0.687499 0.374991,1.0625 0.562511,0.374999 1.062499,-0.0625 z M 15.749999,53.687501 Q 14.875005,54.000002 14.062494,53.4375 13.249999,52.875002 13.249999,51.875001 v -16.375 Q 10.437496,32.562502 9.21875,29.062501 8,25.562502 8,22 8,13.5 13.75,7.7499998 19.5,2 27.999999,2 36.5,2 42.250001,7.7499998 48,13.5 48,22 q 0,3.562502 -1.218753,7.062501 -1.218752,3.500001 -4.031247,6.4375 v 16.375 q 0,1.000001 -0.812494,1.562499 -0.812502,0.562502 -1.687505,0.250001 l -12.250002,-4.125 z m 12.25,-15.437499 q 6.812497,0 11.531248,-4.71875 Q 44.249999,28.8125 44.249999,22 q 0,-6.812499 -4.718752,-11.53125 Q 34.812496,5.75 27.999999,5.75 21.187504,5.75 16.468753,10.46875 11.75,15.187501 11.75,22 q 0,6.8125 4.718753,11.531252 4.718751,4.71875 11.531246,4.71875 z M 17,49.250002 27.999999,45.812501 39,49.250002 v -10.6875 q -2.5,1.8125 -5.375005,2.625 Q 30.75,42 27.999999,42 25.25,42 22.375004,41.187502 19.5,40.375002 17,38.562502 Z m 10.999999,-5.375 z"
     id="path17"
     style="stroke-width:1.24999" />
</svg>
