<?xml version="1.0" encoding="UTF-8" standalone="no"?>
<svg
   xmlns:dc="http://purl.org/dc/elements/1.1/"
   xmlns:cc="http://creativecommons.org/ns#"
   xmlns:rdf="http://www.w3.org/1999/02/22-rdf-syntax-ns#"
   xmlns:svg="http://www.w3.org/2000/svg"
   xmlns="http://www.w3.org/2000/svg"
   xmlns:sodipodi="http://sodipodi.sourceforge.net/DTD/sodipodi-0.dtd"
   xmlns:inkscape="http://www.inkscape.org/namespaces/inkscape"
   id="svg8"
   version="1.1"
   viewBox="0 0 156.36875 52.916668"
   height="200"
   width="591"
   sodipodi:docname="banner_qute_style.svg"
   inkscape:version="0.92.4 (5da689c313, 2019-01-14)">
  <sodipodi:namedview
     pagecolor="#ffffff"
     bordercolor="#666666"
     borderopacity="1"
     objecttolerance="10"
     gridtolerance="10"
     guidetolerance="10"
     inkscape:pageopacity="0"
     inkscape:pageshadow="2"
     inkscape:window-width="3840"
     inkscape:window-height="2066"
     id="namedview935"
     showgrid="false"
     inkscape:zoom="3.4517766"
     inkscape:cx="168.71365"
     inkscape:cy="106.97796"
     inkscape:window-x="2869"
     inkscape:window-y="-11"
     inkscape:window-maximized="1"
     inkscape:current-layer="layer1" />
  <defs
     id="defs2" />
  <metadata
     id="metadata5">
    <rdf:RDF>
      <cc:Work
         rdf:about="">
        <dc:format>image/svg+xml</dc:format>
        <dc:type
           rdf:resource="http://purl.org/dc/dcmitype/StillImage" />
        <dc:title />
      </cc:Work>
    </rdf:RDF>
  </metadata>
  <g
     transform="translate(0,-244.08332)"
     id="layer1">
    <g
       transform="matrix(1.0240915,0,0,1.0240915,-17.450825,180.35003)"
       id="layer1-9">
      <g
         id="g200230"
         transform="matrix(0.7131611,0,0,0.7131611,15.936044,27.464046)">
        <path
           inkscape:connector-curvature="0"
           d="m 29.501166,49.956317 c -1.490093,0.627803 -2.296356,2.135467 -1.90445,3.738104 2.072998,-0.04628 4.094054,0.459265 5.886786,1.330556 0.689585,-0.948473 0.829072,-2.147579 0.366908,-3.244881 -0.722314,-1.714803 -2.669551,-2.531343 -4.349244,-1.823779 z"
           style="fill:#000000;fill-opacity:1;stroke:#282a36;stroke-width:0.96860898;stroke-linecap:round;stroke-linejoin:round;stroke-miterlimit:4;stroke-dasharray:none;stroke-opacity:1"
           id="path2613"
           sodipodi:nodetypes="ccccc" />
        <ellipse
           ry="11.832957"
           rx="12.782675"
           cy="71.059647"
           cx="-0.50481343"
           id="path2609-2"
           style="fill:#ffffff;stroke:#282a36;stroke-width:0.981861;stroke-linecap:round;stroke-linejoin:round;stroke-miterlimit:4;stroke-dasharray:none;stroke-opacity:1;fill-opacity:1"
           transform="rotate(-22.842479)" />
        <path
           inkscape:connector-curvature="0"
           d="m 14.089923,56.285777 c 1.490183,-0.62759 3.225113,-0.06049 4.098028,1.339529 -1.481315,1.450921 -2.584611,3.198333 -3.213602,5.089736 -1.160388,-0.169203 -2.15563,-0.945981 -2.61789,-2.043243 -0.722347,-1.714789 0.05376,-3.678492 1.733464,-4.386022 z"
           style="fill:#000000;fill-opacity:1;stroke:#282a36;stroke-width:0.96860898;stroke-linecap:round;stroke-linejoin:round;stroke-miterlimit:4;stroke-dasharray:none;stroke-opacity:1"
           id="path2613-54"
           sodipodi:nodetypes="ccccc" />
        <path
           inkscape:connector-curvature="0"
           d="m 28.809917,59.393769 c 1.602306,-0.552962 3.886594,0.03497 5.73745,1.476702 2.459034,1.915401 3.361921,4.692817 2.016645,6.203504 -1.345274,1.510675 -4.429255,1.182562 -6.88825,-0.73286 -2.459033,-1.915402 -3.361919,-4.692817 -2.016643,-6.203503 0.294637,-0.330891 0.684551,-0.58292 1.150798,-0.743843 z m 1.758718,1.719516 c -0.580909,0.225677 -1.113993,0.860358 -1.034653,1.374495 0.09101,-0.04506 0.42624,-0.294307 0.52385,-0.322608 0.926132,-0.268226 1.581845,0.05975 1.859972,0.996343 0.235916,0.79504 -0.08988,1.686014 -0.8062,2.080489 0.266997,0.02827 0.582093,0.06414 0.838939,-0.01011 1.175697,-0.129527 1.769764,-1.52596 1.429334,-2.667442 -0.332178,-1.119034 -1.587132,-1.81057 -2.693775,-1.490612 l -8.17e-4,-6e-5 c -0.039,0.01122 -0.07787,0.02455 -0.116605,0.03957 z"
           style="fill:#000000;fill-opacity:1;stroke:#282a36;stroke-width:0.0400247;stroke-linecap:round;stroke-linejoin:round;stroke-miterlimit:4;stroke-dasharray:none;stroke-opacity:1"
           id="path2613-5-8"
           sodipodi:nodetypes="ccccccccccccccccc" />
        <ellipse
           ry="1.3615882"
           rx="1.7271935"
           cy="74.707451"
           cx="-0.5838387"
           id="path2738"
           style="fill:#000000;fill-opacity:1;stroke:#282a36;stroke-width:0.0483997;stroke-linecap:round;stroke-linejoin:round;stroke-miterlimit:4;stroke-dasharray:none;stroke-opacity:1"
           transform="rotate(-22.842479)" />
        <path
           inkscape:connector-curvature="0"
           id="path2740"
           d="m 28.940511,70.32454 c 0.478894,2.92159 -0.997279,3.957817 -2.530713,4.938826"
           style="fill:none;stroke:#282a36;stroke-width:0.88592201;stroke-linecap:round;stroke-linejoin:miter;stroke-miterlimit:4;stroke-dasharray:none;stroke-opacity:1"
           sodipodi:nodetypes="cc" />
        <path
           inkscape:connector-curvature="0"
           id="path2742"
           d="m 29.064517,70.272305 c 1.755867,2.383685 3.528556,2.051381 5.301739,1.63953"
           style="fill:none;stroke:#282a36;stroke-width:0.88592201;stroke-linecap:round;stroke-linejoin:miter;stroke-miterlimit:4;stroke-dasharray:none;stroke-opacity:1"
           sodipodi:nodetypes="cc" />
      </g>
      <g
         inkscape:groupmode="layer"
         id="layer2"
         inkscape:label="Layer 1" />
    </g>
    <path
       transform="matrix(0.73034222,0,0,0.73034222,-1.1308578,208.47573)"
       inkscape:connector-curvature="0"
       d="m 21.39403,62.430139 c -1.515026,0.760164 -2.690168,2.805322 -2.951608,5.136828 -0.347402,3.097568 1.009106,5.683903 3.029831,5.776716 2.020716,0.09281 3.940427,-2.343032 4.287786,-5.440586 0.347401,-3.097567 -1.009107,-5.683902 -3.029832,-5.776714 -0.44259,-0.02035 -0.895314,0.08257 -1.336177,0.303756 z m 0.0017,2.459639 c 0.567301,-0.257988 1.393833,-0.196025 1.706277,0.219923 -0.09582,0.03364 -0.508352,0.09937 -0.596796,0.149434 -0.838917,0.475273 -1.062333,1.173565 -0.58649,2.026877 0.404047,0.724216 1.26915,1.113544 2.051823,0.876592 -0.166295,0.210791 -0.360761,0.4613 -0.593317,0.593207 -0.914025,0.750735 -2.328202,0.200243 -2.907118,-0.840781 -0.568618,-1.019437 -0.186705,-2.400478 0.815333,-2.968768 l 5.29e-4,-6.27e-4 c 0.03528,-0.02007 0.07197,-0.03856 0.109773,-0.05579 z"
       style="fill:#000000;fill-opacity:1;stroke:#282a36;stroke-width:0.0400247;stroke-linecap:round;stroke-linejoin:round;stroke-miterlimit:4;stroke-dasharray:none;stroke-opacity:1"
       id="path2613-5"
       sodipodi:nodetypes="ccccccccccccccccc" />
    <path
       transform="matrix(1.0240915,0,0,1.0240915,-17.450825,180.35003)"
       style="fill:#ff79c6;fill-opacity:1;fill-rule:nonzero;stroke:#282a36;stroke-width:0.72668999;stroke-linecap:round;stroke-linejoin:round;stroke-miterlimit:4;stroke-dasharray:none;stroke-opacity:1"
       d="M 18.208648,80.153793 160.89945,66.869403 c 0.73938,-0.0435 1.31543,0.184901 1.5538,1.020536 l 6.68665,44.405231 c 0.0939,0.70671 -0.27895,1.13975 -1.07461,1.24729 L 24.326732,113.25098 c -0.653864,-0.0604 -0.785425,-0.33961 -0.900931,-0.73272 l -6.00547,-31.16073 c -0.08662,-0.694798 0.174283,-1.171017 0.788317,-1.203737 z"
       id="path149903-3" />
    <path
       transform="matrix(1.0240915,0,0,1.0240915,-17.450825,180.35003)"
       style="fill:#63677d;fill-opacity:1;fill-rule:nonzero;stroke:#282a36;stroke-width:0.68748701;stroke-linecap:round;stroke-linejoin:round;stroke-miterlimit:4;stroke-dasharray:none;stroke-opacity:1"
       d="M 20.069132,81.51498 159.50551,68.451629 c 1.70195,-0.134557 1.48527,0.343191 1.75366,1.240002 l 5.89316,41.307759 c -0.0412,0.73392 -0.39928,0.98403 -1.12329,1.05217 L 25.874646,111.46438 c -0.495887,-0.0188 -0.989511,-0.32341 -1.059205,-0.81563 l -5.82055,-27.807878 c -0.07686,-0.975291 0.412077,-1.31161 1.074241,-1.325892 z"
       id="path149903" />
    <path
       transform="matrix(1.0240915,0,0,1.0240915,-17.450825,180.35003)"
       id="path91972-8-6"
       style="font-size:19.75559998px;line-height:1.25;font-family:LostWages;-inkscape-font-specification:'LostWages, Normal';fill:#ff79c6;fill-opacity:1;stroke-width:0.0278711"
       d="m 128.74177,82.344677 c -0.31702,0 -0.61439,0.118556 -0.89185,0.356373 -0.27745,0.218 -0.41177,0.555092 -0.41645,1.010892 v 15.815002 h -1.73875 -0.42566 v -9.334287 c 0,-0.455824 -0.12896,-0.792893 -0.38659,-1.010898 -0.25766,-0.237825 -0.54492,-0.356744 -0.86201,-0.356744 -0.3171,0 -0.6144,0.118919 -0.89186,0.356744 -0.27745,0.218005 -0.41645,0.555074 -0.41645,1.010898 0,1.96202 -0.48535,3.69605 -1.45645,5.202253 -0.9711,1.506189 -2.51709,2.417816 -4.63766,2.734909 v -7.937162 c 0,-0.455824 -0.12859,-0.792893 -0.38622,-1.010898 -0.25765,-0.237825 -0.54528,-0.356744 -0.86238,-0.356744 -0.3171,0 -0.61405,0.118919 -0.89149,0.356744 -0.25758,0.218005 -0.39658,0.555074 -0.41645,1.010898 l 0.0299,9.304434 c 0,0.01013 0.003,0.01976 0.003,0.02988 h -8.49808 -0.18169 V 91.47077 h 5.64819 c 0.45582,0 0.79289,-0.128961 1.01089,-0.386598 0.23782,-0.257636 0.35675,-0.544919 0.35675,-0.862005 0.0198,-0.336911 -0.0895,-0.634214 -0.32727,-0.891858 -0.23782,-0.277461 -0.58455,-0.416078 -1.04037,-0.416078 h -5.64856 v -5.172408 c 0,-0.455816 -0.12858,-0.792892 -0.38622,-1.010891 -0.25763,-0.237825 -0.54529,-0.356745 -0.86237,-0.356745 -0.3171,-0.01983 -0.61404,0.08907 -0.8915,0.326892 -0.27745,0.237825 -0.41644,0.584928 -0.41644,1.040744 v 5.172408 h -2.19979 c -0.45582,0 -0.792527,0.12894 -1.010517,0.386589 -0.237827,0.257644 -0.356747,0.544912 -0.356747,0.862012 0,0.317093 0.11892,0.614396 0.356747,0.891858 0.21799,0.277448 0.544657,0.41608 0.980667,0.41608 h 2.22964 v 8.056203 h -0.65084 -1.99156 -1.397111 c -0.17836,-0.515288 -0.406177,-1.001 -0.683637,-1.456832 -0.277447,-0.475628 -0.604487,-0.901535 -0.981044,-1.278084 -0.495461,-0.535092 -1.000885,-1.069877 -1.516159,-1.604969 -0.495454,-0.535092 -1.000886,-1.080282 -1.516159,-1.6352 -0.495447,-0.535092 -1.000879,-1.070248 -1.516152,-1.60534 -0.495454,-0.535099 -1.000515,-1.070248 -1.515795,-1.605347 -0.198188,-0.217999 -0.356866,-0.465502 -0.475778,-0.742964 -0.09909,-0.27747 -0.168577,-0.555073 -0.208222,-0.832529 -0.01983,-0.07923 -0.02988,-0.148737 -0.02988,-0.208221 v -0.237733 c 0,-0.931466 0.317379,-1.714125 0.951564,-2.348311 0.653926,-0.634178 1.43667,-0.951563 2.348311,-0.951563 0.515273,0 1.00063,0.118926 1.456454,0.356744 0.475642,0.217999 0.872174,0.535006 1.189267,0.951193 0.118905,0.13871 0.237911,0.257629 0.356745,0.356745 0.118905,0.07928 0.237832,0.139116 0.356744,0.178732 0.05948,0.01983 0.118913,0.03958 0.178369,0.05934 h 0.178378 c 0.33691,0 0.634207,-0.118934 0.891847,-0.356745 0.257637,-0.257643 0.386227,-0.554953 0.386227,-0.891857 0,-0.138732 -0.0293,-0.27772 -0.0888,-0.416451 -0.0396,-0.15855 -0.10921,-0.306837 -0.208217,-0.445562 -0.554907,-0.753105 -1.24876,-1.328013 -2.081126,-1.724373 -0.812554,-0.416194 -1.684408,-0.624309 -2.615868,-0.624309 -1.605283,0 -2.982568,0.574915 -4.132027,1.724388 -1.12964,1.129648 -1.694527,2.506926 -1.694527,4.132027 0,0.67383 0.108899,1.347588 0.326884,2.021418 0.218013,0.654005 0.574772,1.238583 1.070234,1.75387 1.010735,1.070191 2.021591,2.140496 3.032318,3.210687 1.010735,1.070184 2.021213,2.150159 3.031947,3.240169 0.138725,0.138731 0.267693,0.297417 0.386591,0.475778 0.118919,0.15855 0.228169,0.326892 0.327262,0.505268 H 91.326795 89.249357 79.953032 79.80009 c -1.090018,0 -2.031359,-0.396539 -2.824093,-1.189267 -0.792734,-0.792743 -1.189267,-1.743744 -1.189266,-2.853579 0,-1.109829 0.396532,-2.05118 1.189266,-2.82409 0.792734,-0.792749 1.734075,-1.189267 2.824093,-1.189267 0.495454,0 0.961114,0.07915 1.39712,0.237704 0.455822,0.158543 0.862388,0.396396 1.219118,0.713489 l -4.34062,2.645721 c -0.178367,0.09909 -0.32665,0.218377 -0.445559,0.357108 -0.09909,0.138653 -0.168589,0.287019 -0.208224,0.445562 -0.01978,0.03965 -0.0395,0.0894 -0.05934,0.148886 v 0.178369 c 0,0.336926 0.118924,0.633865 0.356742,0.891494 0.237824,0.257594 0.534757,0.396575 0.89149,0.416443 0.118909,0 0.238203,-0.01975 0.357112,-0.05934 0.138729,-0.03965 0.276974,-0.09912 0.415709,-0.178368 l 5.618704,-3.418909 c 0.19818,-0.09908 0.346832,-0.257779 0.445925,-0.475785 0.09909,-0.217999 0.148523,-0.445812 0.148523,-0.683629 0,-0.09907 -0.0096,-0.198302 -0.02945,-0.29741 -0.01983,-0.118941 -0.05955,-0.217785 -0.119041,-0.297039 -0.594555,-0.990916 -1.397267,-1.763918 -2.408013,-2.318836 -0.990918,-0.574735 -2.07089,-0.862003 -3.240169,-0.862003 -1.803478,0 -3.349455,0.644033 -4.637661,1.932237 -1.268349,1.268378 -1.902383,2.814369 -1.902383,4.637658 0,1.534894 0.464026,2.881185 1.382748,4.042846 h -8.748986 -0.597766 v -8.056203 h 5.648556 c 0.455825,0 0.792523,-0.128961 1.010524,-0.386597 0.237824,-0.257637 0.356744,-0.54492 0.356744,-0.862005 0.01983,-0.336912 -0.08907,-0.634215 -0.326891,-0.891865 -0.237824,-0.277454 -0.584552,-0.416071 -1.040377,-0.416071 h -5.648556 v -5.172408 c 0,-0.455817 -0.128583,-0.792893 -0.386226,-1.010892 -0.257638,-0.237825 -0.545282,-0.356744 -0.862375,-0.356744 -0.317096,-0.01983 -0.614399,0.08907 -0.891857,0.326891 -0.277464,0.237825 -0.401778,0.585152 -0.416077,1.040745 v 5.172408 h -2.199793 c -0.455827,0 -0.792892,0.128939 -1.010894,0.386588 -0.237818,0.257644 -0.356376,0.544913 -0.356376,0.862013 0,0.317092 0.118558,0.614395 0.356376,0.891857 0.218002,0.277449 0.545037,0.41608 0.981042,0.41608 h 2.229645 v 8.056203 h -5.169457 v -9.334658 c 0,-0.455824 -0.128589,-0.792522 -0.386227,-1.010527 -0.257638,-0.237811 -0.545282,-0.356744 -0.862374,-0.356744 -0.317093,0 -0.614031,0.118933 -0.891489,0.356744 -0.277453,0.218005 -0.408152,0.554772 -0.416078,1.010527 v 9.334658 H 52.01513 51.9816 c -0.832372,0 -1.545902,-0.297303 -2.140458,-0.891865 -0.594551,-0.614367 -0.891857,-1.327542 -0.891857,-2.140082 v -6.302711 c 0,-0.455824 -0.128957,-0.792522 -0.386595,-1.010527 -0.257638,-0.237811 -0.544914,-0.356744 -0.862006,-0.356744 -0.317093,0 -0.604369,0.118933 -0.862007,0.356744 -0.277452,0.218005 -0.426103,0.554703 -0.445929,1.010527 l 0.02985,6.302711 c 0,1.130631 0.300867,2.140645 0.899229,3.031947 h -3.456683 c 0.03673,0.160739 0.05062,0.194836 0.06449,0.356003 0.0026,0.03059 0.007,0.0624 7.84e-4,0.0925 -0.02093,0.09983 -0.04521,0.06062 -0.130092,0.08993 -0.0054,0.002 0.01057,0.004 0.01585,0.006 0.0034,7.2e-4 0.01021,-0.001 0.01032,0.002 1.88e-4,0.008 -0.0068,0.0145 -0.0096,0.0221 -0.0039,0.0105 -0.0078,0.0212 -0.01032,0.0321 -0.0015,0.006 -0.0039,0.0296 0.0022,0.0206 0.0024,0.014 0.0066,0.0278 0.007,0.042 9.27e-4,0.038 -0.0056,0.0623 -0.01142,0.098 -0.0052,0.0321 -0.01081,0.0635 -0.01438,0.0958 2.043483,-0.0315 3.807937,-0.0371 5.42393,-0.0424 -1.89e-4,-3.8e-4 -3.78e-4,-7.1e-4 -3.78e-4,-0.001 2.5e-5,-1.9e-4 0.193112,-0.007 0.193112,-0.007 -0.385731,-0.26284 -0.763292,-0.636074 -0.924288,-0.849109 -0.862653,-0.889041 -1.125703,-2.002836 -1.257447,-3.257492 v -1.546005 -1.605347 -1.545641 -1.575858 c 0,-0.0991 0.02972,-0.168227 0.08919,-0.207858 0.03962,-0.03965 0.208346,-0.05933 0.148888,-0.05933 h 0.02985 0.02948 c 0.05946,0.0199 0.108884,0.04921 0.14852,0.08882 0.01978,0.03965 0.03797,0.09954 0.02985,0.178376 v 1.575858 1.546012 1.604976 1.546005 c 0,1.109836 0.396164,2.070885 1.188898,2.883432 0.682906,0.68738 1.71408,1.090031 2.739329,1.212111 0.698831,-0.002 1.45205,-0.0233 2.165887,-0.0233 h 2.021421 v -5.172408 -5.172771 c 0,-0.0991 0.02008,-0.168228 0.05971,-0.207858 0.05945,-0.03965 0.237463,-0.05934 0.178003,-0.05934 h 0.02985 0.02948 c 0.05946,0.0199 0.109265,0.04921 0.14889,0.08882 0.03962,0.03965 0.06182,0.09954 0.05933,0.178747 v 5.172771 5.172039 h 4.667512 1.671311 c 0.369518,9e-5 0.615252,-1.8e-4 0.886328,0 5.7e-5,-0.004 0.0041,-0.006 0.0056,-0.0103 -0.0015,-0.27591 -0.0036,-0.570168 -0.0099,-0.76213 v -9.335022 h -3.21075 c -0.09909,0 -0.16822,-0.01975 -0.207854,-0.05934 -0.03962,-0.05941 -0.06937,-0.118891 -0.08919,-0.178376 v -0.02988 -0.02945 c 0.01978,-0.05948 0.05921,-0.109263 0.118669,-0.148886 0.03962,-0.03965 0.08906,-0.05934 0.14852,-0.05934 h 3.240526 V 83.47386 c 0,-0.09911 0.01971,-0.168598 0.05934,-0.208221 0.05945,-0.03965 0.23783,-0.05933 0.178371,-0.05933 h 3.77e-4 0.02948 0.02985 c 0.05946,0.0199 0.108886,0.04921 0.148521,0.08882 0.03962,0.03965 0.06141,0.09914 0.05934,0.178369 v 6.21315 h 6.688932 c 0.0991,0 0.168587,0.0301 0.208223,0.08955 0.03962,0.03965 0.05934,0.08903 0.05934,0.148523 v 0.02988 0.02945 c -0.01983,0.05948 -0.04956,0.109263 -0.08919,0.148887 -0.03962,0.03965 -0.0991,0.05934 -0.178372,0.05934 h -6.688983 v 9.322862 c -0.0075,0.324268 -0.008,0.453121 -0.01068,0.78351 l 1.6492,7.1e-4 c 0.606423,-0.0136 1.171079,-0.0187 1.802143,0 h 7.532879 c 1.077063,0.006 1.45715,0.001 2.247702,-0.003 -0.01913,-0.009 -0.03721,-0.0148 -0.05638,-0.0236 -0.424768,-0.19627 -0.867652,-0.464522 -1.179684,-0.769135 -0.123762,-0.105405 -0.245949,-0.214989 -0.364483,-0.333524 -1.070196,-1.090009 -1.605342,-2.398161 -1.605342,-3.924176 0,-1.526008 0.535146,-2.833788 1.605342,-3.923805 1.090017,-1.09001 2.398161,-1.635193 3.924174,-1.635193 0.971103,0 1.88235,0.247881 2.734538,0.743335 0.852189,0.475643 1.526331,1.129719 2.021793,1.962092 0.01975,0.01975 0.04939,0.0558 0.02988,0.05934 v 0.02945 0.05969 c -0.01976,0.03965 -0.03951,0.07904 -0.05934,0.11867 0,0.01983 -0.02004,0.03994 -0.05969,0.05969 -0.931459,0.574744 -1.872811,1.149281 -2.824095,1.72401 -0.931467,0.554918 -1.862779,1.119799 -2.79424,1.694528 -0.01978,0 -0.03987,0.01 -0.05971,0.02988 h -0.05933 -0.02985 c -0.07927,0.01975 -0.138739,0.0098 -0.178373,-0.02988 -0.03962,-0.05941 -0.06935,-0.118877 -0.08919,-0.178369 v -0.02988 c 0,-0.01983 0.01002,-0.03958 0.02985,-0.05934 0,-0.03965 0.01002,-0.06932 0.02985,-0.08919 0.03962,-0.03972 0.06936,-0.06939 0.08919,-0.08918 0.455822,-0.277462 0.901781,-0.545033 1.337786,-0.802677 0.455821,-0.277448 0.911448,-0.554696 1.36727,-0.832152 0.455826,-0.257651 0.901785,-0.525592 1.337786,-0.803041 0.455821,-0.277462 0.911521,-0.554689 1.367267,-0.832152 -0.475563,-0.693642 -1.079916,-1.238832 -1.813196,-1.6352 -0.73328,-0.396367 -1.525976,-0.594448 -2.378164,-0.594448 -1.387289,0 -2.576513,0.495761 -3.567431,1.486677 -0.971107,0.990923 -1.456456,2.179777 -1.456456,3.567061 0,1.387291 0.485349,2.576515 1.456456,3.567431 0.278405,0.278333 0.574422,0.513305 0.884118,0.713489 0.464308,0.247403 1.038737,0.675349 1.551907,0.783129 5.598802,-0.0329 11.609523,0.072 16.19532,0.0785 h 2.734906 C 97.272298,99.873262 97.084252,99.39794 96.826608,98.961935 96.568971,98.506118 96.271662,98.089882 95.93475,97.71334 95.419477,97.178241 94.904389,96.643099 94.389109,96.107993 93.893655,95.553089 93.38823,95.007892 92.872957,94.4728 92.377495,93.937694 91.8717,93.402545 91.356427,92.86746 c -0.495454,-0.554911 -1.000515,-1.099737 -1.515788,-1.634829 -0.356731,-0.376556 -0.624309,-0.802806 -0.80267,-1.278455 -0.15855,-0.495462 -0.257772,-0.990858 -0.29741,-1.486305 v -0.11862 -0.178369 c 0,-1.347653 0.465659,-2.487442 1.397119,-3.418916 0.951278,-0.9512 2.091081,-1.426971 3.418908,-1.426971 0.753091,0 1.476308,0.17839 2.169943,0.535121 0.693641,0.336904 1.258522,0.812604 1.694526,1.426971 0.0198,0.0199 0.0299,0.03958 0.0299,0.05934 h 0.0294 v 0.02988 0.02988 c 0.0198,0 0.0299,0.01 0.0299,0.02988 0,0.05941 -0.0297,0.118884 -0.0892,0.178369 -0.0396,0.03965 -0.08906,0.06932 -0.148515,0.08919 -0.03958,0 -0.0794,-0.0097 -0.119041,-0.02945 -0.03958,-0.0199 -0.0794,-0.04999 -0.119034,-0.08956 -0.416186,-0.55491 -0.931267,-0.980789 -1.545641,-1.278077 -0.594548,-0.317093 -1.238596,-0.475785 -1.932238,-0.475785 -1.189097,0 -2.209609,0.425899 -3.061794,1.278084 -0.832366,0.852192 -1.248602,1.873061 -1.248602,3.062171 v 0.148516 0.119041 c 0.03965,0.455824 0.128825,0.90142 0.267557,1.337418 0.158543,0.416187 0.396389,0.782987 0.713482,1.10008 0.51528,0.535091 1.020704,1.080275 1.516159,1.635192 0.515273,0.535099 1.020327,1.070248 1.515788,1.605347 0.51528,0.535092 1.020705,1.079905 1.516159,1.634829 0.515273,0.535092 1.020705,1.070248 1.516159,1.60534 0.396361,0.416187 0.733073,0.882216 1.010528,1.397489 0.297273,0.515281 0.505753,1.0601 0.62466,1.634829 h 1.575121 2.199787 1.11077 c 0.28744,-0.005 0.42258,-0.004 0.71054,-0.007 -0.0677,-3.034216 0.13783,-6.932676 0.13783,-10.190396 h -3.21031 c -0.0991,0 -0.1686,-0.01975 -0.20823,-0.05934 -0.0396,-0.05941 -0.0693,-0.118513 -0.0892,-0.178005 v -0.02981 -0.02945 c 0.0198,-0.05948 0.0596,-0.109271 0.11903,-0.148894 0.0397,-0.03965 0.0891,-0.05934 0.14852,-0.05934 h 3.24017 v -6.213151 c 0,-0.09911 0.0198,-0.168598 0.0593,-0.208222 0.0595,-0.03965 0.11928,-0.05934 0.17874,-0.05934 h 0.0294 0.0299 c 0.0595,0.0199 0.10889,0.04957 0.14852,0.08919 0.0397,0.03965 0.0593,0.09912 0.0593,0.178369 v 6.213151 h 6.68893 c 0.0991,0 0.16823,0.0301 0.20785,0.08956 0.0397,0.03965 0.0593,0.08903 0.0593,0.148515 v 0.02945 0.02988 c -0.0199,0.05948 -0.0492,0.109271 -0.0888,0.148894 -0.0396,0.03965 -0.0991,0.05934 -0.17837,0.05934 h -6.68893 c 0.006,4.179602 0.002,7.172946 -0.011,10.190769 8.08845,-0.12129 13.68139,-0.10873 19.35478,-0.0844 -0.001,-2.209693 -0.0101,-3.981281 -0.006,-5.931491 -0.6342,1.80347 -1.73243,2.662362 -3.25844,3.673104 -1.50619,0.990915 -3.21087,1.486677 -5.11344,1.486677 -0.0594,0 -0.11888,-0.02004 -0.17838,-0.05969 -0.0396,-0.03965 -0.0694,-0.08902 -0.0892,-0.148516 v -0.02988 -0.02988 -2.318458 -2.348682 -2.318829 -2.318465 c 0,-0.09909 0.0198,-0.168599 0.0593,-0.208222 0.0595,-0.03965 0.12898,-0.05969 0.20823,-0.05969 0.0595,0 0.10925,0.02004 0.14888,0.05969 0.0595,0.03958 0.0892,0.109107 0.0892,0.208222 v 9.036878 c 2.19984,-0.03965 4.10223,-0.752799 5.70752,-2.14009 1.60529,-1.407102 2.40801,-3.21063 2.40801,-5.410482 v -1.30793 c 0,-0.118934 0.0198,-0.218156 0.0593,-0.29741 0.0396,-0.09911 0.0991,-0.148894 0.17837,-0.148894 0.0991,0 0.16823,0.04978 0.20785,0.148894 0.0595,0.07927 0.0896,0.18816 0.0896,0.326892 10e-4,3.753794 -0.001,7.167361 0.0118,10.138062 1.62409,0.028 2.85814,0.0195 4.20832,0.0217 0.004,-0.407463 -5.7e-4,-0.579263 -0.004,-0.903652 V 83.473974 c 0,-0.09911 0.0198,-0.168598 0.0593,-0.208221 0.0594,-0.03965 0.23777,-0.05934 0.17837,-0.05934 h 0.0299 0.0299 c 0.0595,0.0199 0.10926,0.04956 0.14889,0.08919 0.0396,0.03965 0.0593,0.09911 0.0593,0.178368 0.0176,13.452107 0.0105,15.312645 0.0265,16.847269 h 7.1e-4 c -5.7e-4,10e-4 -0.001,0.002 -0.002,0.004 2.36707,0.002 4.68326,0.007 7.10538,0.0269 -0.004,-0.004 -0.008,-0.007 -0.0126,-0.0118 -0.80696,-0.542872 -0.93918,-0.786466 -1.35879,-1.169377 -1.0702,-1.090017 -1.60498,-2.398154 -1.60498,-3.924169 0,-1.526015 0.53479,-2.833795 1.60498,-3.923805 1.09001,-1.090017 2.39816,-1.635193 3.92417,-1.635193 0.97111,0 1.88273,0.247503 2.73492,0.742964 0.85217,0.475643 1.52596,1.13009 2.02142,1.962456 0.0199,0.01975 0.0299,0.03951 0.0299,0.05934 v 0.02945 0.05934 c -0.0198,0.03965 -0.0396,0.07942 -0.0593,0.119041 0,0.01983 -0.0197,0.03958 -0.0593,0.05934 -0.93147,0.574736 -1.87319,1.149651 -2.82447,1.724381 -0.93146,0.554917 -1.86278,1.119798 -2.79424,1.694528 -0.0198,0 -0.0396,0.0096 -0.0593,0.02945 h -0.0593 -0.0299 c -0.0793,0.01976 -0.13875,0.0102 -0.17837,-0.02945 -0.0396,-0.05941 -0.0697,-0.118892 -0.0896,-0.178376 v -0.02981 c 0,-0.0199 0.01,-0.03958 0.0298,-0.05934 0,-0.03965 0.01,-0.06932 0.0299,-0.08919 0.0396,-0.03972 0.0697,-0.06939 0.0896,-0.08919 0.45583,-0.277463 0.90178,-0.545027 1.33779,-0.80267 0.45582,-0.277448 0.91145,-0.555061 1.36727,-0.832523 0.45583,-0.257644 0.90179,-0.525222 1.33779,-0.80267 0.45583,-0.277463 0.91145,-0.554704 1.36727,-0.832159 -0.47565,-0.693649 -1.07992,-1.238825 -1.8132,-1.635193 -0.73327,-0.396368 -1.52597,-0.594448 -2.37817,-0.594448 -1.38729,0 -2.5765,0.495383 -3.56743,1.486306 -0.97109,0.990916 -1.45682,2.179777 -1.45682,3.56706 0,1.387284 0.48573,2.576516 1.45682,3.567432 1.08739,1.115013 1.6832,1.336705 3.23649,1.543435 1.45924,0.01 2.77118,-0.0566 4.32957,-0.0277 1.03841,-0.009 1.49554,-0.0217 1.75607,-0.0294 h 1.64735 1.51138 c 0.0991,0 0.16859,0.0301 0.20822,0.0896 0.0396,0.0397 0.11848,0.14193 0.0593,0.14852 v 0.0299 0.0295 c -0.0199,0.0595 -0.0496,0.10889 -0.0892,0.14852 -0.0397,0.0397 -0.0991,0.0597 -0.17837,0.0597 h -1.51138 c -6.73272,0.0465 -15.35575,0.0563 -21.78786,0.0549 -0.0191,1.11503 -0.0503,2.20325 -0.0494,3.09607 v 3.12114 c 0,0.0595 -0.0297,0.10926 -0.0892,0.14889 -0.0397,0.0595 -0.0991,0.0892 -0.17838,0.0892 h -4.16188 -4.13202 c -0.0792,0 -0.13875,-0.0297 -0.17837,-0.0892 -0.0397,-0.0397 -0.0693,-0.0991 -0.0892,-0.17837 v -0.0299 h 0.0299 v -0.0593 c 0.73329,-1.68456 1.83295,-3.12128 3.2995,-4.3104 0.2593,-0.21374 0.5273,-0.40858 0.79899,-0.59444 h 0.94529 c -0.44823,0.26098 -0.88222,0.55528 -1.29835,0.89185 -1.34766,1.0702 -2.38823,2.36832 -3.1215,3.89433 h 7.66998 v -4.70548 c -0.008,-0.35612 0.021,-0.90581 0.0247,-1.24712 h -3.8e-4 c -5.6e-4,-0.0108 5.7e-4,-0.0193 0.004,-0.0262 -7.02317,0.0268 -14.03987,0.0291 -20.73606,0.0328 h -4.762208 c 0.0198,0.0991 0.0299,0.20797 0.0299,0.32689 v 0.29741 c 0.0198,1.58547 -0.555107,2.96274 -1.724382,4.13203 -1.149466,1.16928 -2.546448,1.75423 -4.191362,1.75423 -1.664732,0 -3.072119,-0.58495 -4.221585,-1.75423 -0.994561,-1.02946 -1.547232,-2.22126 -1.666144,-3.57333 -0.04714,-0.44298 -0.01862,-0.85025 -0.01862,-1.23477 1.86e-4,-0.001 7.14e-4,-0.002 0.0014,-0.004 -1.523334,-0.009 -3.120422,-0.0334 -4.83665,-0.0334 -0.662347,0.0103 -1.052529,-0.004 -1.642196,0 v -7.1e-4 c -0.859193,-0.004 -2.30602,0.005 -3.782287,0 h -8.378907 c -0.732131,0.004 -1.346713,0.006 -1.894645,0 h -1.689739 c -0.386889,-0.004 -0.674222,-0.016 -1.362478,3.7e-4 h -3.907589 c -2.11728,0.0357 -5.169262,-0.0364 -6.809813,0.0726 -2.600565,-0.0517 -5.351014,-0.0254 -8.581914,0.008 l -0.01659,1.01937 c -0.02474,1.50599 -0.545183,2.79428 -1.635196,3.86447 -1.07019,1.09001 -2.368302,1.63483 -3.894322,1.63483 -1.506193,0 -2.804311,-0.53478 -3.894321,-1.60497 -1.090013,-1.0702 -1.635196,-2.36831 -1.635196,-3.89433 V 88.854611 c 0,-1.526015 0.545183,-2.823754 1.635196,-3.893952 1.09001,-1.090003 2.388128,-1.635193 3.894321,-1.635193 1.52602,0 2.824132,0.54519 3.894322,1.635193 1.090013,1.070198 1.635196,2.367937 1.635196,3.893952 v 11.544679 c 0.606008,-0.0198 0.7121,-0.0306 1.159055,-0.11318 V 89.003462 c 0,-1.80347 -0.643673,-3.33942 -1.931867,-4.607805 -1.288196,-1.288183 -2.834189,-1.932239 -4.637661,-1.932239 -1.803476,0 -3.349096,0.644056 -4.63729,1.932239 -1.268374,1.268385 -1.903121,2.804335 -1.903121,4.607805 v 13.050608 c 0,1.80347 0.634747,3.33907 1.903121,4.60744 1.288194,1.28819 2.833814,1.93224 4.63729,1.93224 1.823287,0 3.369279,-0.64405 4.637661,-1.93224 1.288194,-1.26837 1.931867,-2.80397 1.931867,-4.60744 h 7.534902 13.878706 14.059657 5.386156 c 0.08681,1.69951 0.739805,3.18762 1.974244,4.45892 1.327835,1.38729 2.972691,2.08076 4.934704,2.08076 1.843101,0 3.428508,-0.634 4.756328,-1.90239 1.347639,-1.26829 2.071213,-2.814 2.170313,-4.63729 h 6.420994 12.61241 c -0.13475,0.10687 -0.2697,0.21329 -0.40133,0.32689 -1.44674,1.22875 -2.53676,2.70524 -3.27002,4.42943 -0.0198,0.0793 -0.0394,0.15846 -0.0593,0.23772 -0.0199,0.0991 -0.0299,0.18831 -0.0299,0.26755 0,0.33692 0.11892,0.63422 0.35675,0.89186 0.23781,0.25762 0.53512,0.3962 0.89185,0.41608 l 8.29391,-0.0299 c 0.31709,0 0.60436,-0.12856 0.862,-0.38623 0.25759,-0.23782 0.39658,-0.50539 0.41646,-0.80267 v -0.0597 -5.29108 h 0.42565 7.95743 9.12091 4.77402 v -3.8e-4 c 0.45584,0 0.79253,-0.12895 1.01052,-0.38659 0.21796,-0.25764 0.33725,-0.54491 0.35712,-0.862 v -0.0294 -0.0597 c -0.0198,-0.29727 -0.14877,-0.56448 -0.3866,-0.802303 -0.218,-0.257636 -0.54504,-0.38659 -0.98104,-0.38659 h -4.77402 -4.1394 c -1.09002,0 -2.03174,-0.396539 -2.82447,-1.189268 -0.79274,-0.792749 -1.18926,-1.743757 -1.18926,-2.853578 0,-1.109836 0.39652,-2.05118 1.18926,-2.82409 0.79273,-0.792735 1.73445,-1.189267 2.82447,-1.189267 0.49546,0 0.96113,0.07915 1.39713,0.237704 0.45582,0.158542 0.86202,0.396396 1.21875,0.713489 l -4.34026,2.64572 c -0.17838,0.09909 -0.32703,0.218378 -0.44593,0.357109 -0.0991,0.13866 -0.1686,0.287026 -0.20822,0.445561 -0.0198,0.03965 -0.0395,0.08939 -0.0593,0.148894 V 96.1977 c 0,0.336919 0.11893,0.63385 0.35675,0.891487 0.23781,0.257594 0.53512,0.396582 0.89185,0.416443 0.11892,0 0.23784,-0.01975 0.35674,-0.05934 0.13874,-0.03965 0.27736,-0.09912 0.41608,-0.178376 l 5.61834,-3.418908 c 0.19816,-0.09908 0.34718,-0.257772 0.4463,-0.475779 0.0991,-0.218006 0.14852,-0.445811 0.14852,-0.683636 0,-0.09906 -0.01,-0.198301 -0.0299,-0.297409 -0.0198,-0.118934 -0.0591,-0.217793 -0.11866,-0.297039 -0.59456,-0.990923 -1.39729,-1.763918 -2.40802,-2.318829 -0.99092,-0.574742 -2.07089,-0.862011 -3.24018,-0.862011 -1.80347,0 -3.34947,0.644033 -4.63766,1.932238 -1.26837,1.268378 -1.90275,2.814369 -1.90275,4.637658 0,1.534893 0.46403,2.881192 1.38275,4.042846 h -3.48562 c 0.1798,-5.391577 7.1e-4,-10.543822 0,-15.814995 -7e-5,-0.455824 -0.12896,-0.792893 -0.38659,-1.010892 -0.25765,-0.237825 -0.54491,-0.356381 -0.86201,-0.356381 z m -90.950106,1.485935 c -1.387289,0 -2.576588,0.495383 -3.56743,1.486306 -0.971104,0.971097 -1.456455,2.150295 -1.456455,3.537579 v 13.050243 c 0,1.24855 0.396165,2.32889 1.188897,3.24054 0.812479,0.93146 1.803333,1.49634 2.972614,1.69453 v -0.0593 c 0,-0.0199 0.01008,-0.0399 0.02985,-0.0597 v -0.0593 -0.0593 c 0,-1.68457 0.604645,-3.14138 1.813567,-4.37011 1.042392,-1.04239 2.265005,-1.63746 3.663987,-1.7955 0.0035,-0.012 0.0088,-0.0247 0.01621,-0.0379 0.01738,-0.031 0.03459,-0.062 0.04865,-0.0947 0.0063,-0.0148 0.01107,-0.0302 0.01768,-0.0449 0.0017,-0.004 0.0046,-0.006 0.007,-0.01 0.01846,-0.0621 0.0022,-0.12784 -0.0063,-0.19017 -0.01266,-0.0342 -0.01998,-0.0588 -0.02211,-0.09545 -0.0042,-0.0721 0.01187,0.05527 7.85e-4,-0.04935 -0.0011,-0.0117 -0.0043,-0.02311 -0.0063,-0.03466 -0.01113,-0.05185 -0.01982,-0.102916 -0.02027,-0.156261 -7.2e-5,-0.005 0.0048,-0.0338 0.0056,-0.04094 5.67e-4,-0.0057 5.67e-4,-0.01084 7.85e-4,-0.01583 -0.0039,-0.03951 0.0019,-0.0021 -0.01068,-0.04165 -0.0049,-0.01533 -0.0095,-0.03059 -0.014,-0.04607 -0.67663,0.07852 -1.329397,0.248408 -1.956927,0.513371 -0.872009,0.37654 -1.644633,0.89163 -2.318461,1.54564 -0.515196,0.5351 -0.951203,1.14977 -1.307936,1.84342 -0.356732,0.67382 -0.594944,1.38699 -0.713853,2.14009 -0.673826,-0.31709 -1.218641,-0.79278 -1.634829,-1.42697 -0.396365,-0.63419 -0.594448,-1.34736 -0.594448,-2.14009 V 89.003391 c 0,-1.109822 0.386496,-2.05118 1.159414,-2.824097 0.792735,-0.772924 1.734082,-1.159414 2.824094,-1.159414 1.109826,0 2.051173,0.396168 2.824093,1.188896 0.792733,0.772931 1.188898,1.704605 1.188898,2.794615 v 11.349449 c 0.140203,0.13511 0.564615,0.0757 0.891857,0.0508 V 88.854461 c 0,-1.367465 -0.495388,-2.546662 -1.486306,-3.537578 -0.971101,-0.990924 -2.150295,-1.486307 -3.53758,-1.486307 z m 84.920866,13.853281 v 1.843051 h -2.32584 c 0.86977,-0.477668 1.646,-1.090979 2.32584,-1.843051 z m -35.97799,3.157437 v 3.8e-4 c 5e-5,3.8e-4 -5.7e-5,7.2e-4 0,7.2e-4 0.0021,0.4493 -7.01e-4,0.87866 0.01722,1.24767 0.124811,1.22965 0.637866,2.29811 1.543424,3.20368 1.050365,1.07018 2.328806,1.60535 3.834988,1.60535 1.506189,0 2.774218,-0.53517 3.804771,-1.60535 1.050373,-1.05037 1.575492,-2.56826 1.575492,-3.7458 v -0.14852 -0.17837 c 0,-0.0595 -0.01,-0.1089 -0.0295,-0.14853 v -0.17836 c -2.668609,-0.009 -4.975246,0.0408 -7.089819,0.002 -1.291794,-0.0286 -2.614708,-0.0115 -3.656337,-0.0547 z m -43.91899,0.0831 c -1.486378,0.0793 -2.754476,0.67351 -3.804768,1.78335 -1.030557,1.10983 -1.546009,2.40794 -1.546009,3.89432 v 0.0597 0.11867 0.0597 0.0295 0.0298 c 1.426923,0.0991 2.675611,-0.34687 3.745802,-1.33779 1.070192,-0.99084 1.604975,-2.20987 1.604975,-3.65661 z m 45.062947,1.12956 h 1.370953 7.36925 c -0.09909,1.12965 -0.56513,2.08066 -1.397489,2.85358 -0.832373,0.75309 -1.823524,1.12993 -2.972983,1.12993 -1.12964,0 -2.120428,-0.37684 -2.972612,-1.12993 -0.832366,-0.77292 -1.298032,-1.72393 -1.397119,-2.85358 z m -45.954805,0.23771 c -0.05946,0.91165 -0.396155,1.71437 -1.010526,2.40802 -0.614371,0.67382 -1.357636,1.09006 -2.229645,1.24859 0.158549,-0.85218 0.52535,-1.6055 1.100081,-2.25949 0.594551,-0.67383 1.307717,-1.13947 2.14009,-1.39712 z m 80.788838,0.20822 v 3.56706 l -4.84589,-0.0294 c 0.59455,-0.83238 1.30809,-1.54629 2.14046,-2.14083 0.83237,-0.61437 1.73433,-1.07966 2.70543,-1.39675 z" />
  </g>
</svg>
