<?xml version="1.0" encoding="UTF-8" standalone="no"?>
<svg
   xmlns:dc="http://purl.org/dc/elements/1.1/"
   xmlns:cc="http://creativecommons.org/ns#"
   xmlns:rdf="http://www.w3.org/1999/02/22-rdf-syntax-ns#"
   xmlns:svg="http://www.w3.org/2000/svg"
   xmlns="http://www.w3.org/2000/svg"
   xmlns:sodipodi="http://sodipodi.sourceforge.net/DTD/sodipodi-0.dtd"
   xmlns:inkscape="http://www.inkscape.org/namespaces/inkscape"
   width="64"
   height="64"
   viewBox="0 0 16.933333 16.933334"
   version="1.1"
   id="svg1890"
   inkscape:version="0.92.4 (5da689c313, 2019-01-14)"
   sodipodi:docname="ToolBox64_2.svg">
  <defs
     id="defs1884" />
  <sodipodi:namedview
     id="base"
     pagecolor="#ffffff"
     bordercolor="#666666"
     borderopacity="1.0"
     inkscape:pageopacity="0.0"
     inkscape:pageshadow="2"
     inkscape:zoom="11.313709"
     inkscape:cx="32.839459"
     inkscape:cy="39.718673"
     inkscape:document-units="mm"
     inkscape:current-layer="layer1"
     inkscape:document-rotation="0"
     showgrid="false"
     inkscape:window-width="1920"
     inkscape:window-height="1001"
     inkscape:window-x="-9"
     inkscape:window-y="-9"
     inkscape:window-maximized="1"
     units="px" />
  <metadata
     id="metadata1887">
    <rdf:RDF>
      <cc:Work
         rdf:about="">
        <dc:format>image/svg+xml</dc:format>
        <dc:type
           rdf:resource="http://purl.org/dc/dcmitype/StillImage" />
        <dc:title></dc:title>
      </cc:Work>
    </rdf:RDF>
  </metadata>
  <g
     inkscape:label="Ebene 1"
     inkscape:groupmode="layer"
     id="layer1"
     transform="translate(0,-280.06665)">
    <g
       id="g199"
       transform="translate(-88.819444,228.1304)"
       style="stroke-width:1;stroke-miterlimit:4;stroke-dasharray:none">
      <circle
         style="fill:#ffffff;fill-rule:evenodd;stroke-width:1;stroke-miterlimit:4;stroke-dasharray:none"
         id="path10-4-0-3-8-3"
         cx="97.28611"
         cy="60.402912"
         r="8.4666662" />
      <circle
         style="fill:#5599ff;fill-rule:evenodd;stroke-width:1;stroke-miterlimit:4;stroke-dasharray:none"
         id="path10-4-0-78-4-0"
         cx="97.28611"
         cy="60.402912"
         r="8.2101011" />
    </g>
    <g
       id="g865"
       transform="translate(-8.9726716,269.09214)"
       style="stroke-width:1;stroke-miterlimit:4;stroke-dasharray:none">
      <text
         xml:space="preserve"
         style="font-style:normal;font-variant:normal;font-weight:normal;font-stretch:normal;font-size:9.87777996px;line-height:1.25;font-family:'Berlin Sans FB Demi';-inkscape-font-specification:'Berlin Sans FB Demi, Normal';font-variant-ligatures:normal;font-variant-caps:normal;font-variant-numeric:normal;fill:#d5e5ff;fill-opacity:1;stroke:none;stroke-width:1;stroke-miterlimit:4;stroke-dasharray:none"
         x="11.932423"
         y="21.309826"
         id="text1684-1-9"><tspan
           sodipodi:role="line"
           id="tspan1682-2-5"
           x="11.932423"
           y="21.309826"
           style="font-style:normal;font-variant:normal;font-weight:normal;font-stretch:normal;font-size:9.87777996px;font-family:'Berlin Sans FB Demi';-inkscape-font-specification:'Berlin Sans FB Demi, Normal';font-variant-ligatures:normal;font-variant-caps:normal;font-variant-numeric:normal;fill:#d5e5ff;stroke-width:1;stroke-miterlimit:4;stroke-dasharray:none">T</tspan></text>
      <text
         xml:space="preserve"
         style="font-style:normal;font-variant:normal;font-weight:normal;font-stretch:normal;font-size:9.87777996px;line-height:1.25;font-family:'Berlin Sans FB Demi';-inkscape-font-specification:'Berlin Sans FB Demi, Normal';font-variant-ligatures:normal;font-variant-caps:normal;font-variant-numeric:normal;fill:#d5e5ff;fill-opacity:1;stroke:none;stroke-width:1;stroke-miterlimit:4;stroke-dasharray:none"
         x="16.748524"
         y="24.339378"
         id="text1688-8-5"><tspan
           sodipodi:role="line"
           id="tspan1686-4-4"
           x="16.748524"
           y="24.339378"
           style="font-style:normal;font-variant:normal;font-weight:normal;font-stretch:normal;font-size:9.87777996px;font-family:'Berlin Sans FB Demi';-inkscape-font-specification:'Berlin Sans FB Demi, Normal';font-variant-ligatures:normal;font-variant-caps:normal;font-variant-numeric:normal;fill:#d5e5ff;stroke-width:1;stroke-miterlimit:4;stroke-dasharray:none">B</tspan></text>
    </g>
    <path
       style="fill:#00112b;fill-rule:evenodd;stroke:#00a800;stroke-width:0.00125;stroke-miterlimit:4;stroke-dasharray:none"
       d="m 10.372964,294.59412 c -1.0936791,-0.63268 -1.9859211,-1.15292 -1.9827591,-1.15608 0.0032,-0.003 0.08688,0.002 0.186034,0.0109 0.283767,0.0263 1.8402551,0.0543 2.4871211,0.0449 0.627725,-0.009 0.847151,-0.0284 1.190625,-0.10422 0.466025,-0.10288 0.791276,-0.26008 1.056885,-0.51081 0.401352,-0.37885 0.613297,-0.90602 0.613297,-1.52544 0,-0.61274 -0.243622,-1.11662 -0.683165,-1.41298 l -0.145729,-0.0983 0.117644,-0.12385 c 0.265276,-0.27927 0.4635,-0.60821 0.531877,-0.88263 0.06086,-0.24427 0.02325,-0.70732 -0.08195,-1.0088 -0.231402,-0.66317 -0.774939,-1.00614 -1.795361,-1.13285 -0.389274,-0.0483 -0.912713,-0.0609 -2.2239517,-0.0534 -1.3086104,0.007 -1.3752204,0.0108 -1.4250984,0.0709 -0.01669,0.0201 -0.01534,0.14749 0.0069,0.64878 0.07402,1.66825 0.09822,2.67961 0.07745,3.2365 -0.01766,0.47355 -0.08616,1.81578 -0.09311,1.82453 -0.0024,0.003 -0.781965,-0.44346 -1.7323471,-0.99219 -0.950383,-0.54874 -1.72677,-0.99891 -1.725304,-1.00038 0.0015,-0.002 0.1887,0.002 0.416076,0.008 0.456566,0.0122 1.09367,-0.002 1.273307,-0.0285 0.18701,-0.0275 0.180182,-0.005 0.167166,-0.55589 -0.006,-0.25467 -0.02195,-0.75324 -0.03541,-1.10795 -0.04828,-1.27251 -0.05682,-1.87265 -0.03904,-2.74488 0.0095,-0.46375 0.0202,-0.8462 0.02389,-0.84989 0.0037,-0.004 0.228249,0.006 0.4990211,0.0205 0.923792,0.051 0.985856,0.0522 1.017917,0.0202 0.03619,-0.0362 0.03685,-0.1485 0.0025,-0.41462 -0.01938,-0.14995 -0.0244,-0.31623 -0.02054,-0.68056 l 0.0051,-0.48213 0.06035,0.0356 c 0.03319,0.0196 1.9703071,1.13697 4.3046991,2.48304 l 4.244348,2.44739 -0.0101,0.26459 c -0.04415,1.15694 -0.340631,2.31279 -0.85893,3.34863 -0.417837,0.83506 -0.916405,1.52018 -1.590779,2.18598 -0.39761,0.39256 -0.809208,0.72481 -1.271336,1.02626 -0.182723,0.11918 -0.566692,0.34681 -0.575881,0.34139 -0.0016,-9.5e-4 -0.897723,-0.51936 -1.991403,-1.15204 z"
       id="path918"
       inkscape:connector-curvature="0" />
    <path
       style="fill:#00112b;fill-rule:evenodd;stroke:#00a800;stroke-width:0.00125;stroke-miterlimit:4;stroke-dasharray:none"
       d="m 3.8596218,285.71216 -0.762788,-0.44196 0.407254,-0.0195 c 0.374928,-0.0179 0.900415,-0.0569 1.047023,-0.0776 l 0.06099,-0.009 0.0085,0.0703 c 0.01528,0.12587 0.02799,0.92198 0.01469,0.92064 -0.0071,-7.2e-4 -0.356179,-0.20019 -0.775712,-0.44327 z"
       id="path920"
       inkscape:connector-curvature="0" />
    <path
       style="fill:#00112b;fill-rule:evenodd;stroke:#00a800;stroke-width:0.00125;stroke-miterlimit:4;stroke-dasharray:none"
       d="m 10.306508,289.20006 c -0.04792,-0.007 -0.09732,-0.0221 -0.109784,-0.0324 -0.06369,-0.0529 -0.08824,-0.38351 -0.05899,-0.79453 0.02128,-0.29905 0.0217,-0.3011 0.06424,-0.32023 0.02935,-0.0132 0.191134,-0.0192 0.514112,-0.0192 0.52467,0 0.645237,0.0155 0.82226,0.10558 0.200965,0.10229 0.292088,0.25225 0.293241,0.48258 6.35e-4,0.12579 -0.0049,0.15263 -0.04919,0.23931 -0.0808,0.15808 -0.233194,0.25385 -0.504068,0.31677 -0.123604,0.0287 -0.827406,0.0448 -0.971826,0.0222 z"
       id="path922"
       inkscape:connector-curvature="0" />
    <path
       style="fill:#00112b;fill-rule:evenodd;stroke:#00a800;stroke-width:0.00125;stroke-miterlimit:4;stroke-dasharray:none"
       d="m 10.393633,291.94596 c -0.132568,-0.0169 -0.170368,-0.0306 -0.191022,-0.0692 -0.04737,-0.0885 -0.06235,-0.96015 -0.01915,-1.11462 0.02454,-0.0877 0.06792,-0.0966 0.510509,-0.10444 0.579902,-0.0102 0.845968,0.0276 1.029867,0.14644 0.171174,0.11064 0.252186,0.27376 0.254259,0.51197 0.0017,0.1925 -0.03683,0.30836 -0.140001,0.42125 -0.08778,0.096 -0.183008,0.14507 -0.359016,0.18482 -0.124619,0.0282 -0.915524,0.0455 -1.085444,0.0238 z"
       id="path924"
       inkscape:connector-curvature="0" />
  </g>
</svg>
