<?xml version="1.0" encoding="UTF-8" standalone="no"?>
<svg
   version="1.1"
   id="svg1890"
   inkscape:version="1.1.2 (0a00cf5339, 2022-02-04, custom)"
   sodipodi:docname="LabMonitor 64.svg"
   xmlns:inkscape="http://www.inkscape.org/namespaces/inkscape"
   xmlns:sodipodi="http://sodipodi.sourceforge.net/DTD/sodipodi-0.dtd"
   xmlns="http://www.w3.org/2000/svg"
   xmlns:svg="http://www.w3.org/2000/svg"
   xmlns:rdf="http://www.w3.org/1999/02/22-rdf-syntax-ns#"
   xmlns:cc="http://creativecommons.org/ns#"
   xmlns:dc="http://purl.org/dc/elements/1.1/">
  <defs
     id="defs1884" />
  <sodipodi:namedview
     id="base"
     pagecolor="#ffffff"
     bordercolor="#666666"
     borderopacity="1.0"
     inkscape:pageopacity="0.0"
     inkscape:pageshadow="2"
     inkscape:zoom="8"
     inkscape:cx="62.8125"
     inkscape:cy="64.9375"
     inkscape:document-units="mm"
     inkscape:current-layer="layer1"
     inkscape:document-rotation="0"
     showgrid="false"
     inkscape:window-width="3200"
     inkscape:window-height="1771"
     inkscape:window-x="2391"
     inkscape:window-y="-662"
     inkscape:window-maximized="1"
     inkscape:snap-global="false"
     inkscape:pagecheckerboard="0" />
  <metadata
     id="metadata1887">
    <rdf:RDF>
      <cc:Work
         rdf:about="">
        <dc:format>image/svg+xml</dc:format>
        <dc:type
           rdf:resource="http://purl.org/dc/dcmitype/StillImage" />
        <dc:title />
      </cc:Work>
    </rdf:RDF>
  </metadata>
  <g
     inkscape:label="Ebene 1"
     inkscape:groupmode="layer"
     id="layer1">
    <g
       id="g854">
      <path
         id="path10-4-0-3-8-3"
         style="fill:#ffffff;fill-rule:evenodd"
         d="M 25.906003,19.17659 A 8.4666662,8.4666662 0 0 1 17.439337,27.643256 8.4666662,8.4666662 0 0 1 8.9726706,19.17659 8.4666662,8.4666662 0 0 1 17.439337,10.709924 8.4666662,8.4666662 0 0 1 25.906003,19.17659 Z" />
      <path
         id="path10-4-0-78-4-0"
         style="fill:#ffcc00;fill-rule:evenodd"
         d="M 25.649438,19.17659 A 8.2101011,8.2101011 0 0 1 17.439337,27.386691 8.2101011,8.2101011 0 0 1 9.2292356,19.17659 8.2101011,8.2101011 0 0 1 17.439337,10.966489 8.2101011,8.2101011 0 0 1 25.649438,19.17659 Z" />
    </g>
    <g
       aria-label="L"
       id="text858"
       style="font-size:10.5833px;line-height:1.25;font-family:'Berlin Sans FB Demi';-inkscape-font-specification:'Berlin Sans FB Demi, Normal';fill:#fff6d5;stroke-width:0.264583">
      <path
         d="m 15.753265,20.328962 q -0.355534,0 -0.926042,-0.01654 -0.744141,-0.01654 -0.926042,-0.02067 l -1.236101,-0.01654 q -0.186035,0.0041 -0.533301,-0.01654 -0.119889,-0.02067 -0.119889,-0.128157 0,-0.450619 0.0124,-1.347722 0.01654,-0.901238 0.01654,-1.351856 0,-0.479558 -0.02894,-1.434539 -0.02894,-0.959115 -0.02894,-1.438672 0,-0.09095 0.124023,-0.09095 0.124024,0 0.367937,0.0124 0.248047,0.0124 0.367936,0.0124 0.136426,0 0.405143,-0.0124 0.268718,-0.01654 0.405144,-0.01654 0.06201,0 0.05788,0.07855 l -0.0041,0.05374 q -0.04961,0.777214 -0.111621,2.335776 l -0.0041,1.091406 q 0,0.529167 0.0041,0.77308 0.0041,0.04961 0.0083,0.09922 0.0041,0.04961 0.06201,0.06201 0.0041,0 0.107487,0 0.372071,0 1.112077,-0.03721 0.744141,-0.04134 1.116212,-0.04134 0.111621,0 0.111621,0.09508 0,0.706934 -0.103353,1.219564 -0.02067,0.107487 -0.08682,0.128158 -0.02067,0.0083 -0.169499,0.0083 z"
         style="font-size:8.46667px"
         id="path20" />
    </g>
    <g
       aria-label="M"
       id="text862"
       style="font-size:8.46667px;line-height:1.25;font-family:'Berlin Sans FB Demi';-inkscape-font-specification:'Berlin Sans FB Demi, Normal';fill:#fff6d5;stroke-width:0.264583">
      <path
         d="m 23.012654,23.410754 q 0,0.128158 -0.11989,0.128158 h -1.463477 q -0.119889,0 -0.119889,-0.144694 0,-0.417546 0.02894,-1.252637 0.03307,-0.835092 0.03307,-1.252638 0,-0.119889 -0.03721,-0.128157 -0.04547,0.0248 -0.553971,1.277442 -0.297657,0.735872 -0.595313,1.467611 -0.04134,0.09508 -0.103353,0.111621 -0.02067,0.0041 -0.165365,0.0041 -0.214974,0 -0.256315,-0.08268 -0.223242,-0.454753 -0.587044,-1.322917 -0.388607,-0.917774 -0.582911,-1.327052 -0.0083,-0.02067 -0.03721,-0.04547 -0.02894,0.03721 -0.02894,0.119889 0,0.405144 0.02067,1.215431 0.02067,0.810286 0.02067,1.21543 0,0.144694 -0.115756,0.144694 h -1.380794 q -0.08268,0 -0.103353,-0.02481 -0.01654,-0.02894 -0.01654,-0.09509 0,-0.450618 0.04134,-1.351856 0.04548,-0.905371 0.04548,-1.35599 0,-0.479557 -0.04134,-1.79834 -0.0041,-0.343132 -0.03721,-1.021127 l -0.0041,-0.07028 q -0.0041,-0.08268 0.173633,-0.08268 0.227377,0 0.682129,-0.0124 0.454753,-0.01654 0.68213,-0.01654 0.04547,0 0.128157,0.173633 l 1.207162,2.649968 q 0.128158,0.268718 0.214974,0.268718 0.04547,0 0.194304,-0.310059 0.417545,-0.868164 1.2361,-2.616895 0.07028,-0.161231 0.152963,-0.161231 0.119889,0 0.359668,0.0124 0.243913,0.0124 0.367936,0.0124 0.103353,0 0.314193,-0.02067 0.214974,-0.02067 0.318327,-0.02067 0.124023,0 0.124023,0.09922 0,0.487826 -0.03721,1.459343 -0.03307,0.967384 -0.03307,1.455209 0,0.450619 0.03721,1.351856 0.03721,0.901238 0.03721,1.347722 z"
         id="path17" />
    </g>
    <path
       style="fill:#2b2200;fill-rule:evenodd;stroke:#00a800;stroke-width:0.00125;stroke-miterlimit:4;stroke-dasharray:none"
       d="m 72.812563,94.087792 -8.783073,-5.075 2.795623,-0.03125 c 2.176394,-0.02433 2.81361,-0.04924 2.876824,-0.112457 0.100014,-0.100024 0.105894,-1.676333 0.02458,-6.590668 -0.03786,-2.288508 -0.03581,-3.421875 0.0062,-3.421875 0.0992,0 0.934306,1.843543 2.358556,5.206673 0.792906,1.872315 1.463648,3.398363 1.887078,4.293413 0.32513,0.68726 0.369328,0.749662 0.594896,0.839916 0.159672,0.06389 0.444158,0.0975 0.825262,0.0975 0.531404,0 0.593625,-0.01281 0.721052,-0.14845 0.07725,-0.08222 0.858174,-1.915519 1.75047,-4.109375 1.50778,-3.707119 2.562096,-6.22052 2.698102,-6.432044 0.05137,-0.07989 0.0665,-0.07959 0.120299,0.0024 0.08246,0.125606 0.07805,0.736018 -0.02822,3.90625 -0.04955,1.478125 -0.108968,3.460937 -0.132045,4.40625 -0.04167,1.707148 -0.04103,1.71991 0.09542,1.890625 l 0.137377,0.171875 h 2.995464 c 2.984903,0 2.995939,-5e-4 3.13029,-0.134827 0.133622,-0.133622 0.134469,-0.150235 0.09486,-1.859375 -0.02198,-0.948501 -0.08552,-2.86361 -0.141196,-4.255798 -0.110697,-2.767898 -0.09613,-7.390492 0.03447,-10.9375 0.0386,-1.048437 0.09001,-2.52883 0.114237,-3.289761 l 0.04405,-1.383512 4.9375,2.850129 4.9375,2.85013 -0.01498,0.564632 c -0.151448,5.709741 -1.978859,11.437046 -5.194964,16.281585 -2.057034,3.098586 -4.900786,6.016956 -7.94631,8.154815 -0.739166,0.51887 -2.0427,1.348612 -2.111217,1.343857 -0.02477,-0.0017 -3.997416,-2.286875 -8.828107,-5.078125 z"
       id="path2069"
       transform="scale(0.26458333)" />
    <path
       style="fill:#2b2200;fill-rule:evenodd;stroke:#00a800;stroke-width:0.00125;stroke-miterlimit:4;stroke-dasharray:none"
       d="m 54.908137,81.82357 c -4.778125,-2.762162 -8.756601,-5.06346 -8.841057,-5.113997 -0.137189,-0.08209 0.006,-0.08898 1.34375,-0.06461 0.823519,0.015 3.030119,0.05535 4.903557,0.08965 1.873437,0.03431 4.408515,0.08025 5.633507,0.102107 l 2.227257,0.03973 0.157031,-0.157032 c 0.174603,-0.174603 0.246714,-0.456268 0.388924,-1.519136 0.115609,-0.864057 0.254224,-3.381922 0.198361,-3.603129 -0.02692,-0.106596 -0.10602,-0.188008 -0.221931,-0.228415 -0.187629,-0.06541 -2.361978,-0.0111 -4.539399,0.113377 -0.61875,0.03537 -1.898438,0.08218 -2.84375,0.104005 -1.566278,0.03617 -1.726516,0.03033 -1.806291,-0.06582 -0.125275,-0.150996 -0.164601,-3.900001 -0.07613,-7.257516 0.09325,-3.538865 0.373183,-9.292846 0.456134,-9.375797 0.03942,-0.03942 27.363786,15.72727 27.363786,15.789435 0,0.08704 -3.257752,6.956554 -3.526363,7.435921 -0.08847,0.157882 -0.21363,0.334823 -0.278137,0.393201 -0.110992,0.100446 -0.127086,0.0979 -0.299896,-0.04751 -0.100436,-0.08451 -0.258822,-0.293681 -0.351969,-0.464823 -0.09315,-0.171143 -1.223508,-2.625424 -2.511912,-5.45396 -1.288405,-2.828535 -2.413641,-5.250211 -2.500525,-5.381502 l -0.157972,-0.238711 -0.733488,0.0037 c -2.225873,0.01114 -4.936469,0.108493 -5.074293,0.182254 l -0.147,0.07867 0.0419,1.039577 c 0.246012,6.103566 0.295597,11.080371 0.142057,14.258327 -0.05398,1.117187 -0.117357,2.558594 -0.140849,3.203125 -0.02349,0.644531 -0.05961,1.169431 -0.08026,1.166445 -0.02065,-0.003 -3.946922,-2.265379 -8.725047,-5.027541 z"
       id="path2071"
       transform="scale(0.26458333)" />
  </g>
</svg>
