<?xml version="1.0" encoding="UTF-8" standalone="no"?>
<!-- Created with Inkscape (http://www.inkscape.org/) -->

<svg
   xmlns:dc="http://purl.org/dc/elements/1.1/"
   xmlns:cc="http://creativecommons.org/ns#"
   xmlns:rdf="http://www.w3.org/1999/02/22-rdf-syntax-ns#"
   xmlns:svg="http://www.w3.org/2000/svg"
   xmlns="http://www.w3.org/2000/svg"
   xmlns:sodipodi="http://sodipodi.sourceforge.net/DTD/sodipodi-0.dtd"
   xmlns:inkscape="http://www.inkscape.org/namespaces/inkscape"
   width="256"
   height="256"
   viewBox="0 0 67.733332 67.733335"
   version="1.1"
   id="svg158829"
   inkscape:version="0.92.4 (5da689c313, 2019-01-14)"
   sodipodi:docname="logo_qute_style.svg">
  <metadata
     id="metadata929">
    <rdf:RDF>
      <cc:Work
         rdf:about="">
        <dc:format>image/svg+xml</dc:format>
        <dc:type
           rdf:resource="http://purl.org/dc/dcmitype/StillImage" />
        <dc:title></dc:title>
      </cc:Work>
    </rdf:RDF>
  </metadata>
  <sodipodi:namedview
     id="namedview158831"
     pagecolor="#ffffff"
     bordercolor="#666666"
     borderopacity="1.0"
     inkscape:pageshadow="2"
     inkscape:pageopacity="0.0"
     inkscape:pagecheckerboard="0"
     inkscape:document-units="mm"
     showgrid="false"
     inkscape:zoom="2.56"
     inkscape:cx="111.92265"
     inkscape:cy="152.77861"
     inkscape:window-width="1920"
     inkscape:window-height="1017"
     inkscape:window-x="-8"
     inkscape:window-y="-8"
     inkscape:window-maximized="1"
     inkscape:current-layer="text161554"
     inkscape:snap-nodes="false"
     inkscape:snap-global="false"
     units="px">
    <inkscape:grid
       type="xygrid"
       id="grid184514" />
  </sodipodi:namedview>
  <defs
     id="defs158826">
    <clipPath
       clipPathUnits="userSpaceOnUse"
       id="clipPath996">
      <path
         id="path998"
         style="fill:#44474e;fill-opacity:0.29758702;stroke:#282a36;stroke-width:0.164;stroke-linecap:round;stroke-linejoin:round;stroke-miterlimit:4;stroke-dasharray:none;stroke-dashoffset:0.60774797"
         d="m 50.898348,129.80811 v 25.00003 h 25.000024 v -25.00003 z m 9.834542,14.54123 c 0.128643,0.54678 0.008,0.004 0.0067,0.0119 -7.94e-4,0.005 -0.0034,0.011 -0.0026,0.016 l 5.29e-4,-5.3e-4 c 2.41e-4,2.3e-4 2.65e-4,8e-4 5.29e-4,0.001 0.0028,0.005 0.0035,0.009 0.0052,0.0145 0.0011,0.003 0.0013,0.002 0.0021,0.005 2.65e-4,0.001 2.65e-4,0.002 5.3e-4,0.003 -5.3e-4,0.004 2.64e-4,0.008 5.29e-4,0.0124 1.93e-4,0.005 -1.67e-4,0.003 5.29e-4,0.005 0.0013,0.007 5.29e-4,0.0126 5.29e-4,0.0196 5.8e-5,0.005 8e-6,0.0105 0,0.0155 5.29e-4,0.004 -5.29e-4,0.007 -0.0011,0.0109 -9e-5,0.001 -5.29e-4,0.002 -5.29e-4,0.002 -2.65e-4,0.002 -5.3e-4,0.002 -5.3e-4,0.003 -1.5e-5,10e-5 1.51e-4,4e-5 0,10e-4 0,0.005 -0.0016,0.0112 -0.0041,0.016 -2.65e-4,-8e-4 -7.94e-4,-0.002 -0.0011,-0.003 -2.28e-4,-7.9e-4 -2.65e-4,-0.002 -5.3e-4,-0.002 -0.0028,-0.002 -0.005,0.022 -0.0098,0.0114 -7.93e-4,-0.002 -0.0016,-0.003 -0.0021,-0.005 -1.96e-4,-0.001 -6.1e-5,-0.001 0,-0.002 2.64e-4,-0.003 2.64e-4,-0.003 0.0021,-0.006 5.3e-4,-10e-4 -0.0011,0.001 -0.0016,0.002 2.27e-4,-0.001 7.94e-4,-0.002 0.0011,-0.002 h 5.29e-4 c 1.35e-4,-10e-5 1.22e-4,-5.3e-4 5.3e-4,-0.002 0.0011,-0.003 0.0013,-0.007 0.0016,-0.0104 1.83e-4,-0.001 2.65e-4,-0.002 5.29e-4,-0.003 l 5.29e-4,-5.3e-4 c 1.62e-4,-0.001 -1.4e-4,-0.002 0,-0.003 2.39e-4,-0.001 0.0011,-0.003 0.0011,-0.004 9.8e-5,-10e-4 0,-0.003 0,-0.004 10e-6,-0.005 5.5e-5,-0.0105 0,-0.0155 6.3e-5,-0.005 -1.35e-4,-0.003 0,-0.008 7.1e-5,-0.002 2.64e-4,-0.005 0,-0.007 -1.09e-4,-0.001 -2.65e-4,-0.001 -5.29e-4,-0.002 -2.04e-4,-0.002 -2.65e-4,-0.003 -5.3e-4,-0.004 -2.06e-4,-0.002 1.46e-4,-0.004 0,-0.006 -1.85e-4,-0.003 -5.29e-4,-0.006 -5.29e-4,-0.008 1.6e-5,-2e-4 -9e-5,-5.3e-4 0,-0.001 -1.43e-4,-2.5e-4 -7.6e-5,-0.001 -5.29e-4,-0.002 -5.29e-4,-0.001 -0.0011,-0.003 -0.0016,-0.004 -0.0013,-0.003 -0.0019,-0.007 -0.0031,-0.0103 -0.0011,-0.002 -0.0021,-0.003 -0.0026,-0.005 -0.0024,-0.007 7.94e-4,-0.0147 0.0026,-0.0222 0.127169,0.23635 0.09658,0.17127 0.0057,-0.008 z"
         sodipodi:nodetypes="ccccccsccccscccccccscccccccccccccccccscsccccscccccccc"
         inkscape:connector-curvature="0" />
    </clipPath>
    <clipPath
       clipPathUnits="userSpaceOnUse"
       id="clipPath21627">
      <g
         id="g21657"
         transform="translate(14.211094,19.040761)"
         clip-path="url(#clipPath996)">
        <g
           id="g21655"
           transform="translate(7.4600814,2.973155)">
          <g
             id="g21647">
            <g
               id="g21645">
              <path
                 id="path21629"
                 style="fill:#000000;fill-opacity:1;stroke:#282a36;stroke-width:0.25619301;stroke-linecap:round;stroke-linejoin:round;stroke-miterlimit:4;stroke-dasharray:none;stroke-opacity:1"
                 d="m 66.649553,145.29152 c -0.394122,0.16605 -0.610298,0.56994 -0.506643,0.99383 0.548301,-0.0122 1.082862,0.10185 1.557032,0.3323 0.182394,-0.25087 0.222212,-0.55352 0.09997,-0.84375 -0.19105,-0.45356 -0.706086,-0.66953 -1.150358,-0.48238 z"
                 sodipodi:nodetypes="sccsss"
                 inkscape:connector-curvature="0" />
              <path
                 id="path21631"
                 style="fill:#000000;fill-opacity:1;stroke:#282a36;stroke-width:0.25619301;stroke-linecap:round;stroke-linejoin:round;stroke-miterlimit:4;stroke-dasharray:none;stroke-opacity:1"
                 d="m 62.57334,146.96563 a 0.89111083,0.87287285 67.15752 0 1 1.083912,0.3543 3.1133785,3.4047679 67.15752 0 0 -0.849985,1.34622 0.89111083,0.87287285 67.15752 0 1 -0.692421,-0.54043 0.89111083,0.87287285 67.15752 0 1 0.458494,-1.16009 z"
                 inkscape:connector-curvature="0" />
              <ellipse
                 style="fill:#ffffff;fill-opacity:1;stroke:#282a36;stroke-width:0.259698;stroke-linecap:round;stroke-linejoin:round;stroke-miterlimit:4;stroke-dasharray:none;stroke-opacity:1"
                 id="ellipse21633"
                 cx="2.825433"
                 cy="163.3593"
                 rx="3.3809669"
                 ry="3.1297705"
                 transform="rotate(-22.84248)" />
              <path
                 id="path21635"
                 style="fill:#000000;fill-opacity:1;stroke:#282a36;stroke-width:0.0105864;stroke-linecap:round;stroke-linejoin:round;stroke-miterlimit:4;stroke-dasharray:none;stroke-opacity:1"
                 d="m 64.505247,148.59079 a 0.96515885,1.4950823 9.1079653 0 0 -0.780688,1.35867 0.96515885,1.4950823 9.1079653 0 0 0.801378,1.52792 0.96515885,1.4950823 9.1079653 0 0 1.134103,-1.43901 0.96515885,1.4950823 9.1079653 0 0 -0.801379,-1.52792 0.96515885,1.4950823 9.1079653 0 0 -0.353414,0.0803 z m 4.45e-4,0.65057 c 0.150049,-0.0682 0.368664,-0.0518 0.451304,0.0582 -0.02535,0.009 -0.134457,0.0263 -0.15785,0.0395 -0.221891,0.12571 -0.280983,0.3104 -0.155125,0.5361 0.106869,0.19155 0.335686,0.29453 0.5427,0.23186 -0.04399,0.0557 -0.09542,0.12201 -0.156931,0.1569 -0.241755,0.19856 -0.6158,0.053 -0.768921,-0.22239 -0.150397,-0.26963 -0.04938,-0.63491 0.215653,-0.78522 l 1.4e-4,-1.7e-4 c 0.0093,-0.005 0.01903,-0.0102 0.02903,-0.0148 z"
                 inkscape:connector-curvature="0" />
              <path
                 id="path21637"
                 style="fill:#000000;fill-opacity:1;stroke:#282a36;stroke-width:0.0105864;stroke-linecap:round;stroke-linejoin:round;stroke-miterlimit:4;stroke-dasharray:none;stroke-opacity:1"
                 d="m 66.46672,147.78768 a 1.4950823,0.96515885 35.207075 0 1 1.517533,0.39059 1.4950823,0.96515885 35.207075 0 1 0.533395,1.6408 1.4950823,0.96515885 35.207075 0 1 -1.821915,-0.19384 1.4950823,0.96515885 35.207075 0 1 -0.533394,-1.6408 1.4950823,0.96515885 35.207075 0 1 0.304381,-0.19675 z m 0.465174,0.45481 c -0.153648,0.0597 -0.294646,0.22756 -0.273661,0.36355 0.02407,-0.0119 0.112738,-0.0779 0.138556,-0.0853 0.244958,-0.071 0.418391,0.0158 0.491955,0.26353 0.0624,0.21028 -0.02377,0.44594 -0.213237,0.55028 0.07062,0.007 0.153962,0.017 0.221896,-0.003 0.310968,-0.0343 0.468096,-0.40361 0.378054,-0.70553 -0.08786,-0.29598 -0.41979,-0.47889 -0.712493,-0.39426 l -2.16e-4,-2e-5 c -0.01032,0.003 -0.0206,0.006 -0.03084,0.0105 z"
                 inkscape:connector-curvature="0" />
              <ellipse
                 style="fill:#000000;fill-opacity:1;stroke:#282a36;stroke-width:0.0128015;stroke-linecap:round;stroke-linejoin:round;stroke-miterlimit:4;stroke-dasharray:none;stroke-opacity:1"
                 id="ellipse21639"
                 cx="2.8045313"
                 cy="164.32413"
                 rx="0.45683584"
                 ry="0.36013472"
                 transform="rotate(-22.84248)" />
              <path
                 style="fill:none;stroke:#282a36;stroke-width:0.23432299;stroke-linecap:round;stroke-linejoin:miter;stroke-miterlimit:4;stroke-dasharray:none;stroke-opacity:1"
                 d="m 66.501262,150.67883 c 0.126665,0.77275 -0.263777,1.04683 -0.669364,1.3063"
                 id="path21641"
                 sodipodi:nodetypes="cc"
                 inkscape:connector-curvature="0" />
              <path
                 style="fill:none;stroke:#282a36;stroke-width:0.23432299;stroke-linecap:round;stroke-linejoin:miter;stroke-miterlimit:4;stroke-dasharray:none;stroke-opacity:1"
                 d="m 66.534061,150.66501 c 0.46442,0.63048 0.933289,0.54259 1.402289,0.43365"
                 id="path21643"
                 sodipodi:nodetypes="cc"
                 inkscape:connector-curvature="0" />
            </g>
          </g>
          <path
             style="fill:#ffffff;fill-opacity:1;stroke:#282a36;stroke-width:0.0213802;stroke-linecap:round;stroke-linejoin:round;stroke-dashoffset:0.60774797"
             d="m 245.85219,576.28542 c -0.0729,-0.009 -0.32152,-0.037 -0.55243,-0.0633 -1.93356,-0.22046 -4.04326,-1.04349 -5.54637,-2.16374 -2.33276,-1.73857 -3.77282,-4.11103 -4.2507,-7.00291 -0.12273,-0.74271 -0.11085,-2.44583 0.0225,-3.22188 0.43913,-2.55618 1.56562,-4.72023 3.43157,-6.59227 3.45227,-3.46351 8.5874,-4.72206 13.14214,-3.22094 1.64906,0.54349 3.10808,1.41779 4.31014,2.58282 1.41445,1.37086 2.42978,3.09446 2.89672,4.91735 0.39735,1.55125 0.44918,3.07158 0.1584,4.64601 -0.55832,3.02296 -2.3493,5.77757 -4.99408,7.68114 -1.81817,1.30861 -4.06438,2.16048 -6.33112,2.40104 -0.53626,0.0569 -1.92253,0.0792 -2.28674,0.0367 z m 1.68644,-1.77545 c 0.7108,-0.48254 1.11979,-0.83643 1.45897,-1.26242 0.50185,-0.63029 0.80879,-1.41303 0.88079,-2.24612 l 0.0294,-0.34084 0.23267,0.19877 c 0.85437,0.72991 1.97635,1.06625 3.16515,0.94882 0.6759,-0.0668 1.58092,-0.25126 1.71682,-0.34997 0.23837,-0.17316 0.27693,-0.48976 0.0846,-0.6945 -0.14754,-0.15705 -0.29707,-0.16498 -0.86468,-0.0459 -0.8258,0.17329 -1.36125,0.22198 -1.79972,0.16363 -0.84352,-0.11225 -1.46507,-0.45418 -2.14326,-1.17905 -0.19759,-0.21119 -0.35926,-0.40306 -0.35926,-0.42637 0,-0.0233 0.0466,-0.079 0.10356,-0.12385 0.1854,-0.14583 0.42255,-0.543 0.49519,-0.82931 0.1513,-0.59634 -0.0963,-1.11601 -0.65847,-1.38186 -1.12429,-0.53171 -2.72451,0.36077 -2.72451,1.51951 0,0.44764 0.17253,0.77572 0.52435,0.99707 0.28951,0.18214 0.50801,0.24192 0.89783,0.24563 l 0.33944,0.003 0.0312,0.37456 c 0.1312,1.57508 -0.38813,2.59099 -1.82579,3.57152 -0.71607,0.48839 -0.76275,0.53556 -0.76155,0.76944 0.002,0.30294 0.20561,0.49431 0.49222,0.46163 0.11012,-0.0126 0.32874,-0.13181 0.68501,-0.37367 z m -5.00227,-2.01915 c 1.72838,-0.36612 3.21505,-2.45584 3.63105,-5.10392 0.0978,-0.62268 0.099,-1.90412 0.002,-2.4754 -0.20268,-1.19704 -0.61671,-2.11985 -1.24716,-2.77974 -0.85201,-0.89179 -1.98067,-1.11445 -3.05732,-0.60315 -0.41522,0.19718 -0.65988,0.36756 -1.03219,0.71878 -0.95179,0.89787 -1.65025,2.31675 -1.95209,3.96558 -0.12755,0.69674 -0.13972,2.16328 -0.0231,2.78701 0.46467,2.48594 1.91687,3.86402 3.67859,3.49084 z m 12.84213,-5.34933 c 1.61072,-0.30466 2.49662,-1.63436 2.18462,-3.27906 -0.54274,-2.86113 -3.96095,-5.53675 -7.07053,-5.5345 -1.54984,10e-4 -2.72372,0.78933 -3.00926,2.02058 -0.12698,0.54751 -0.0796,1.30729 0.11983,1.91984 0.54749,1.68199 2.08723,3.31429 3.99428,4.23441 1.34426,0.64858 2.60394,0.86137 3.78106,0.63873 z"
             id="path21649"
             transform="matrix(0.26458333,0,0,0.26458333,0.52916667,0)"
             inkscape:connector-curvature="0" />
          <path
             style="fill:#ffffff;fill-opacity:1;stroke:#282a36;stroke-width:0.0213802;stroke-linecap:round;stroke-linejoin:round;stroke-dashoffset:0.60774797"
             d="m 242.29821,568.1564 c -0.51693,-0.13899 -1.12942,-0.62779 -1.38367,-1.10427 -0.24741,-0.46365 -0.31841,-1.03904 -0.18936,-1.53451 0.31534,-1.21065 1.46365,-1.87764 2.44771,-1.42172 0.12789,0.0593 0.22077,0.12676 0.2064,0.15002 -0.0144,0.0233 -0.11776,0.056 -0.22974,0.0728 -0.26789,0.0402 -0.69274,0.33194 -0.88089,0.60497 -0.0796,0.11548 -0.16956,0.32109 -0.19995,0.4569 -0.15009,0.67066 0.33738,1.53513 1.06225,1.88377 0.24589,0.11827 0.3539,0.14265 0.70276,0.15865 l 0.41221,0.0189 -0.14705,0.15371 c -0.20765,0.21705 -0.59832,0.47552 -0.84568,0.5595 -0.25638,0.087 -0.63407,0.0875 -0.95499,10e-4 z"
             id="path21651"
             transform="matrix(0.26458333,0,0,0.26458333,0.52916667,0)"
             inkscape:connector-curvature="0" />
          <path
             style="fill:#ffffff;fill-opacity:1;stroke:#282a36;stroke-width:0.0213802;stroke-linecap:round;stroke-linejoin:round;stroke-dashoffset:0.60774797"
             d="m 251.82612,564.39376 -0.12487,-0.0186 0.2267,-0.2397 c 0.12468,-0.13183 0.2803,-0.35409 0.34583,-0.49392 0.10865,-0.23185 0.11914,-0.30094 0.11914,-0.78457 0,-0.48543 -0.0102,-0.55216 -0.12082,-0.78824 -0.17461,-0.37271 -0.35904,-0.58349 -0.62397,-0.71311 -0.43735,-0.21398 -1.0049,-0.18767 -1.41261,0.0655 -0.11707,0.0727 -0.22148,0.13216 -0.23202,0.13216 -0.0512,0 -0.009,-0.2146 0.0781,-0.39485 0.13396,-0.27793 0.49225,-0.62381 0.80395,-0.77608 0.30269,-0.14788 0.83014,-0.19847 1.21303,-0.11635 0.57727,0.1238 1.20465,0.5885 1.47538,1.09281 0.43431,0.80906 0.2887,1.92302 -0.33275,2.54566 -0.11681,0.11703 -0.29017,0.25247 -0.38524,0.30097 -0.24865,0.12685 -0.78449,0.22484 -1.02984,0.18833 z"
             id="path21653"
             transform="matrix(0.26458333,0,0,0.26458333,0.52916667,0)"
             inkscape:connector-curvature="0" />
        </g>
      </g>
    </clipPath>
    <clipPath
       clipPathUnits="userSpaceOnUse"
       id="clipPath21727">
      <path
         style="fill:#63677d;fill-opacity:1;stroke:#00000d;stroke-width:0.12043;stroke-linecap:round;stroke-linejoin:round;stroke-miterlimit:4;stroke-dasharray:none;stroke-dashoffset:0.607748;stroke-opacity:1"
         id="path21729"
         width="22.713295"
         height="22.713295"
         x="67.444466"
         y="151.13548"
         ry="1.4637455"
         sodipodi:type="rect"
         clip-path="url(#clipPath21627)"
         transform="matrix(1.0297465,0,0,1.0297465,-16.819499,-24.109426)" />
    </clipPath>
    <clipPath
       clipPathUnits="userSpaceOnUse"
       id="clipPath22662">
      <g
         id="g22690"
         transform="matrix(1.2595624,0,0,1.2595624,45.643583,-102.02013)">
        <g
           id="g22682">
          <g
             id="g22680">
            <path
               id="path22664"
               style="fill:#000000;fill-opacity:1;stroke:#282a36;stroke-width:0.25619301;stroke-linecap:round;stroke-linejoin:round;stroke-miterlimit:4;stroke-dasharray:none;stroke-opacity:1"
               d="m 66.649553,145.29152 c -0.394122,0.16605 -0.610298,0.56994 -0.506643,0.99383 0.548301,-0.0122 1.082862,0.10185 1.557032,0.3323 0.182394,-0.25087 0.222212,-0.55352 0.09997,-0.84375 -0.19105,-0.45356 -0.706086,-0.66953 -1.150358,-0.48238 z"
               sodipodi:nodetypes="sccsss"
               inkscape:connector-curvature="0" />
            <path
               id="path22666"
               style="fill:#000000;fill-opacity:1;stroke:#282a36;stroke-width:0.25619301;stroke-linecap:round;stroke-linejoin:round;stroke-miterlimit:4;stroke-dasharray:none;stroke-opacity:1"
               d="m 62.57334,146.96563 a 0.89111083,0.87287285 67.15752 0 1 1.083912,0.3543 3.1133785,3.4047679 67.15752 0 0 -0.849985,1.34622 0.89111083,0.87287285 67.15752 0 1 -0.692421,-0.54043 0.89111083,0.87287285 67.15752 0 1 0.458494,-1.16009 z"
               inkscape:connector-curvature="0" />
            <ellipse
               style="fill:#ffffff;fill-opacity:1;stroke:#282a36;stroke-width:0.259698;stroke-linecap:round;stroke-linejoin:round;stroke-miterlimit:4;stroke-dasharray:none;stroke-opacity:1"
               id="ellipse22668"
               cx="2.825433"
               cy="163.3593"
               rx="3.3809669"
               ry="3.1297705"
               transform="rotate(-22.84248)" />
            <path
               id="path22670"
               style="fill:#000000;fill-opacity:1;stroke:#282a36;stroke-width:0.0105864;stroke-linecap:round;stroke-linejoin:round;stroke-miterlimit:4;stroke-dasharray:none;stroke-opacity:1"
               d="m 64.505247,148.59079 a 0.96515885,1.4950823 9.1079653 0 0 -0.780688,1.35867 0.96515885,1.4950823 9.1079653 0 0 0.801378,1.52792 0.96515885,1.4950823 9.1079653 0 0 1.134103,-1.43901 0.96515885,1.4950823 9.1079653 0 0 -0.801379,-1.52792 0.96515885,1.4950823 9.1079653 0 0 -0.353414,0.0803 z m 4.45e-4,0.65057 c 0.150049,-0.0682 0.368664,-0.0518 0.451304,0.0582 -0.02535,0.009 -0.134457,0.0263 -0.15785,0.0395 -0.221891,0.12571 -0.280983,0.3104 -0.155125,0.5361 0.106869,0.19155 0.335686,0.29453 0.5427,0.23186 -0.04399,0.0557 -0.09542,0.12201 -0.156931,0.1569 -0.241755,0.19856 -0.6158,0.053 -0.768921,-0.22239 -0.150397,-0.26963 -0.04938,-0.63491 0.215653,-0.78522 l 1.4e-4,-1.7e-4 c 0.0093,-0.005 0.01903,-0.0102 0.02903,-0.0148 z"
               inkscape:connector-curvature="0" />
            <path
               id="path22672"
               style="fill:#000000;fill-opacity:1;stroke:#282a36;stroke-width:0.0105864;stroke-linecap:round;stroke-linejoin:round;stroke-miterlimit:4;stroke-dasharray:none;stroke-opacity:1"
               d="m 66.46672,147.78768 a 1.4950823,0.96515885 35.207075 0 1 1.517533,0.39059 1.4950823,0.96515885 35.207075 0 1 0.533395,1.6408 1.4950823,0.96515885 35.207075 0 1 -1.821915,-0.19384 1.4950823,0.96515885 35.207075 0 1 -0.533394,-1.6408 1.4950823,0.96515885 35.207075 0 1 0.304381,-0.19675 z m 0.465174,0.45481 c -0.153648,0.0597 -0.294646,0.22756 -0.273661,0.36355 0.02407,-0.0119 0.112738,-0.0779 0.138556,-0.0853 0.244958,-0.071 0.418391,0.0158 0.491955,0.26353 0.0624,0.21028 -0.02377,0.44594 -0.213237,0.55028 0.07062,0.007 0.153962,0.017 0.221896,-0.003 0.310968,-0.0343 0.468096,-0.40361 0.378054,-0.70553 -0.08786,-0.29598 -0.41979,-0.47889 -0.712493,-0.39426 l -2.16e-4,-2e-5 c -0.01032,0.003 -0.0206,0.006 -0.03084,0.0105 z"
               inkscape:connector-curvature="0" />
            <ellipse
               style="fill:#000000;fill-opacity:1;stroke:#282a36;stroke-width:0.0128015;stroke-linecap:round;stroke-linejoin:round;stroke-miterlimit:4;stroke-dasharray:none;stroke-opacity:1"
               id="ellipse22674"
               cx="2.8045313"
               cy="164.32413"
               rx="0.45683584"
               ry="0.36013472"
               transform="rotate(-22.84248)" />
            <path
               style="fill:none;stroke:#282a36;stroke-width:0.23432299;stroke-linecap:round;stroke-linejoin:miter;stroke-miterlimit:4;stroke-dasharray:none;stroke-opacity:1"
               d="m 66.501262,150.67883 c 0.126665,0.77275 -0.263777,1.04683 -0.669364,1.3063"
               id="path22676"
               sodipodi:nodetypes="cc"
               inkscape:connector-curvature="0" />
            <path
               style="fill:none;stroke:#282a36;stroke-width:0.23432299;stroke-linecap:round;stroke-linejoin:miter;stroke-miterlimit:4;stroke-dasharray:none;stroke-opacity:1"
               d="m 66.534061,150.66501 c 0.46442,0.63048 0.933289,0.54259 1.402289,0.43365"
               id="path22678"
               sodipodi:nodetypes="cc"
               inkscape:connector-curvature="0" />
          </g>
        </g>
        <path
           style="fill:#ffffff;fill-opacity:1;stroke:#282a36;stroke-width:0.0213802;stroke-linecap:round;stroke-linejoin:round;stroke-dashoffset:0.60774797"
           d="m 245.85219,576.28542 c -0.0729,-0.009 -0.32152,-0.037 -0.55243,-0.0633 -1.93356,-0.22046 -4.04326,-1.04349 -5.54637,-2.16374 -2.33276,-1.73857 -3.77282,-4.11103 -4.2507,-7.00291 -0.12273,-0.74271 -0.11085,-2.44583 0.0225,-3.22188 0.43913,-2.55618 1.56562,-4.72023 3.43157,-6.59227 3.45227,-3.46351 8.5874,-4.72206 13.14214,-3.22094 1.64906,0.54349 3.10808,1.41779 4.31014,2.58282 1.41445,1.37086 2.42978,3.09446 2.89672,4.91735 0.39735,1.55125 0.44918,3.07158 0.1584,4.64601 -0.55832,3.02296 -2.3493,5.77757 -4.99408,7.68114 -1.81817,1.30861 -4.06438,2.16048 -6.33112,2.40104 -0.53626,0.0569 -1.92253,0.0792 -2.28674,0.0367 z m 1.68644,-1.77545 c 0.7108,-0.48254 1.11979,-0.83643 1.45897,-1.26242 0.50185,-0.63029 0.80879,-1.41303 0.88079,-2.24612 l 0.0294,-0.34084 0.23267,0.19877 c 0.85437,0.72991 1.97635,1.06625 3.16515,0.94882 0.6759,-0.0668 1.58092,-0.25126 1.71682,-0.34997 0.23837,-0.17316 0.27693,-0.48976 0.0846,-0.6945 -0.14754,-0.15705 -0.29707,-0.16498 -0.86468,-0.0459 -0.8258,0.17329 -1.36125,0.22198 -1.79972,0.16363 -0.84352,-0.11225 -1.46507,-0.45418 -2.14326,-1.17905 -0.19759,-0.21119 -0.35926,-0.40306 -0.35926,-0.42637 0,-0.0233 0.0466,-0.079 0.10356,-0.12385 0.1854,-0.14583 0.42255,-0.543 0.49519,-0.82931 0.1513,-0.59634 -0.0963,-1.11601 -0.65847,-1.38186 -1.12429,-0.53171 -2.72451,0.36077 -2.72451,1.51951 0,0.44764 0.17253,0.77572 0.52435,0.99707 0.28951,0.18214 0.50801,0.24192 0.89783,0.24563 l 0.33944,0.003 0.0312,0.37456 c 0.1312,1.57508 -0.38813,2.59099 -1.82579,3.57152 -0.71607,0.48839 -0.76275,0.53556 -0.76155,0.76944 0.002,0.30294 0.20561,0.49431 0.49222,0.46163 0.11012,-0.0126 0.32874,-0.13181 0.68501,-0.37367 z m -5.00227,-2.01915 c 1.72838,-0.36612 3.21505,-2.45584 3.63105,-5.10392 0.0978,-0.62268 0.099,-1.90412 0.002,-2.4754 -0.20268,-1.19704 -0.61671,-2.11985 -1.24716,-2.77974 -0.85201,-0.89179 -1.98067,-1.11445 -3.05732,-0.60315 -0.41522,0.19718 -0.65988,0.36756 -1.03219,0.71878 -0.95179,0.89787 -1.65025,2.31675 -1.95209,3.96558 -0.12755,0.69674 -0.13972,2.16328 -0.0231,2.78701 0.46467,2.48594 1.91687,3.86402 3.67859,3.49084 z m 12.84213,-5.34933 c 1.61072,-0.30466 2.49662,-1.63436 2.18462,-3.27906 -0.54274,-2.86113 -3.96095,-5.53675 -7.07053,-5.5345 -1.54984,10e-4 -2.72372,0.78933 -3.00926,2.02058 -0.12698,0.54751 -0.0796,1.30729 0.11983,1.91984 0.54749,1.68199 2.08723,3.31429 3.99428,4.23441 1.34426,0.64858 2.60394,0.86137 3.78106,0.63873 z"
           id="path22684"
           transform="matrix(0.26458333,0,0,0.26458333,0.52916667,0)"
           inkscape:connector-curvature="0" />
        <path
           style="fill:#ffffff;fill-opacity:1;stroke:#282a36;stroke-width:0.0213802;stroke-linecap:round;stroke-linejoin:round;stroke-dashoffset:0.60774797"
           d="m 242.29821,568.1564 c -0.51693,-0.13899 -1.12942,-0.62779 -1.38367,-1.10427 -0.24741,-0.46365 -0.31841,-1.03904 -0.18936,-1.53451 0.31534,-1.21065 1.46365,-1.87764 2.44771,-1.42172 0.12789,0.0593 0.22077,0.12676 0.2064,0.15002 -0.0144,0.0233 -0.11776,0.056 -0.22974,0.0728 -0.26789,0.0402 -0.69274,0.33194 -0.88089,0.60497 -0.0796,0.11548 -0.16956,0.32109 -0.19995,0.4569 -0.15009,0.67066 0.33738,1.53513 1.06225,1.88377 0.24589,0.11827 0.3539,0.14265 0.70276,0.15865 l 0.41221,0.0189 -0.14705,0.15371 c -0.20765,0.21705 -0.59832,0.47552 -0.84568,0.5595 -0.25638,0.087 -0.63407,0.0875 -0.95499,10e-4 z"
           id="path22686"
           transform="matrix(0.26458333,0,0,0.26458333,0.52916667,0)"
           inkscape:connector-curvature="0" />
        <path
           style="fill:#ffffff;fill-opacity:1;stroke:#282a36;stroke-width:0.0213802;stroke-linecap:round;stroke-linejoin:round;stroke-dashoffset:0.60774797"
           d="m 251.82612,564.39376 -0.12487,-0.0186 0.2267,-0.2397 c 0.12468,-0.13183 0.2803,-0.35409 0.34583,-0.49392 0.10865,-0.23185 0.11914,-0.30094 0.11914,-0.78457 0,-0.48543 -0.0102,-0.55216 -0.12082,-0.78824 -0.17461,-0.37271 -0.35904,-0.58349 -0.62397,-0.71311 -0.43735,-0.21398 -1.0049,-0.18767 -1.41261,0.0655 -0.11707,0.0727 -0.22148,0.13216 -0.23202,0.13216 -0.0512,0 -0.009,-0.2146 0.0781,-0.39485 0.13396,-0.27793 0.49225,-0.62381 0.80395,-0.77608 0.30269,-0.14788 0.83014,-0.19847 1.21303,-0.11635 0.57727,0.1238 1.20465,0.5885 1.47538,1.09281 0.43431,0.80906 0.2887,1.92302 -0.33275,2.54566 -0.11681,0.11703 -0.29017,0.25247 -0.38524,0.30097 -0.24865,0.12685 -0.78449,0.22484 -1.02984,0.18833 z"
           id="path22688"
           transform="matrix(0.26458333,0,0,0.26458333,0.52916667,0)"
           inkscape:connector-curvature="0" />
      </g>
    </clipPath>
    <clipPath
       clipPathUnits="userSpaceOnUse"
       id="clipPath22692">
      <rect
         style="fill:#63677d;fill-opacity:1;stroke:#00000d;stroke-width:0.301;stroke-linecap:round;stroke-linejoin:round;stroke-miterlimit:4;stroke-dasharray:none;stroke-dashoffset:0.60774797;stroke-opacity:1"
         id="rect22694"
         width="22.713295"
         height="22.713295"
         x="109.26158"
         y="66.735283"
         ry="1.4637455"
         clip-path="url(#clipPath22662)"
         transform="matrix(0.80675289,0,0,0.80675289,-37.877962,79.899768)" />
    </clipPath>
    <clipPath
       clipPathUnits="userSpaceOnUse"
       id="clipPath22881">
      <rect
         style="fill:#63677d;fill-opacity:1;stroke:#00000d;stroke-width:0.254145;stroke-linecap:round;stroke-linejoin:round;stroke-miterlimit:4;stroke-dasharray:none;stroke-dashoffset:0.60774797;stroke-opacity:1"
         id="rect22883"
         width="19.17761"
         height="19.17761"
         x="84.17379"
         y="57.344875"
         ry="1.2358902" />
    </clipPath>
  </defs>
  <g
     inkscape:label="Ebene 1"
     inkscape:groupmode="layer"
     id="layer1"
     transform="translate(0,-229.26664)">
    <g
       aria-label="QS"
       id="text161554"
       style="font-size:19.75559998px;stroke-width:0.26458299"
       transform="translate(-0.52916667)">
      <g
         id="g15274"
         transform="matrix(3.1633745,0,0,3.1633745,-51.575037,-233.99866)"
         style="stroke:#282a36;stroke-opacity:1">
        <path
           id="path180722"
           style="-inkscape-font-specification:'LostWages, Normal';fill:#ffacdc;fill-opacity:1;stroke:#282a36;stroke-width:0.100002;stroke-miterlimit:4;stroke-dasharray:none;stroke-opacity:1"
           d="m 20.867587,148.29581 c -1.198549,0 -2.225873,0.42808 -3.08198,1.28416 -0.842939,0.84291 -1.264523,1.86384 -1.264523,3.06235 v 8.67286 c 0,1.1985 0.421584,2.21894 1.264523,3.06182 0.856107,0.85608 1.883431,1.28416 3.08198,1.28416 1.211723,0 2.238529,-0.42808 3.081468,-1.28416 1.365998,-1.26795 0.976585,-2.25441 0.750342,-3.83285 h -0.236162 v 0.67179 c 0,1.00095 -0.36184,1.85712 -1.086239,2.56832 -0.711229,0.72438 -1.573799,1.08676 -2.587955,1.08676 -1.000988,0 -1.863559,-0.35591 -2.587955,-1.06712 -0.7244,-0.7112 -1.086756,-1.57385 -1.086756,-2.58796 v -8.67234 c 0,-1.01411 0.362356,-1.87675 1.086756,-2.58795 0.724396,-0.72437 1.586967,-1.08676 2.587955,-1.08676 1.014155,0 1.876726,0.36239 2.587955,1.08676 0.724399,0.7112 1.085693,1.57384 1.086239,2.58795 l 0.0041,7.6631 c 0.365353,0.005 0.752878,0.003 1.067158,0.003 -0.0019,-0.15982 -0.008,-0.37667 -0.0086,-0.57306 h -0.287836 l -0.0036,-6.99389 c -5.29e-4,-1.19851 -0.428072,-2.21942 -1.28416,-3.06234 -0.856107,-0.85607 -1.882913,-1.28416 -3.081465,-1.28416 z m -0.07855,0.90899 c -0.921965,-1e-5 -1.712373,0.32902 -2.370916,0.98754 -0.645374,0.64536 -0.967898,1.42884 -0.967898,2.35076 v 8.67286 c 0,0.82973 0.263297,1.5475 0.790133,2.15335 0.540009,0.619 1.198507,0.99433 1.975588,1.12603 v -0.0393 c 0,-0.0131 0.0065,-0.0266 0.01963,-0.0398 v -0.0393 -0.0393 c 0,-1.11948 0.401672,-2.08766 1.205095,-2.90422 0.64561,-0.64557 1.395203,-1.03331 2.246892,-1.16788 0.152654,-0.0192 0.305176,-0.0444 0.439766,-0.0362 v -7.68635 c 0,-0.90875 -0.329017,-1.69223 -0.987538,-2.35076 -0.645372,-0.65852 -1.428798,-0.98755 -2.35076,-0.98754 z m 0.07958,0.79014 c 0.737571,0 1.362705,0.26332 1.876372,0.79013 0.526836,0.51366 0.790649,1.13288 0.790649,1.85725 v 7.0776 c -0.323374,0.0625 -0.642363,0.16179 -0.948264,0.29094 -0.579519,0.25024 -1.093179,0.59271 -1.540989,1.02733 -0.342442,0.3556 -0.632118,0.76429 -0.869198,1.22525 -0.237075,0.44779 -0.395365,0.92166 -0.47439,1.42213 -0.44781,-0.21073 -0.810165,-0.5268 -1.086755,-0.94826 -0.263419,-0.42144 -0.394809,-0.89532 -0.394809,-1.42213 v -8.67286 c 0,-0.73754 0.256835,-1.36324 0.770497,-1.87689 0.526835,-0.51364 1.152493,-0.77049 1.876887,-0.77049 z m 3.258198,10.56938 c -0.987814,0.0527 -1.830472,0.44791 -2.528527,1.18545 -0.684885,0.73755 -1.027327,1.60018 -1.027327,2.58796 v 0.0393 0.0791 0.0398 0.0202 0.0196 c 0.948303,0.0659 1.778026,-0.23031 2.489253,-0.88884 0.711229,-0.65852 1.066601,-1.46889 1.066601,-2.43034 z m -0.592211,0.90847 c -0.03951,0.60584 -0.263496,1.13946 -0.671793,1.60042 -0.4083,0.4478 -0.902044,0.72457 -1.481564,0.82992 0.105365,-0.56632 0.348747,-1.06709 0.730705,-1.50172 0.395127,-0.44778 0.869475,-0.7574 1.422652,-0.92862 z"
           sodipodi:nodetypes="cssssscccscsssscscsccccccccssssccsccscccscssscsccccccsscsccscccccsscccccc"
           inkscape:connector-curvature="0" />
        <path
           id="path180771"
           style="-inkscape-font-specification:'LostWages, Normal';fill:#ffacdc;fill-opacity:1;stroke:#282a36;stroke-width:0.1;stroke-miterlimit:4;stroke-dasharray:none;stroke-opacity:1"
           d="m 30.060081,148.29686 v 5.3e-4 l -5.29e-4,5.3e-4 v 5.2e-4 c -1.066804,0 -1.981688,0.38231 -2.745571,1.14619 -0.750712,0.75071 -1.126545,1.66559 -1.126545,2.74557 0,0.44779 0.07268,0.89579 0.217559,1.34358 0.144872,0.43463 0.381807,0.8234 0.711068,1.16582 0.671689,0.7112 1.343689,1.422 2.015378,2.13321 0.671693,0.7112 1.343176,1.42898 2.014866,2.15335 0.09219,0.0922 0.177808,0.19773 0.256831,0.31626 0.07902,0.10536 0.151704,0.21737 0.217559,0.3359 h -3.121774 -3.10162 c -0.02633,0 -0.07546,-0.006 -0.101804,0.007 l -0.05632,0.0124 c -0.158047,0.0395 -0.302895,0.12514 -0.4346,0.25683 -0.09177,0.0918 -0.156387,0.19002 -0.196887,0.29456 0.262903,0.0136 0.678484,0.004 0.858885,2.7e-4 h 1.65158 1.81746 1.778185 1.81746 c -0.07902,-0.34243 -0.203957,-0.65852 -0.375171,-0.94827 -0.171215,-0.30291 -0.368832,-0.57968 -0.592728,-0.82992 l -1.027329,-1.0666 c -0.329258,-0.36878 -0.665258,-0.73116 -1.00769,-1.08676 -0.329261,-0.3556 -0.664744,-0.711 -1.007173,-1.0666 -0.329261,-0.36877 -0.665261,-0.73116 -1.00769,-1.08676 -0.237069,-0.25024 -0.414769,-0.53347 -0.533302,-0.84955 -0.105362,-0.32926 -0.171579,-0.65828 -0.197921,-0.98754 v -0.0791 -0.11885 c 0,-0.89559 0.309618,-1.65269 0.928626,-2.2717 0.63218,-0.63218 1.389796,-0.94826 2.272213,-0.94826 0.500475,0 0.980808,0.11846 1.441773,0.35553 0.460965,0.2239 0.836284,0.53999 1.126029,0.94827 0.01318,0.0131 0.02016,0.0266 0.02016,0.0398 h 0.01963 v 0.0196 0.0196 c 0.01318,0 0.01963,0.006 0.01963,0.0196 0,0.0395 -0.01992,0.0793 -0.05943,0.11886 -0.02633,0.0263 -0.05919,0.0457 -0.0987,0.0589 -0.02633,0 -0.05272,-0.006 -0.07907,-0.0196 -0.02635,-0.0132 -0.05273,-0.0331 -0.07906,-0.0594 -0.27658,-0.36878 -0.619045,-0.65201 -1.027329,-0.84956 -0.39511,-0.21073 -0.822677,-0.31574 -1.283642,-0.31574 -0.790223,0 -1.468691,0.28323 -2.035019,0.84955 -0.553156,0.56633 -0.829921,1.24429 -0.829921,2.03451 v 0.0987 0.0791 c 0.02633,0.30292 0.08557,0.5996 0.177766,0.88936 0.105362,0.27657 0.263662,0.51997 0.47439,0.7307 0.342429,0.35561 0.678431,0.71799 1.007689,1.08676 0.342432,0.35561 0.677915,0.71101 1.007174,1.0666 0.342431,0.3556 0.678431,0.71799 1.007692,1.08675 0.342429,0.3556 0.678428,0.71101 1.007689,1.0666 0.263409,0.27658 0.486892,0.5862 0.671277,0.92863 0.197556,0.34243 0.335938,0.70482 0.414961,1.08675 h 1.046965 1.461925 0.403593 1.047483 c 0.06585,0 0.111635,0.0194 0.137975,0.0589 0.02633,0.0263 2.64e-4,0.0978 0.03979,0.0992 v 0.0196 0.0196 c -0.01318,0.0395 -0.03309,0.0724 -0.05943,0.0987 -0.02635,0.0263 -0.06566,0.0398 -0.118337,0.0398 h -3.900538 c 0.01318,0.0659 0.01963,0.13802 0.01963,0.21704 v 0.19741 c 0.01318,1.05363 -0.368615,1.96903 -1.145667,2.74608 -0.763884,0.77706 -1.692217,1.16582 -2.785359,1.16582 -1.106315,0 -2.04163,-0.38876 -2.805514,-1.16582 -0.750713,-0.77705 -1.12603,-1.69245 -1.12603,-2.74608 v -0.15813 -0.15761 c 0.0021,-0.0336 0.0037,-0.0933 0.0041,-0.10697 -0.205137,-0.001 -0.426788,0.005 -0.587589,0.009 -0.0059,0.0525 -0.0045,0.10796 -0.0055,0.16052 -0.0039,0.21092 -0.0052,0.23339 -0.0052,0.35192 0,1.23801 0.441016,2.3112 1.323433,3.21996 0.882417,0.92192 1.975517,1.38286 3.279386,1.38286 1.224846,0 2.278631,-0.42162 3.161048,-1.26453 0.895586,-0.8429 1.376434,-1.86979 1.442289,-3.08146 h 3.208592 c 0.302913,0 0.52692,-0.0856 0.671793,-0.25683 0.144872,-0.17122 0.22402,-0.36237 0.237193,-0.57309 v -0.0196 -0.0398 c -0.01318,-0.19755 -0.09879,-0.37526 -0.256831,-0.5333 -0.144875,-0.17122 -0.362413,-0.25683 -0.652155,-0.25683 h -0.928074 -0.265615 -1.323436 -0.928624 c -0.118533,-0.34243 -0.269851,-0.66498 -0.454236,-0.9679 -0.184386,-0.31609 -0.401918,-0.59932 -0.652156,-0.84956 -0.329258,-0.3556 -0.664742,-0.71151 -1.007173,-1.06712 -0.329258,-0.3556 -0.665261,-0.71747 -1.007692,-1.08624 -0.329261,-0.3556 -0.665261,-0.71151 -1.00769,-1.06711 -0.329261,-0.3556 -0.66475,-0.711 -1.007173,-1.0666 -0.131705,-0.14488 -0.237236,-0.30965 -0.316259,-0.49403 -0.06585,-0.18439 -0.112152,-0.36856 -0.138494,-0.55294 -0.01318,-0.0527 -0.01963,-0.099 -0.01963,-0.13849 v -0.15813 c 0,-0.61901 0.21055,-1.13918 0.632002,-1.56063 0.434623,-0.42145 0.954789,-0.632 1.560629,-0.632 0.342429,0 0.665501,0.0792 0.968415,0.23719 0.31609,0.14487 0.579406,0.35542 0.790133,0.632 0.07902,0.0922 0.158176,0.17133 0.237196,0.2372 0.07902,0.0527 0.157655,0.092 0.236678,0.11834 0.03951,0.0131 0.07934,0.0266 0.118856,0.0398 h 0.118338 c 0.223898,0 0.421515,-0.0791 0.59273,-0.2372 0.171217,-0.17121 0.256831,-0.36883 0.256831,-0.59273 0,-0.0922 -0.01992,-0.18427 -0.05943,-0.27646 -0.02635,-0.10536 -0.07212,-0.20443 -0.137975,-0.29663 -0.368771,-0.50047 -0.829706,-0.88226 -1.382862,-1.14566 -0.539986,-0.27658 -1.119902,-0.41497 -1.738911,-0.41496 z m -4.60334,12.24939 c -0.0028,0.0735 -0.0125,0.12676 -0.01963,0.19847 v 0.0987 0.0987 c 0,0.98778 0.348935,1.83101 1.046964,2.52905 0.698032,0.71119 1.547733,1.0666 2.548684,1.0666 1.000951,0 1.843667,-0.35541 2.528528,-1.0666 0.698031,-0.69803 1.046964,-1.52781 1.046964,-2.48925 v -0.0987 -0.11886 c 0,-0.0395 -0.0065,-0.0724 -0.01963,-0.0987 v -0.11834 z m 0.750858,0.77158 h 5.807913 c -0.06585,0.75072 -0.375467,1.38288 -0.928624,1.89654 -0.553159,0.50047 -1.211707,0.75033 -1.97559,0.75033 -0.750713,0 -1.408748,-0.24986 -1.975073,-0.75033 -0.553156,-0.51366 -0.862771,-1.14582 -0.928626,-1.89654 z"
           sodipodi:nodetypes="ccccssccsccccsccscccccccccccccccsssccccccsscsccscscccccccccccccscsccsscsccscsccccsscsccssccccsccccccccccccsscscccccscsccccccccscscscsccccccscc"
           inkscape:connector-curvature="0" />
      </g>
      <g
         id="g1236"
         transform="matrix(3.2605606,0,0,3.2605606,-232.30042,42.184924)">
        <path
           id="path22634"
           style="fill:#000000;fill-opacity:1;stroke:#282a36;stroke-width:0.370792;stroke-linecap:round;stroke-linejoin:round;stroke-miterlimit:4;stroke-dasharray:none;stroke-opacity:1"
           d="m 88.019371,65.570551 c -0.570418,0.240327 -0.883296,0.824884 -0.733274,1.438387 0.793566,-0.01766 1.567242,0.147409 2.25352,0.480943 0.263974,-0.363088 0.321611,-0.801119 0.14469,-1.221174 -0.276511,-0.656445 -1.021931,-0.969021 -1.664936,-0.698156 z"
           sodipodi:nodetypes="sccsss"
           inkscape:connector-curvature="0" />
        <path
           id="path22636"
           style="fill:#000000;fill-opacity:1;stroke:#282a36;stroke-width:0.370792;stroke-linecap:round;stroke-linejoin:round;stroke-miterlimit:4;stroke-dasharray:none;stroke-opacity:1"
           d="m 82.119795,67.993519 a 1.2897199,1.2633237 67.15752 0 1 1.568765,0.512784 4.5060458,4.9277786 67.15752 0 0 -1.230198,1.948407 1.2897199,1.2633237 67.15752 0 1 -1.002152,-0.782174 1.2897199,1.2633237 67.15752 0 1 0.663585,-1.679017 z"
           inkscape:connector-curvature="0" />
        <ellipse
           style="fill:#ffffff;fill-opacity:1;stroke:#282a36;stroke-width:0.375866;stroke-linecap:round;stroke-linejoin:round;stroke-miterlimit:4;stroke-dasharray:none;stroke-opacity:1"
           id="ellipse22638"
           cx="52.485001"
           cy="99.791519"
           rx="4.8933311"
           ry="4.5297704"
           transform="rotate(-22.842479)" />
        <path
           id="path22640"
           style="fill:#000000;fill-opacity:1;stroke:#282a36;stroke-width:0.0153218;stroke-linecap:round;stroke-linejoin:round;stroke-miterlimit:4;stroke-dasharray:none;stroke-opacity:1"
           d="m 84.915878,70.34564 a 1.3968909,2.1638581 9.1079653 0 0 -1.129904,1.966427 1.3968909,2.1638581 9.1079653 0 0 1.159848,2.211384 1.3968909,2.1638581 9.1079653 0 0 1.641407,-2.082704 1.3968909,2.1638581 9.1079653 0 0 -1.159849,-2.211384 1.3968909,2.1638581 9.1079653 0 0 -0.511502,0.11622 z m 6.43e-4,0.941582 c 0.217168,-0.0987 0.533575,-0.07498 0.653181,0.08424 -0.03669,0.01303 -0.194602,0.03807 -0.22846,0.05717 -0.321147,0.181941 -0.406671,0.449247 -0.224515,0.775906 0.154673,0.277233 0.485845,0.426278 0.78546,0.335575 -0.06367,0.08062 -0.138104,0.176588 -0.22713,0.227084 -0.349896,0.287379 -0.891257,0.07671 -1.112873,-0.321868 -0.217671,-0.390241 -0.07147,-0.918917 0.312119,-1.136463 l 2.03e-4,-2.46e-4 c 0.01346,-0.0072 0.02754,-0.01477 0.04201,-0.02142 z"
           inkscape:connector-curvature="0" />
        <path
           id="path22642"
           style="fill:#000000;fill-opacity:1;stroke:#282a36;stroke-width:0.0153218;stroke-linecap:round;stroke-linejoin:round;stroke-miterlimit:4;stroke-dasharray:none;stroke-opacity:1"
           d="m 87.754754,69.183286 a 2.1638581,1.3968909 35.207075 0 1 2.196342,0.565307 2.1638581,1.3968909 35.207075 0 1 0.771999,2.374757 2.1638581,1.3968909 35.207075 0 1 -2.636894,-0.280547 2.1638581,1.3968909 35.207075 0 1 -0.771987,-2.374758 2.1638581,1.3968909 35.207075 0 1 0.44054,-0.284759 z m 0.673247,0.658253 c -0.222378,0.08641 -0.42644,0.329353 -0.39607,0.526172 0.03482,-0.01722 0.163167,-0.112746 0.200534,-0.123455 0.354532,-0.102761 0.605545,0.02287 0.712017,0.381411 0.09032,0.304342 -0.03436,0.645416 -0.308627,0.79643 0.102267,0.01011 0.222838,0.0246 0.321152,-0.0044 0.450077,-0.04964 0.677488,-0.584152 0.547173,-1.021127 -0.127167,-0.428376 -0.607568,-0.693104 -1.031204,-0.570619 l -3.11e-4,-2.8e-5 c -0.01494,0.0044 -0.02988,0.0087 -0.0447,0.0152 z"
           inkscape:connector-curvature="0" />
        <ellipse
           style="fill:#000000;fill-opacity:1;stroke:#282a36;stroke-width:0.0185278;stroke-linecap:round;stroke-linejoin:round;stroke-miterlimit:4;stroke-dasharray:none;stroke-opacity:1"
           id="ellipse22644"
           cx="52.45475"
           cy="101.18794"
           rx="0.66118634"
           ry="0.52122915"
           transform="rotate(-22.842479)" />
        <path
           style="fill:none;stroke:#282a36;stroke-width:0.33913901;stroke-linecap:round;stroke-linejoin:miter;stroke-miterlimit:4;stroke-dasharray:none;stroke-opacity:1"
           d="m 87.804749,73.367696 c 0.183322,1.118415 -0.381776,1.515095 -0.968788,1.89063"
           id="path22646"
           sodipodi:nodetypes="cc"
           inkscape:connector-curvature="0" />
        <path
           style="fill:none;stroke:#282a36;stroke-width:0.33913901;stroke-linecap:round;stroke-linejoin:miter;stroke-miterlimit:4;stroke-dasharray:none;stroke-opacity:1"
           d="m 87.852217,73.347695 c 0.672156,0.912503 1.350759,0.7853 2.029556,0.627629"
           id="path22648"
           sodipodi:nodetypes="cc"
           inkscape:connector-curvature="0" />
      </g>
    </g>
  </g>
</svg>
