<?xml version="1.0" encoding="UTF-8" standalone="no"?>
<svg
   xmlns:dc="http://purl.org/dc/elements/1.1/"
   xmlns:cc="http://creativecommons.org/ns#"
   xmlns:rdf="http://www.w3.org/1999/02/22-rdf-syntax-ns#"
   xmlns:svg="http://www.w3.org/2000/svg"
   xmlns="http://www.w3.org/2000/svg"
   xmlns:sodipodi="http://sodipodi.sourceforge.net/DTD/sodipodi-0.dtd"
   xmlns:inkscape="http://www.inkscape.org/namespaces/inkscape"
   enable-background="new 0 0 24 24"
   height="56"
   viewBox="0 0 24 24"
   width="56"
   fill="#000000"
   version="1.1"
   id="svg6882"
   sodipodi:docname="accept.svg"
   inkscape:version="0.92.4 (5da689c313, 2019-01-14)">
  <metadata
     id="metadata6888">
    <rdf:RDF>
      <cc:Work
         rdf:about="">
        <dc:format>image/svg+xml</dc:format>
        <dc:type
           rdf:resource="http://purl.org/dc/dcmitype/StillImage" />
      </cc:Work>
    </rdf:RDF>
  </metadata>
  <defs
     id="defs6886" />
  <sodipodi:namedview
     pagecolor="#ffffff"
     bordercolor="#666666"
     borderopacity="1"
     objecttolerance="10"
     gridtolerance="10"
     guidetolerance="10"
     inkscape:pageopacity="0"
     inkscape:pageshadow="2"
     inkscape:window-width="1271"
     inkscape:window-height="732"
     id="namedview6884"
     showgrid="false"
     inkscape:zoom="4.2142857"
     inkscape:cx="28"
     inkscape:cy="28"
     inkscape:window-x="0"
     inkscape:window-y="0"
     inkscape:window-maximized="0"
     inkscape:current-layer="svg6882" />
  <rect
     fill="none"
     height="24"
     width="24"
     id="rect6878" />
  <path
     d="M 23.142026,4.6710128 11.147076,16.665963 c -0.467803,0.467803 -1.2234852,0.467803 -1.6912882,0 L 6.0612169,13.271392 c -0.467803,-0.467803 -0.467803,-1.223485 0,-1.691288 v 0 c 0.4678031,-0.467803 1.2234849,-0.467803 1.691288,0 L 10.295434,14.123033 21.438743,2.9797249 c 0.467803,-0.4678031 1.223485,-0.4678031 1.691288,0 v 0 c 0.479798,0.467803 0.479798,1.2234849 0.012,1.6912879 z M 16.520813,0.89260358 C 14.493667,0.06495203 12.190636,-0.22292678 9.7916464,0.20889143 4.9097017,1.0845228 1.0113429,5.0188664 0.18369138,9.9008111 -1.1837329,17.997402 5.557429,24.930483 13.60604,23.886923 c 4.750001,-0.611743 8.732324,-4.150253 9.979799,-8.768309 0.479798,-1.763257 0.527778,-3.46654 0.251894,-5.061869 C 23.681799,9.0971494 22.494298,8.725306 21.798591,9.4090181 v 0 c -0.275883,0.2758839 -0.395833,0.6837119 -0.323863,1.0675509 0.263889,1.595328 0.143939,3.298611 -0.623738,5.109848 -1.391414,3.250632 -4.414141,5.637627 -7.928662,5.961491 C 6.8049038,22.11167 1.7310399,16.929852 2.4867218,10.776442 3.0025046,6.5302301 6.4210654,3.0756845 10.655283,2.4879319 c 2.075126,-0.2878788 4.042298,0.1079546 5.721591,0.971591 0.467803,0.239899 1.031566,0.1559343 1.403409,-0.2159091 v 0 C 18.356041,2.6678562 18.212101,1.6962652 17.492404,1.3244218 17.168541,1.1804824 16.844677,1.024548 16.520813,0.89260358 Z"
     id="path6880"
     inkscape:connector-curvature="0"
     style="stroke-width:1.19949496" />
</svg>
