<?xml version="1.0" encoding="UTF-8" standalone="no"?>
<svg
   xmlns:dc="http://purl.org/dc/elements/1.1/"
   xmlns:cc="http://creativecommons.org/ns#"
   xmlns:rdf="http://www.w3.org/1999/02/22-rdf-syntax-ns#"
   xmlns:svg="http://www.w3.org/2000/svg"
   xmlns="http://www.w3.org/2000/svg"
   xmlns:sodipodi="http://sodipodi.sourceforge.net/DTD/sodipodi-0.dtd"
   xmlns:inkscape="http://www.inkscape.org/namespaces/inkscape"
   enable-background="new 0 0 24 24"
   height="56"
   viewBox="0 0 24 24"
   width="56"
   fill="#000000"
   version="1.1"
   id="svg4554"
   sodipodi:docname="admin_panel.svg"
   inkscape:version="0.92.4 (5da689c313, 2019-01-14)">
  <metadata
     id="metadata4560">
    <rdf:RDF>
      <cc:Work
         rdf:about="">
        <dc:format>image/svg+xml</dc:format>
        <dc:type
           rdf:resource="http://purl.org/dc/dcmitype/StillImage" />
      </cc:Work>
    </rdf:RDF>
  </metadata>
  <defs
     id="defs4558" />
  <sodipodi:namedview
     pagecolor="#ffffff"
     bordercolor="#666666"
     borderopacity="1"
     objecttolerance="10"
     gridtolerance="10"
     guidetolerance="10"
     inkscape:pageopacity="0"
     inkscape:pageshadow="2"
     inkscape:window-width="828"
     inkscape:window-height="480"
     id="namedview4556"
     showgrid="false"
     inkscape:zoom="4.2142857"
     inkscape:cx="28"
     inkscape:cy="28"
     inkscape:window-x="0"
     inkscape:window-y="0"
     inkscape:window-maximized="0"
     inkscape:current-layer="svg4554" />
  <g
     id="g4542">
    <rect
       fill="none"
       height="24"
       width="24"
       id="rect4540" />
  </g>
  <g
     id="g4552"
     transform="matrix(1.0714286,0,0,1.0714286,-0.92857143,-0.92857143)">
    <g
       id="g4550">
      <circle
         cx="17"
         cy="15.5"
         r="1.12"
         id="circle4544"
         style="fill-rule:evenodd" />
      <path
         d="m 17,17.5 c -0.73,0 -2.19,0.36 -2.24,1.08 0.5,0.71 1.32,1.17 2.24,1.17 0.92,0 1.74,-0.46 2.24,-1.17 C 19.19,17.86 17.73,17.5 17,17.5 Z"
         id="path4546"
         inkscape:connector-curvature="0"
         style="fill-rule:evenodd" />
      <path
         d="M 18,11.09 V 6.27 L 10.5,3 3,6.27 v 4.91 c 0,4.54 3.2,8.79 7.5,9.82 0.55,-0.13 1.08,-0.32 1.6,-0.55 1.08,1.54 2.87,2.55 4.9,2.55 3.31,0 6,-2.69 6,-6 0,-2.97 -2.16,-5.43 -5,-5.91 z M 11,17 c 0,0.56 0.08,1.11 0.23,1.62 -0.24,0.11 -0.48,0.22 -0.73,0.3 C 7.33,17.92 5,14.68 5,11.18 v -3.6 l 5.5,-2.4 5.5,2.4 v 3.51 c -2.84,0.48 -5,2.94 -5,5.91 z m 6,4 c -2.21,0 -4,-1.79 -4,-4 0,-2.21 1.79,-4 4,-4 2.21,0 4,1.79 4,4 0,2.21 -1.79,4 -4,4 z"
         id="path4548"
         inkscape:connector-curvature="0"
         style="fill-rule:evenodd" />
    </g>
  </g>
</svg>
