<?xml version="1.0" encoding="UTF-8" standalone="no"?>
<svg
   xmlns:dc="http://purl.org/dc/elements/1.1/"
   xmlns:cc="http://creativecommons.org/ns#"
   xmlns:rdf="http://www.w3.org/1999/02/22-rdf-syntax-ns#"
   xmlns:svg="http://www.w3.org/2000/svg"
   xmlns="http://www.w3.org/2000/svg"
   xmlns:sodipodi="http://sodipodi.sourceforge.net/DTD/sodipodi-0.dtd"
   xmlns:inkscape="http://www.inkscape.org/namespaces/inkscape"
   class="ionicon"
   viewBox="0 0 16 16"
   version="1.1"
   id="svg895"
   sodipodi:docname="bug.svg"
   width="16"
   height="16"
   inkscape:version="0.92.4 (5da689c313, 2019-01-14)">
  <metadata
     id="metadata901">
    <rdf:RDF>
      <cc:Work
         rdf:about="">
        <dc:format>image/svg+xml</dc:format>
        <dc:type
           rdf:resource="http://purl.org/dc/dcmitype/StillImage" />
        <dc:title>Bug</dc:title>
      </cc:Work>
    </rdf:RDF>
  </metadata>
  <defs
     id="defs899" />
  <sodipodi:namedview
     pagecolor="#ffffff"
     bordercolor="#666666"
     borderopacity="1"
     objecttolerance="10"
     gridtolerance="10"
     guidetolerance="10"
     inkscape:pageopacity="0"
     inkscape:pageshadow="2"
     inkscape:window-width="1419"
     inkscape:window-height="731"
     id="namedview897"
     showgrid="false"
     inkscape:zoom="29.5"
     inkscape:cx="8.7211117"
     inkscape:cy="7.5608822"
     inkscape:window-x="369"
     inkscape:window-y="60"
     inkscape:window-maximized="0"
     inkscape:current-layer="svg895" />
  <title
     id="title887">Bug</title>
  <path
     d="m 12.067209,12.350948 c 1.030717,0.839589 1.641156,1.644553 1.641156,3.069927 M 3.9327893,12.350948 c -1.030717,0.839589 -1.641155,1.644196 -1.641155,3.069927 M 12.566691,6.2824858 c 1.030716,-0.839589 1.141674,-2.001521 1.141674,-3.426895 M 3.4333073,6.2110928 c -1.030717,-0.83959 -1.141673,-1.929771 -1.141673,-3.355502 m 13.1292397,6.287282 h -2.854183 m -9.1333837,0 H 0.57912525 M 7.9999993,5.7113368 v 9.1383892"
     id="path889"
     inkscape:connector-curvature="0"
     style="fill:none;stroke:currentColor;stroke-width:1.14198577;stroke-linecap:round;stroke-linejoin:round" />
  <path
     d="m 7.9999993,14.849726 v 0 c -2.511681,0 -4.566692,-2.056138 -4.566692,-4.569195 V 6.8511368 c 0,-2.322793 2.055011,-3.426896 4.566692,-3.426896 v 0 c 2.5116807,0 4.5666917,0.913839 4.5666917,3.426896 v 3.4293942 c 0,2.513057 -2.055011,4.569195 -4.5666917,4.569195 z"
     id="path891"
     inkscape:connector-curvature="0"
     style="fill:none;stroke:currentColor;stroke-width:1.14198577;stroke-linecap:round;stroke-linejoin:round" />
  <path
     d="m 5.2681893,3.9807548 a 1.7510411,1.7520005 0 0 1 -0.122378,-0.561511 2.8541826,2.8557465 0 0 1 2.84669,-2.84825108 h 0.01499 a 2.8541826,2.8557465 0 0 1 2.8466897,2.84825108 1.4952349,1.4960542 0 0 1 -0.111306,0.510464"
     id="path893"
     inkscape:connector-curvature="0"
     style="fill:none;stroke:currentColor;stroke-width:1.14198577;stroke-linecap:round;stroke-linejoin:round" />
</svg>
