<?xml version="1.0" encoding="UTF-8" standalone="no"?>
<svg
   xmlns:dc="http://purl.org/dc/elements/1.1/"
   xmlns:cc="http://creativecommons.org/ns#"
   xmlns:rdf="http://www.w3.org/1999/02/22-rdf-syntax-ns#"
   xmlns:svg="http://www.w3.org/2000/svg"
   xmlns="http://www.w3.org/2000/svg"
   xmlns:sodipodi="http://sodipodi.sourceforge.net/DTD/sodipodi-0.dtd"
   xmlns:inkscape="http://www.inkscape.org/namespaces/inkscape"
   height="56"
   viewBox="0 0 24 24"
   width="56"
   fill="#000000"
   version="1.1"
   id="svg855"
   sodipodi:docname="close.svg"
   inkscape:version="0.92.4 (5da689c313, 2019-01-14)">
  <metadata
     id="metadata861">
    <rdf:RDF>
      <cc:Work
         rdf:about="">
        <dc:format>image/svg+xml</dc:format>
        <dc:type
           rdf:resource="http://purl.org/dc/dcmitype/StillImage" />
      </cc:Work>
    </rdf:RDF>
  </metadata>
  <defs
     id="defs859" />
  <sodipodi:namedview
     pagecolor="#ffffff"
     bordercolor="#666666"
     borderopacity="1"
     objecttolerance="10"
     gridtolerance="10"
     guidetolerance="10"
     inkscape:pageopacity="0"
     inkscape:pageshadow="2"
     inkscape:window-width="1288"
     inkscape:window-height="741"
     id="namedview857"
     showgrid="false"
     inkscape:zoom="4.2142857"
     inkscape:cx="5.9892702"
     inkscape:cy="-0.74314899"
     inkscape:window-x="0"
     inkscape:window-y="0"
     inkscape:window-maximized="0"
     inkscape:current-layer="svg855" />
  <path
     d="M0 0h24v24H0V0z"
     fill="none"
     id="path851" />
  <path
     d="m 23.467577,0.55062571 c -0.709898,-0.70989761 -1.856655,-0.70989761 -2.566553,0 L 12,9.4334471 3.0989761,0.53242321 c -0.7098976,-0.70989761 -1.8566553,-0.70989761 -2.56655289,0 -0.70989761,0.70989759 -0.70989761,1.85665529 0,2.56655289 L 9.4334471,12 0.53242321,20.901024 c -0.70989761,0.709898 -0.70989761,1.856655 0,2.566553 0.70989759,0.709897 1.85665529,0.709897 2.56655289,0 L 12,14.566553 l 8.901024,8.901024 c 0.709898,0.709897 1.856655,0.709897 2.566553,0 0.709897,-0.709898 0.709897,-1.856655 0,-2.566553 L 14.566553,12 23.467577,3.0989761 c 0.691695,-0.6916951 0.691695,-1.8566553 0,-2.54835039 z"
     id="path853"
     inkscape:connector-curvature="0"
     style="stroke-width:1.82025027" />
</svg>
