<svg xmlns="http://www.w3.org/2000/svg" viewBox="0 0 50.909088 56"><path fill="none" d="M13.454545 16h24v24h-24z"/><path d="M12.727272 5.090909H5.0909086v7.636364H0V0h12.727272Zm38.181818 7.636364V0H38.181818v5.090909h7.636363v7.636364zM12.727272 50.909091H5.0909086v-7.636364H0V56h12.727272zm33.090909-7.636364v7.636364h-7.636363V56H50.90909V43.272727Zm-7.636363-30.545454H12.727272v30.545454h25.454546zm5.090909 30.545454c0 2.8-2.290909 5.090909-5.090909 5.090909H12.727272c-2.7999997 0-5.0909088-2.290909-5.0909088-5.090909V12.727273c0-2.8000003 2.2909091-5.0909094 5.0909088-5.0909094h25.454546c2.8 0 5.090909 2.2909091 5.090909 5.0909094zM33.090909 17.818182H17.818181v5.090909h15.272728zm0 7.636364H17.818181v5.090909h15.272728zm0 7.636363H17.818181v5.090909h15.272728z"/></svg>
