<?xml version="1.0" encoding="UTF-8" standalone="no"?>
<svg
   xmlns:dc="http://purl.org/dc/elements/1.1/"
   xmlns:cc="http://creativecommons.org/ns#"
   xmlns:rdf="http://www.w3.org/1999/02/22-rdf-syntax-ns#"
   xmlns:svg="http://www.w3.org/2000/svg"
   xmlns="http://www.w3.org/2000/svg"
   xmlns:sodipodi="http://sodipodi.sourceforge.net/DTD/sodipodi-0.dtd"
   xmlns:inkscape="http://www.inkscape.org/namespaces/inkscape"
   height="56"
   viewBox="0 0 24 24"
   width="56"
   fill="#000000"
   version="1.1"
   id="svg1989"
   sodipodi:docname="fullscreen.svg"
   inkscape:version="0.92.4 (5da689c313, 2019-01-14)">
  <metadata
     id="metadata1995">
    <rdf:RDF>
      <cc:Work
         rdf:about="">
        <dc:format>image/svg+xml</dc:format>
        <dc:type
           rdf:resource="http://purl.org/dc/dcmitype/StillImage" />
      </cc:Work>
    </rdf:RDF>
  </metadata>
  <defs
     id="defs1993" />
  <sodipodi:namedview
     pagecolor="#ffffff"
     bordercolor="#666666"
     borderopacity="1"
     objecttolerance="10"
     gridtolerance="10"
     guidetolerance="10"
     inkscape:pageopacity="0"
     inkscape:pageshadow="2"
     inkscape:window-width="1203"
     inkscape:window-height="703"
     id="namedview1991"
     showgrid="false"
     inkscape:zoom="4.2142857"
     inkscape:cx="28"
     inkscape:cy="28"
     inkscape:window-x="0"
     inkscape:window-y="0"
     inkscape:window-maximized="0"
     inkscape:current-layer="svg1989" />
  <path
     d="M0 0h24v24H0V0z"
     fill="none"
     id="path1985" />
  <path
     d="M 1.7142857,15.428571 C 0.77142857,15.428571 0,16.2 0,17.142857 v 5.142857 C 0,23.228571 0.77142857,24 1.7142857,24 H 6.8571429 C 7.8,24 8.5714286,23.228571 8.5714286,22.285714 8.5714286,21.342857 7.8,20.571429 6.8571429,20.571429 H 3.4285714 v -3.428572 c 0,-0.942857 -0.7714285,-1.714286 -1.7142857,-1.714286 z m 0,-6.8571424 C 2.6571429,8.5714286 3.4285714,7.8 3.4285714,6.8571429 V 3.4285714 H 6.8571429 C 7.8,3.4285714 8.5714286,2.6571429 8.5714286,1.7142857 8.5714286,0.77142857 7.8,0 6.8571429,0 H 1.7142857 C 0.77142857,0 0,0.77142857 0,1.7142857 V 6.8571429 C 0,7.8 0.77142857,8.5714286 1.7142857,8.5714286 Z M 20.571429,20.571429 h -3.428572 c -0.942857,0 -1.714286,0.771428 -1.714286,1.714285 C 15.428571,23.228571 16.2,24 17.142857,24 h 5.142857 C 23.228571,24 24,23.228571 24,22.285714 V 17.142857 C 24,16.2 23.228571,15.428571 22.285714,15.428571 c -0.942857,0 -1.714285,0.771429 -1.714285,1.714286 z M 15.428571,1.7142857 c 0,0.9428572 0.771429,1.7142857 1.714286,1.7142857 h 3.428572 v 3.4285715 c 0,0.9428571 0.771428,1.7142857 1.714285,1.7142857 C 23.228571,8.5714286 24,7.8 24,6.8571429 V 1.7142857 C 24,0.77142857 23.228571,0 22.285714,0 H 17.142857 C 16.2,0 15.428571,0.77142857 15.428571,1.7142857 Z"
     id="path1987"
     inkscape:connector-curvature="0"
     style="stroke-width:1.71428573" />
</svg>
