<?xml version="1.0" encoding="UTF-8" standalone="no"?>
<svg
   xmlns:dc="http://purl.org/dc/elements/1.1/"
   xmlns:cc="http://creativecommons.org/ns#"
   xmlns:rdf="http://www.w3.org/1999/02/22-rdf-syntax-ns#"
   xmlns:svg="http://www.w3.org/2000/svg"
   xmlns="http://www.w3.org/2000/svg"
   xmlns:sodipodi="http://sodipodi.sourceforge.net/DTD/sodipodi-0.dtd"
   xmlns:inkscape="http://www.inkscape.org/namespaces/inkscape"
   height="56"
   viewBox="0 0 24 24"
   width="56"
   fill="#000000"
   version="1.1"
   id="svg17387"
   sodipodi:docname="help.svg"
   inkscape:version="0.92.4 (5da689c313, 2019-01-14)">
  <metadata
     id="metadata17393">
    <rdf:RDF>
      <cc:Work
         rdf:about="">
        <dc:format>image/svg+xml</dc:format>
        <dc:type
           rdf:resource="http://purl.org/dc/dcmitype/StillImage" />
      </cc:Work>
    </rdf:RDF>
  </metadata>
  <defs
     id="defs17391" />
  <sodipodi:namedview
     pagecolor="#ffffff"
     bordercolor="#666666"
     borderopacity="1"
     objecttolerance="10"
     gridtolerance="10"
     guidetolerance="10"
     inkscape:pageopacity="0"
     inkscape:pageshadow="2"
     inkscape:window-width="933"
     inkscape:window-height="480"
     id="namedview17389"
     showgrid="false"
     inkscape:zoom="4.2142857"
     inkscape:cx="28"
     inkscape:cy="28"
     inkscape:window-x="0"
     inkscape:window-y="0"
     inkscape:window-maximized="0"
     inkscape:current-layer="svg17387" />
  <path
     d="M0 0h24v24H0V0z"
     fill="none"
     id="path17383" />
  <path
     d="M 12,0 C 5.376,0 0,5.376 0,12 0,18.624 5.376,24 12,24 18.624,24 24,18.624 24,12 24,5.376 18.624,0 12,0 Z m 0,21.6 C 6.708,21.6 2.4,17.292 2.4,12 2.4,6.708 6.708,2.4 12,2.4 c 5.292,0 9.6,4.308 9.6,9.6 0,5.292 -4.308,9.6 -9.6,9.6 z m -1.2,-4.8 h 2.4 v 2.4 H 10.8 Z M 12.732,4.848 C 10.26,4.488 8.076,6.012 7.416,8.196 7.2,8.892 7.728,9.6 8.46,9.6 H 8.7 c 0.492,0 0.888,-0.348 1.056,-0.804 0.384,-1.068 1.524,-1.8 2.76,-1.536 1.14,0.24 1.98,1.356 1.884,2.52 -0.12,1.608 -1.944,1.956 -2.94,3.456 0,0.012 -0.012,0.012 -0.012,0.024 -0.012,0.024 -0.024,0.036 -0.036,0.06 -0.108,0.18 -0.216,0.384 -0.3,0.6 -0.012,0.036 -0.036,0.06 -0.048,0.096 -0.012,0.024 -0.012,0.048 -0.024,0.084 -0.144,0.408 -0.24,0.9 -0.24,1.5 h 2.4 c 0,-0.504 0.132,-0.924 0.336,-1.284 0.024,-0.036 0.036,-0.072 0.06,-0.108 0.096,-0.168 0.216,-0.324 0.336,-0.468 0.012,-0.012 0.024,-0.036 0.036,-0.048 0.12,-0.144 0.252,-0.276 0.396,-0.408 1.152,-1.092 2.712,-1.98 2.388,-4.272 C 16.464,6.924 14.82,5.16 12.732,4.848 Z"
     id="path17385"
     inkscape:connector-curvature="0"
     style="stroke-width:1.20000005" />
</svg>
