<svg xmlns="http://www.w3.org/2000/svg" class="ionicon" viewBox="0 0 20 20">
  <defs/>
  <path fill="none" stroke="currentColor" stroke-linecap="round" stroke-linejoin="round" stroke-width="1.53863" d="M16.152665 8.4581515v8.8488695a1.9229188 1.9236661 0 01-1.92292 1.92366H2.692235a1.9229188 1.9236661 0 01-1.92292-1.92366V5.7650215a1.9229188 1.9236661 0 011.92292-1.92367h8.02818"/>
  <path d="M19.806215.23448146a.76916751.76946643 0 00-1.10568 0l-.62495.5771a.38458375.38473321 0 000 .52901004l.57687.5771a.38458375.38473321 0 00.52881 0l.57687-.5771c.28844-.28855.33651-.76947004.0481-1.10611004zm-2.93245 1.77939004l-8.65314 8.6564995a.43265672.43282487 0 00-.0961.19236l-.43265 1.2023a.19229188.19236661 0 00.24036.24045l1.20183-.38473a.43265672.43282487 0 00.19229-.14427l8.65313-8.6564995a.43265672.43282487 0 000-.62519l-.48073-.48092a.43265672.43282487 0 00-.62494 0z"/>
</svg>
