<?xml version="1.0" encoding="UTF-8" standalone="no"?>
<svg
   xmlns:osb="http://www.openswatchbook.org/uri/2009/osb"
   xmlns:dc="http://purl.org/dc/elements/1.1/"
   xmlns:cc="http://creativecommons.org/ns#"
   xmlns:rdf="http://www.w3.org/1999/02/22-rdf-syntax-ns#"
   xmlns:svg="http://www.w3.org/2000/svg"
   xmlns="http://www.w3.org/2000/svg"
   xmlns:sodipodi="http://sodipodi.sourceforge.net/DTD/sodipodi-0.dtd"
   xmlns:inkscape="http://www.inkscape.org/namespaces/inkscape"
   class="ionicon"
   viewBox="0 0 20 20"
   version="1.1"
   id="svg845"
   sodipodi:docname="delete_import.svg"
   inkscape:version="0.92.4 (5da689c313, 2019-01-14)"
   inkscape:export-filename="C:\Users\schwa-al\Documents\ICONS TSL\Importieren löschen.png"
   inkscape:export-xdpi="300"
   inkscape:export-ydpi="300"
   width="20"
   height="20">
  <metadata
     id="metadata851">
    <rdf:RDF>
      <cc:Work
         rdf:about="">
        <dc:format>image/svg+xml</dc:format>
        <dc:type
           rdf:resource="http://purl.org/dc/dcmitype/StillImage" />
        <dc:title>Enter</dc:title>
      </cc:Work>
    </rdf:RDF>
  </metadata>
  <defs
     id="defs849">
    <linearGradient
       id="linearGradient2828"
       osb:paint="solid">
      <stop
         style="stop-color:#201900;stop-opacity:1;"
         offset="0"
         id="stop2826" />
    </linearGradient>
  </defs>
  <sodipodi:namedview
     pagecolor="#ffffff"
     bordercolor="#666666"
     borderopacity="1"
     objecttolerance="10"
     gridtolerance="10"
     guidetolerance="10"
     inkscape:pageopacity="0"
     inkscape:pageshadow="2"
     inkscape:window-width="1920"
     inkscape:window-height="1001"
     id="namedview847"
     showgrid="false"
     inkscape:zoom="26.5"
     inkscape:cx="5.0873233"
     inkscape:cy="5.945253"
     inkscape:window-x="-9"
     inkscape:window-y="-9"
     inkscape:window-maximized="1"
     inkscape:current-layer="svg845"
     inkscape:snap-global="false"
     inkscape:document-rotation="0" />
  <title
     id="title839">Enter</title>
  <path
     d="M 15.155526,5.074229"
     id="path841"
     inkscape:connector-curvature="0"
     style="fill:none;stroke:currentColor;stroke-width:1.92773509;stroke-linecap:round;stroke-linejoin:round" />
  <path
     id="rect2836"
     style="fill:#000000;fill-opacity:1;stroke-width:0.00156651;stroke-opacity:0.97855201"
     d="m 10.647409,4.773179 c -0.226541,0.005 -0.449449,0.13073 -0.602152,0.36799 -0.2714784,0.42178 -0.2153294,1.03146 0.125955,1.36697 l 3.415334,3.35745 -3.508166,3.20809 c -0.3505584,0.32059 -0.4238704,0.92743 -0.1644764,1.36068 0.2593934,0.43324 0.7504264,0.52396 1.1009844,0.20339 l 3.847133,-3.51812 3.745442,3.682 c 0.34129,0.33551 0.83461,0.26599 1.10609,-0.15579 0.27147,-0.42179 0.21533,-1.03134 -0.12596,-1.36685 l -3.41533,-3.35758 3.50806,-3.20809 c 0.35056,-0.32058 0.42397,-0.92743 0.16458,-1.36067 -0.25939,-0.43325 -0.75043,-0.52384 -1.10099,-0.20327 l -3.847226,3.51811 -3.745441,-3.68212 c -0.149315,-0.14678 -0.327631,-0.21602 -0.503837,-0.21219 z"
     inkscape:connector-curvature="0" />
  <rect
     style="fill:#000000;fill-opacity:1;stroke-width:0.00136681;stroke-opacity:0.97855201"
     id="rect2836-4-7-2"
     width="9.5135508"
     height="1.9235296"
     x="0.0063032461"
     y="-5.2087278"
     ry="0.96176481"
     transform="matrix(0.99999825,0.00187263,0.00148335,-0.9999989,0,0)" />
  <rect
     style="fill:#000000;fill-opacity:1;stroke-width:0.0013594;stroke-opacity:0.97855201"
     id="rect2836-4-7-2-5"
     width="9.4106731"
     height="1.9235295"
     x="0.022777198"
     y="-16.483978"
     ry="0.96176475"
     transform="matrix(0.99999821,0.00189311,0.00146731,-0.99999892,0,0)" />
  <rect
     style="fill:#000000;fill-opacity:1;stroke-width:0.00138085;stroke-opacity:0.97855201"
     id="rect2836-4-7-2-0"
     width="9.7098551"
     height="1.9235299"
     x="0.017813211"
     y="-12.725306"
     ry="0.96176493"
     transform="matrix(0.99999832,0.00183477,0.00151395,-0.99999885,0,0)" />
  <rect
     style="fill:#000000;fill-opacity:1;stroke-width:0.00138066;stroke-opacity:0.97855201"
     id="rect2836-4-7-2-0-0"
     width="9.7072697"
     height="1.9235299"
     x="0.012117956"
     y="-8.967371"
     ry="0.96176493"
     transform="matrix(0.99999832,0.00183526,0.00151355,-0.99999885,0,0)" />
</svg>
