<?xml version="1.0" encoding="UTF-8" standalone="no"?>
<svg
   xmlns:osb="http://www.openswatchbook.org/uri/2009/osb"
   xmlns:dc="http://purl.org/dc/elements/1.1/"
   xmlns:cc="http://creativecommons.org/ns#"
   xmlns:rdf="http://www.w3.org/1999/02/22-rdf-syntax-ns#"
   xmlns:svg="http://www.w3.org/2000/svg"
   xmlns="http://www.w3.org/2000/svg"
   xmlns:sodipodi="http://sodipodi.sourceforge.net/DTD/sodipodi-0.dtd"
   xmlns:inkscape="http://www.inkscape.org/namespaces/inkscape"
   class="ionicon"
   viewBox="0 0 20 20"
   version="1.1"
   id="svg845"
   sodipodi:docname="import.svg"
   inkscape:version="0.92.4 (5da689c313, 2019-01-14)"
   width="20"
   height="20">
  <metadata
     id="metadata851">
    <rdf:RDF>
      <cc:Work
         rdf:about="">
        <dc:format>image/svg+xml</dc:format>
        <dc:type
           rdf:resource="http://purl.org/dc/dcmitype/StillImage" />
        <dc:title>Enter</dc:title>
      </cc:Work>
    </rdf:RDF>
  </metadata>
  <defs
     id="defs849">
    <linearGradient
       id="linearGradient2828"
       osb:paint="solid">
      <stop
         style="stop-color:#201900;stop-opacity:1;"
         offset="0"
         id="stop2826" />
    </linearGradient>
  </defs>
  <sodipodi:namedview
     pagecolor="#ffffff"
     bordercolor="#666666"
     borderopacity="1"
     objecttolerance="10"
     gridtolerance="10"
     guidetolerance="10"
     inkscape:pageopacity="0"
     inkscape:pageshadow="2"
     inkscape:window-width="1920"
     inkscape:window-height="1001"
     id="namedview847"
     showgrid="false"
     inkscape:zoom="13.25"
     inkscape:cx="8.2592129"
     inkscape:cy="18.488039"
     inkscape:window-x="-9"
     inkscape:window-y="-9"
     inkscape:window-maximized="1"
     inkscape:current-layer="svg845"
     inkscape:snap-global="false"
     inkscape:document-rotation="0" />
  <title
     id="title839">Enter</title>
  <path
     d="M 12.729698,5.9029281"
     id="path841"
     inkscape:connector-curvature="0"
     style="fill:none;stroke:currentColor;stroke-width:1.61919904;stroke-linecap:round;stroke-linejoin:round" />
  <rect
     style="fill:#000000;fill-opacity:1;stroke-width:0.00144612;stroke-opacity:0.97855201"
     id="rect2836"
     width="12.678636"
     height="1.6156889"
     x="-19.999998"
     y="9.144166"
     ry="0.80784446"
     transform="scale(-1,1)" />
  <path
     id="rect2836-4-7"
     style="fill:#000000;fill-opacity:1;stroke-width:0.00110051;stroke-opacity:0.97855201"
     d="m 11.113958,5.3345181 c 0.316031,0.3169 0.31522,0.82627 -0.0019,1.14209 l -3.4809621,3.46684 3.4708991,3.4850199 c 0.315816,0.3171 0.314937,0.82681 -0.002,1.14285 -0.316894,0.31603 -0.826265,0.31508 -1.1420821,-0.002 l -3.970695,-3.98691 c -0.02621,-0.0205 -0.05177,-0.0422 -0.07589,-0.0664 -0.316031,-0.3169 -0.31522,-0.8262699 0.0019,-1.1420799 l 0.0051,-0.005 2.02e-4,-2e-4 c 5.1e-5,-5e-5 1.52e-4,-1.5e-4 2.02e-4,-2e-4 l 4.052318,-4.03583 c 0.3171061,-0.31581 0.8268191,-0.31493 1.1428501,0.002 z"
     inkscape:connector-curvature="0" />
  <rect
     style="fill:#000000;fill-opacity:1;stroke-width:0.00110051;stroke-opacity:0.97855201"
     id="rect2836-4-7-2"
     width="7.3427086"
     height="1.6156882"
     x="0.0070994096"
     y="-6.015882"
     ry="0.8078441"
     transform="matrix(0.99999792,0.00203797,0.00136301,-0.99999907,0,0)" />
  <rect
     style="fill:#000000;fill-opacity:1;stroke-width:0.00110051;stroke-opacity:0.97855201"
     id="rect2836-4-7-2-5"
     width="7.3427086"
     height="1.6156882"
     x="0.020008346"
     y="-15.486654"
     ry="0.8078441"
     transform="matrix(0.99999792,0.00203797,0.00136301,-0.99999907,0,0)" />
  <rect
     style="fill:#000000;fill-opacity:1;stroke-width:0.00093731;stroke-opacity:0.97855201"
     id="rect2836-4-7-2-0"
     width="5.326354"
     height="1.6156875"
     x="0.011394414"
     y="-12.329525"
     ry="0.80784374"
     transform="matrix(0.99999605,0.00280947,9.8871729e-4,-0.99999951,0,0)" />
  <rect
     style="fill:#000000;fill-opacity:1;stroke-width:0.00093731;stroke-opacity:0.97855201"
     id="rect2836-4-7-2-0-0"
     width="5.326354"
     height="1.6156875"
     x="0.0082739918"
     y="-9.1730156"
     ry="0.80784374"
     transform="matrix(0.99999605,0.00280947,9.8871729e-4,-0.99999951,0,0)" />
</svg>
