<?xml version="1.0" encoding="UTF-8" standalone="no"?>
<svg
   xmlns:dc="http://purl.org/dc/elements/1.1/"
   xmlns:cc="http://creativecommons.org/ns#"
   xmlns:rdf="http://www.w3.org/1999/02/22-rdf-syntax-ns#"
   xmlns:svg="http://www.w3.org/2000/svg"
   xmlns="http://www.w3.org/2000/svg"
   xmlns:sodipodi="http://sodipodi.sourceforge.net/DTD/sodipodi-0.dtd"
   xmlns:inkscape="http://www.inkscape.org/namespaces/inkscape"
   width="20"
   height="20"
   viewBox="0 0 5.2916665 5.2916668"
   version="1.1"
   id="svg4169"
   inkscape:version="0.92.4 (5da689c313, 2019-01-14)"
   sodipodi:docname="icon_PSE.svg">
  <defs
     id="defs4163" />
  <sodipodi:namedview
     id="base"
     pagecolor="#ffffff"
     bordercolor="#666666"
     borderopacity="1.0"
     inkscape:pageopacity="0.0"
     inkscape:pageshadow="2"
     inkscape:zoom="40.96"
     inkscape:cx="11.083075"
     inkscape:cy="8.4844675"
     inkscape:document-units="mm"
     inkscape:current-layer="layer1"
     inkscape:document-rotation="0"
     showgrid="false"
     inkscape:showpageshadow="false"
     showborder="true"
     fit-margin-top="0"
     fit-margin-left="0"
     fit-margin-right="0"
     fit-margin-bottom="0"
     inkscape:window-width="1920"
     inkscape:window-height="1001"
     inkscape:window-x="-9"
     inkscape:window-y="-9"
     inkscape:window-maximized="1"
     units="px" />
  <metadata
     id="metadata4166">
    <rdf:RDF>
      <cc:Work
         rdf:about="">
        <dc:format>image/svg+xml</dc:format>
        <dc:type
           rdf:resource="http://purl.org/dc/dcmitype/StillImage" />
        <dc:title></dc:title>
      </cc:Work>
    </rdf:RDF>
  </metadata>
  <g
     inkscape:label="Ebene 1"
     inkscape:groupmode="layer"
     id="layer1"
     transform="translate(0,-291.70832)">
    <g
       aria-label="P"
       transform="matrix(0.07758005,0,0,0.10874621,-5.16507,282.15642)"
       id="text2748"
       style="font-style:normal;font-variant:normal;font-weight:normal;font-stretch:normal;font-size:23.11429977px;line-height:1.25;font-family:'Microsoft Sans Serif';-inkscape-font-specification:'Microsoft Sans Serif';fill:#000000;stroke-width:62.18149948;stroke-miterlimit:4;stroke-dasharray:none">
      <path
         d="m 72.536407,103.99482 h 6.173595 c 1.354353,0 2.486743,0.13046 3.39717,0.3914 0.917951,0.25325 1.644035,0.80964 2.178252,1.66917 0.534217,0.85186 0.530914,1.80731 0.530914,2.86636 0,1.70371 -0.260044,2.99684 -1.320954,3.87939 -1.06091,0.88255 -2.595844,1.32382 -4.604802,1.32382 h -4.164637 v 6.74576 h -2.189538 z m 2.189538,8.12714 h 4.18721 c 1.407023,0 2.140046,-0.43233 2.734457,-0.96954 0.601935,-0.5372 0.724815,-1.00845 0.724815,-2.02147 0,-0.67534 0.01256,-1.5778 -0.318509,-2.09966 -0.331064,-0.52185 -0.484725,-0.68812 -0.99637,-0.82625 -0.504121,-0.13814 -1.233967,-0.20721 -2.189538,-0.20721 h -4.142065 z"
         style="font-style:normal;font-variant:normal;font-weight:normal;font-stretch:normal;font-family:'Microsoft Sans Serif';-inkscape-font-specification:'Microsoft Sans Serif';fill:#000000;stroke-width:62.18149948;stroke-miterlimit:4;stroke-dasharray:none"
         id="path2750"
         sodipodi:nodetypes="csccssscccccscsscscc"
         inkscape:connector-curvature="0" />
    </g>
    <text
       xml:space="preserve"
       style="font-style:normal;font-variant:normal;font-weight:normal;font-stretch:normal;font-size:2.58525205px;line-height:1.25;font-family:'MS UI Gothic';-inkscape-font-specification:'MS UI Gothic';fill:#000000;stroke-width:0.04847357"
       x="1.7071381"
       y="254.04083"
       id="text2755"
       transform="scale(0.85994453,1.1628657)"><tspan
         sodipodi:role="line"
         id="tspan2753"
         x="1.7071381"
         y="254.04083"
         style="font-style:normal;font-variant:normal;font-weight:normal;font-stretch:normal;font-family:'MS UI Gothic';-inkscape-font-specification:'MS UI Gothic';fill:#000000;stroke-width:0.04847357">S</tspan></text>
    <text
       xml:space="preserve"
       style="font-style:normal;font-variant:normal;font-weight:bold;font-stretch:normal;font-size:1.4806993px;line-height:1.25;font-family:Arial;-inkscape-font-specification:'Arial Bold';fill:none;stroke-width:0.02776306;"
       x="3.0733798"
       y="294.90247"
       id="text2768"><tspan
         sodipodi:role="line"
         id="tspan2766"
         x="3.0733798"
         y="294.90247"
         style="font-style:normal;font-variant:normal;font-weight:bold;font-stretch:normal;font-family:Arial;-inkscape-font-specification:'Arial Bold';fill:none;stroke-width:0.02776306;">E</tspan></text>
    <g
       id="g2851"
       style="fill:none;stroke-width:0.5;stroke-miterlimit:4;stroke-dasharray:none"
       transform="matrix(0.08094916,0,0,0.08094916,-10.083001,284.4387)">
      <path
         id="path2824"
         style="fill:none;fill-opacity:1;stroke:#000000;stroke-width:0.903;stroke-linecap:round;stroke-miterlimit:4;stroke-dasharray:none;stroke-opacity:1"
         inkscape:transform-center-x="-2.3602775e-06"
         d="m 162.29494,97.36608 11.54873,0.0615 15.51236,14.98161 0.12132,21.30568 -15.34079,15.14917 -11.8417,0.0781"
         sodipodi:nodetypes="cccccc"
         inkscape:connector-curvature="0" />
      <path
         id="path2824-1"
         style="display:inline;fill:none;fill-opacity:1;stroke:#000000;stroke-width:0.5;stroke-linecap:round;stroke-miterlimit:4;stroke-dasharray:none;stroke-opacity:1"
         inkscape:transform-center-x="3.2001555e-05"
         d="m 162.12955,106.36246 8.18502,-0.0501 9.01845,9.81367 0.0705,13.95624 -8.9187,9.92343 -8.35535,0.0511"
         inkscape:transform-center-y="-1.1891386e-05"
         inkscape:connector-curvature="0" />
    </g>
    <path
       id="rect2853"
       style="fill:none;fill-opacity:1;stroke:#000000;stroke-width:0.06500217;stroke-linecap:round;stroke-miterlimit:4;stroke-dasharray:none;stroke-opacity:1"
       d="m 0.03250109,292.31668 3.00097101,-0.47396 v 5.11897 l -3.00097101,-0.49502 z"
       sodipodi:nodetypes="ccccc"
       inkscape:connector-curvature="0" />
    <path
       style="fill:#000000;fill-opacity:1;stroke:#000000;stroke-width:0.01996389;stroke-linecap:round;stroke-miterlimit:4;stroke-dasharray:none;stroke-opacity:1"
       d="m 3.0595391,294.42582 v -1.34423 l 0.0553,-0.007 c 0.03041,-0.004 0.172143,-0.007 0.314957,-0.007 l 0.259662,-8e-5 0.359117,0.39342 0.359118,0.39342 v 0.39431 c 0,0.21687 0.0031,0.46556 0.0068,0.55266 l 0.0068,0.15836 -0.354382,0.39697 -0.354383,0.39698 -0.155354,0.007 c -0.08544,0.004 -0.232371,0.007 -0.326505,0.008 l -0.171151,0.001 z m 0.935161,0.39853 0.003,-0.0927 h -0.300541 -0.300584 v -0.14305 -0.14304 h 0.268577 0.268577 v -0.0954 -0.0954 h -0.268577 -0.268577 v -0.11126 -0.11126 h 0.289642 0.289641 v -0.0954 -0.0954 h -0.400232 -0.400232 v 0.54053 0.54052 l 0.408131,-0.003 0.408132,-0.003 z"
       id="path2856"
       inkscape:connector-curvature="0" />
    <path
       style="fill:none;fill-opacity:0;stroke:#000000;stroke-width:0.01599894;stroke-linecap:round;stroke-miterlimit:4;stroke-dasharray:none;stroke-opacity:1"
       d="m 1.5293521,296.67745 c -0.80217701,-0.13274 -1.45910001,-0.24151 -1.45982901,-0.24173 -7.27e-4,-2.1e-4 -7.27e-4,-0.92079 0,-2.04572 l 0.0013,-2.04531 1.45850401,-0.23028 c 0.802177,-0.12665 1.461469,-0.2304 1.465097,-0.23055 0.0053,-2.2e-4 0.0066,0.50673 0.0066,2.51793 0,2.01138 -0.0013,2.51809 -0.0066,2.5176 -0.0036,-3.4e-4 -0.66292,-0.10921 -1.465097,-0.24194 z m 0.707356,-1.27712 c 0.08513,-0.005 0.187218,-0.0387 0.250431,-0.0821 0.09614,-0.0661 0.170522,-0.19607 0.200661,-0.35073 0.01126,-0.0578 0.01291,-0.20022 0.0029,-0.24694 -0.02596,-0.12073 -0.0885,-0.2268 -0.169934,-0.28818 -0.01986,-0.015 -0.235015,-0.1456 -0.450279,-0.27339 -0.168466,-0.1 -0.201036,-0.12811 -0.220086,-0.1899 -0.01569,-0.0509 -0.01694,-0.14387 -0.0026,-0.19155 0.02912,-0.0966 0.08628,-0.15425 0.178081,-0.17968 0.0474,-0.0131 0.148595,-0.0156 0.19754,-0.005 0.133285,0.0293 0.21515,0.13465 0.227352,0.29269 l 0.0032,0.042 h 0.102441 0.102442 l -0.0034,-0.0435 c -0.01591,-0.20481 -0.09778,-0.36772 -0.229783,-0.45725 -0.13221,-0.0897 -0.34872,-0.10884 -0.507195,-0.0449 -0.140573,0.0567 -0.242106,0.20219 -0.27557,0.39485 -0.01078,0.0621 -0.01066,0.18366 2.31e-4,0.24106 0.02175,0.11461 0.08473,0.21092 0.170985,0.26148 0.07816,0.0458 0.42553,0.25977 0.485289,0.29889 0.144427,0.0945 0.194855,0.17031 0.195092,0.29311 1.49e-4,0.0726 -0.03208,0.14986 -0.08733,0.20946 -0.03653,0.0394 -0.07049,0.0612 -0.1223,0.0785 -0.03678,0.0123 -0.04899,0.0137 -0.122609,0.0138 -0.09027,2.2e-4 -0.122994,-0.006 -0.183496,-0.0347 -0.03805,-0.0181 -0.09302,-0.067 -0.116744,-0.10391 -0.03272,-0.0509 -0.05252,-0.12941 -0.057,-0.22589 l -0.003,-0.0645 h -0.102882 -0.102881 l 0.0037,0.0694 c 0.01111,0.21018 0.06469,0.3481 0.175877,0.45276 0.06444,0.0607 0.134771,0.099 0.22228,0.12107 0.04359,0.011 0.133982,0.0201 0.172078,0.0172 0.01161,-8.6e-4 0.04151,-0.003 0.06646,-0.004 z m -1.59881001,-0.46381 v -0.36614 h 0.1656 c 0.09108,0 0.189647,-0.002 0.21903801,-0.005 0.205533,-0.0211 0.338509,-0.13439 0.37685,-0.32116 0.01596,-0.0778 0.02051,-0.15419 0.01761,-0.29621 -0.003,-0.14535 -0.0067,-0.1737 -0.03165,-0.24245 -0.02948,-0.0811 -0.09033,-0.15758 -0.148834,-0.18705 -0.01736,-0.009 -0.04818,-0.021 -0.06849,-0.0273 -0.07765,-0.024 -0.118579,-0.0266 -0.42330901,-0.0266 l -0.286162,-2e-5 v 0.9193 0.91931 h 0.08967 0.08967 z"
       id="path3495"
       inkscape:connector-curvature="0" />
    <path
       style="fill:none;fill-opacity:1;stroke:#000000;stroke-width:0.01598274;stroke-linecap:round;stroke-miterlimit:4;stroke-dasharray:none;stroke-opacity:1"
       d="m 0.63695509,294.01569 v -0.32914 l 0.1909,5e-5 c 0.28160901,6e-5 0.31875701,0.009 0.35785001,0.0862 0.02797,0.0553 0.03139,0.0753 0.03433,0.20159 0.0031,0.13341 -0.0013,0.17208 -0.02553,0.22197 -0.01866,0.0385 -0.0698,0.0956 -0.103084,0.11511 -0.05343,0.0313 -0.06979,0.0333 -0.27061401,0.0333 h -0.183852 z"
       id="path3499"
       inkscape:connector-curvature="0" />
  </g>
</svg>
