<svg xmlns="http://www.w3.org/2000/svg" width="20" height="20" viewBox="0 0 5.292 5.292">
  <defs/>
  <g style="line-height:1.25;-inkscape-font-specification:'Microsoft Sans Serif'">
    <path stroke-width="62.181" style="-inkscape-font-specification:'Microsoft Sans Serif'" d="M.462 1.757h.48a.71.71 0 01.263.043c.071.027.127.088.169.181.041.093.041.197.041.312 0 .185-.02.326-.102.422-.083.096-.202.144-.358.144H.632v.733h-.17zm.17.884h.325c.11 0 .166-.047.212-.105.047-.059.056-.11.056-.22 0-.074.001-.172-.024-.229-.026-.056-.038-.074-.078-.09a.495.495 0 00-.17-.022h-.32z" aria-label="P" font-family="Microsoft Sans Serif" font-size="23.114" font-weight="400"/>
  </g>
  <text x="1.707" y="254.041" stroke-width=".048" font-family="MS UI Gothic" font-size="2.585" font-weight="400" transform="matrix(.85994 0 0 1.16287 0 -291.708)" style="line-height:1.25;-inkscape-font-specification:'MS UI Gothic'">
    <tspan style="-inkscape-font-specification:'MS UI Gothic'" x="1.707" y="254.041">S</tspan>
  </text>
  <text x="3.073" y="294.902" fill="none" stroke-width=".028" font-family="Arial" font-size="1.481" font-weight="700" transform="translate(0 -291.708)" style="line-height:1.25;-inkscape-font-specification:'Arial Bold'">
    <tspan style="-inkscape-font-specification:'Arial Bold'" x="3.073" y="294.902">E</tspan>
  </text>
  <g fill="none" stroke="#000" stroke-linecap="round" stroke-width=".5">
    <path stroke-width=".07309784999999999" d="M3.055.612l.934.005L5.245 1.83l.01 1.724-1.242 1.227-.958.006"/>
    <path stroke-width=".040475" d="M3.041 1.34l.663-.004.73.795.006 1.13-.722.803-.677.004"/>
  </g>
  <path fill="none" stroke="#000" stroke-linecap="round" stroke-width=".065" d="M.033.608l3-.474v5.12l-3-.496z"/>
  <path stroke="#000" stroke-linecap="round" stroke-width=".02" d="M3.06 2.717V1.373l.055-.007a4.73 4.73 0 01.315-.007h.26l.359.394.359.393v.394c0 .217.003.466.006.553l.007.158-.354.397-.354.397-.156.007c-.085.004-.232.007-.326.008l-.171.001zm.935.399l.003-.093h-.601v-.286h.537v-.191h-.537v-.222h.579v-.191h-.8v1.081l.408-.003.408-.003z"/>
  <path fill="none" stroke="#000" stroke-linecap="round" stroke-width=".016" d="M1.53 4.97L.07 4.726V.636l1.46-.23 1.464-.23c.006 0 .007.506.007 2.517 0 2.012-.001 2.519-.007 2.518L1.53 4.97zm.707-1.278a.542.542 0 00.25-.082.553.553 0 00.2-.35.965.965 0 00.004-.248.492.492 0 00-.17-.288c-.02-.015-.235-.146-.45-.273-.169-.1-.202-.128-.22-.19a.414.414 0 01-.003-.192.243.243 0 01.178-.18.553.553 0 01.197-.004c.134.029.216.134.228.292l.003.042h.205l-.004-.043c-.015-.205-.097-.368-.23-.458a.585.585 0 00-.507-.044c-.14.056-.242.202-.275.394a.898.898 0 000 .241c.022.115.085.211.171.262.078.046.426.26.485.299.145.094.195.17.196.293a.316.316 0 01-.21.288.301.301 0 01-.123.014.346.346 0 01-.183-.035.35.35 0 01-.117-.104.47.47 0 01-.057-.226l-.003-.064h-.206l.004.07c.011.21.065.347.176.452.064.06.135.099.222.121a.752.752 0 00.239.013zm-1.6-.464v-.366h.166c.092 0 .19-.002.22-.005.205-.021.338-.134.376-.321.016-.078.02-.154.018-.296-.003-.146-.007-.174-.032-.243a.356.356 0 00-.148-.187.504.504 0 00-.069-.027c-.078-.024-.119-.027-.423-.027H.459v1.839h.179z"/>
  <path fill="none" stroke="#000" stroke-linecap="round" stroke-width=".016" d="M.637 2.307v-.329h.19c.282 0 .32.01.359.086.028.056.031.076.034.202.003.133-.001.172-.025.222a.342.342 0 01-.104.115c-.053.031-.07.033-.27.033H.637z"/>
</svg>
