<?xml version="1.0" encoding="UTF-8" standalone="no"?>
<svg
   xmlns:dc="http://purl.org/dc/elements/1.1/"
   xmlns:cc="http://creativecommons.org/ns#"
   xmlns:rdf="http://www.w3.org/1999/02/22-rdf-syntax-ns#"
   xmlns:svg="http://www.w3.org/2000/svg"
   xmlns="http://www.w3.org/2000/svg"
   xmlns:sodipodi="http://sodipodi.sourceforge.net/DTD/sodipodi-0.dtd"
   xmlns:inkscape="http://www.inkscape.org/namespaces/inkscape"
   enable-background="new 0 0 24 24"
   height="56"
   viewBox="0 0 24 24"
   width="56"
   fill="#000000"
   version="1.1"
   id="svg19706"
   sodipodi:docname="nav_updater.svg"
   inkscape:version="0.92.4 (5da689c313, 2019-01-14)">
  <metadata
     id="metadata19712">
    <rdf:RDF>
      <cc:Work
         rdf:about="">
        <dc:format>image/svg+xml</dc:format>
        <dc:type
           rdf:resource="http://purl.org/dc/dcmitype/StillImage" />
      </cc:Work>
    </rdf:RDF>
  </metadata>
  <defs
     id="defs19710" />
  <sodipodi:namedview
     pagecolor="#ffffff"
     bordercolor="#666666"
     borderopacity="1"
     objecttolerance="10"
     gridtolerance="10"
     guidetolerance="10"
     inkscape:pageopacity="0"
     inkscape:pageshadow="2"
     inkscape:window-width="933"
     inkscape:window-height="480"
     id="namedview19708"
     showgrid="false"
     inkscape:zoom="4.2142857"
     inkscape:cx="28"
     inkscape:cy="28"
     inkscape:window-x="0"
     inkscape:window-y="0"
     inkscape:window-maximized="0"
     inkscape:current-layer="svg19706" />
  <g
     id="g19698">
    <rect
       fill="none"
       height="24"
       width="24"
       id="rect19696" />
  </g>
  <g
     id="g19704"
     transform="matrix(1.3335679,0,0,1.3335679,-4.0033434,-4.0033449)">
    <g
       id="g19702">
      <path
         d="m 11,8.75 v 3.68 c 0,0.35 0.19,0.68 0.49,0.86 l 3.12,1.85 c 0.36,0.21 0.82,0.09 1.03,-0.26 0.21,-0.36 0.1,-0.82 -0.26,-1.03 L 12.51,12.14 V 8.74 C 12.5,8.34 12.16,8 11.75,8 11.34,8 11,8.34 11,8.75 Z M 21,9.5 V 4.21 C 21,3.76 20.46,3.54 20.15,3.86 L 18.37,5.64 C 16.56,3.83 13.98,2.79 11.16,3.04 6.97,3.42 3.52,6.79 3.06,10.98 2.46,16.4 6.69,21 12,21 c 4.59,0 8.38,-3.44 8.93,-7.88 0.07,-0.6 -0.4,-1.12 -1,-1.12 -0.5,0 -0.92,0.37 -0.98,0.86 C 18.52,16.35 15.51,19.05 11.9,19 8.19,18.95 5.06,15.82 5,12.1 4.94,8.2 8.11,5 12,5 c 1.93,0 3.68,0.79 4.95,2.05 L 14.86,9.14 C 14.54,9.46 14.76,10 15.21,10 H 20.5 C 20.78,10 21,9.78 21,9.5 Z"
         id="path19700"
         inkscape:connector-curvature="0" />
    </g>
  </g>
</svg>
