<?xml version="1.0" encoding="UTF-8" standalone="no"?>
<svg
   xmlns:dc="http://purl.org/dc/elements/1.1/"
   xmlns:cc="http://creativecommons.org/ns#"
   xmlns:rdf="http://www.w3.org/1999/02/22-rdf-syntax-ns#"
   xmlns:svg="http://www.w3.org/2000/svg"
   xmlns="http://www.w3.org/2000/svg"
   xmlns:sodipodi="http://sodipodi.sourceforge.net/DTD/sodipodi-0.dtd"
   xmlns:inkscape="http://www.inkscape.org/namespaces/inkscape"
   enable-background="new 0 0 24 24"
   height="56"
   viewBox="0 0 24 24"
   width="56"
   fill="#000000"
   version="1.1"
   id="svg26987"
   sodipodi:docname="template_selector.svg"
   inkscape:version="0.92.4 (5da689c313, 2019-01-14)">
  <metadata
     id="metadata26993">
    <rdf:RDF>
      <cc:Work
         rdf:about="">
        <dc:format>image/svg+xml</dc:format>
        <dc:type
           rdf:resource="http://purl.org/dc/dcmitype/StillImage" />
      </cc:Work>
    </rdf:RDF>
  </metadata>
  <defs
     id="defs26991" />
  <sodipodi:namedview
     pagecolor="#ffffff"
     bordercolor="#666666"
     borderopacity="1"
     objecttolerance="10"
     gridtolerance="10"
     guidetolerance="10"
     inkscape:pageopacity="0"
     inkscape:pageshadow="2"
     inkscape:window-width="933"
     inkscape:window-height="480"
     id="namedview26989"
     showgrid="false"
     inkscape:zoom="4.2142857"
     inkscape:cx="28"
     inkscape:cy="28"
     inkscape:window-x="0"
     inkscape:window-y="0"
     inkscape:window-maximized="0"
     inkscape:current-layer="svg26987" />
  <g
     id="g26977">
    <rect
       fill="none"
       height="24"
       width="24"
       id="rect26975" />
  </g>
  <g
     id="g26985"
     transform="matrix(1.0909071,0,0,1.0909071,-1.0908857,-1.0908857)">
    <g
       id="g26983">
      <path
         d="m 3,6 8,5 8,-5 v 3 h 2 V 4 C 21,2.9 20.1,2 19,2 H 3 C 1.9,2 1.01,2.9 1.01,4 L 1,16 c 0,1.1 0.9,2 2,2 H 13 V 16 H 3 Z M 19,4 11,9 3,4 Z"
         id="path26979"
         inkscape:connector-curvature="0" />
      <path
         d="m 21,14 v 4 c 0,1.1 -0.9,2 -2,2 -1.1,0 -2,-0.9 -2,-2 v -4.5 c 0,-0.28 0.22,-0.5 0.5,-0.5 0.28,0 0.5,0.22 0.5,0.5 V 18 h 2 V 13.5 C 20,12.12 18.88,11 17.5,11 16.12,11 15,12.12 15,13.5 V 18 c 0,2.21 1.79,4 4,4 2.21,0 4,-1.79 4,-4 v -4 z"
         id="path26981"
         inkscape:connector-curvature="0" />
    </g>
  </g>
</svg>
