<?xml version="1.0" encoding="UTF-8" standalone="no"?>
<svg
   xmlns:dc="http://purl.org/dc/elements/1.1/"
   xmlns:cc="http://creativecommons.org/ns#"
   xmlns:rdf="http://www.w3.org/1999/02/22-rdf-syntax-ns#"
   xmlns:svg="http://www.w3.org/2000/svg"
   xmlns="http://www.w3.org/2000/svg"
   xmlns:sodipodi="http://sodipodi.sourceforge.net/DTD/sodipodi-0.dtd"
   xmlns:inkscape="http://www.inkscape.org/namespaces/inkscape"
   version="1.1"
   id="svg1543"
   inkscape:version="1.0.1 (3bc2e813f5, 2020-09-07)"
   sodipodi:docname="chemistry.svg">
  <defs
     id="defs1537" />
  <sodipodi:namedview
     id="base"
     pagecolor="#ffffff"
     bordercolor="#666666"
     borderopacity="1.0"
     inkscape:pageopacity="0.0"
     inkscape:pageshadow="2"
     inkscape:zoom="1"
     inkscape:cx="441.49666"
     inkscape:cy="361.17516"
     inkscape:document-units="mm"
     inkscape:current-layer="layer1"
     inkscape:document-rotation="0"
     showgrid="false"
     inkscape:window-width="2560"
     inkscape:window-height="1377"
     inkscape:window-x="-8"
     inkscape:window-y="-8"
     inkscape:window-maximized="1" />
  <metadata
     id="metadata1540">
    <rdf:RDF>
      <cc:Work
         rdf:about="">
        <dc:format>image/svg+xml</dc:format>
        <dc:type
           rdf:resource="http://purl.org/dc/dcmitype/StillImage" />
        <dc:title />
      </cc:Work>
    </rdf:RDF>
  </metadata>
  <g
     inkscape:label="Ebene 1"
     inkscape:groupmode="layer"
     id="layer1">
    <g
       id="g2085"
       transform="translate(-10.583333,-9.2604167)">
      <g
         id="g1400"
         transform="translate(-22.72137,-57.783195)">
        <circle
           style="fill:#ffffff;stroke-width:0.0133333"
           id="path1366-2"
           cx="42.019135"
           cy="75.803123"
           r="8.4666662" />
        <circle
           style="fill:#00ff00;stroke-width:0.0129166"
           id="path1366-0"
           cx="42.019135"
           cy="75.803123"
           r="8.2020836" />
      </g>
      <g
         id="g1424"
         transform="translate(-31.167357,-35.471602)"
         style="fill:#d5ffd5">
        <text
           xml:space="preserve"
           style="font-style:normal;font-variant:normal;font-weight:normal;font-stretch:normal;font-size:9.87778px;line-height:1.25;font-family:'Berlin Sans FB Demi';-inkscape-font-specification:'Berlin Sans FB Demi, Normal';font-variant-ligatures:normal;font-variant-caps:normal;font-variant-numeric:normal;font-variant-east-asian:normal;fill:#d5ffd5;fill-opacity:1;stroke:none;stroke-width:0.264583"
           x="44.185417"
           y="55.165623"
           id="text1404"><tspan
             sodipodi:role="line"
             id="tspan1402"
             x="44.185417"
             y="55.165623"
             style="font-style:normal;font-variant:normal;font-weight:normal;font-stretch:normal;font-size:9.87778px;font-family:'Berlin Sans FB Demi';-inkscape-font-specification:'Berlin Sans FB Demi, Normal';font-variant-ligatures:normal;font-variant-caps:normal;font-variant-numeric:normal;font-variant-east-asian:normal;fill:#d5ffd5;stroke-width:0.264583">C</tspan></text>
        <text
           xml:space="preserve"
           style="font-style:normal;font-weight:normal;font-size:9.87778px;line-height:1.25;font-family:sans-serif;fill:#d5ffd5;fill-opacity:1;stroke:none;stroke-width:0.264583"
           x="50.195007"
           y="58.613235"
           id="text1408"><tspan
             sodipodi:role="line"
             id="tspan1406"
             x="50.195007"
             y="58.613235"
             style="font-style:normal;font-variant:normal;font-weight:normal;font-stretch:normal;font-size:9.87778px;font-family:'Berlin Sans FB Demi';-inkscape-font-specification:'Berlin Sans FB Demi, Normal';font-variant-ligatures:normal;font-variant-caps:normal;font-variant-numeric:normal;font-variant-east-asian:normal;fill:#d5ffd5;stroke-width:0.264583">U</tspan></text>
      </g>
      <path
         style="fill:#002b00;stroke-width:0.0011693;stroke-miterlimit:4;stroke-dasharray:none"
         d="m 17.484831,20.892452 c -1.140277,-0.658757 -2.070393,-1.20073 -2.066922,-1.204383 0.0035,-0.0037 0.09453,0.01879 0.202348,0.04983 0.347036,0.09998 0.520449,0.120528 1.01455,0.120216 0.357484,-2.33e-4 0.514572,-0.01011 0.666504,-0.04192 0.606922,-0.127085 1.074481,-0.371083 1.487583,-0.776301 0.220133,-0.215932 0.312904,-0.340116 0.313057,-0.419057 1.17e-4,-0.06421 -0.107717,-0.248492 -0.417525,-0.713471 -0.269629,-0.404674 -0.394436,-0.562961 -0.443886,-0.562961 -0.01418,0 -0.107646,0.06635 -0.207714,0.147441 -0.240628,0.194998 -0.365414,0.278763 -0.562975,0.377913 -0.449056,0.225366 -1.063599,0.233304 -1.461675,0.01889 -0.265824,-0.143187 -0.548746,-0.475605 -0.680265,-0.799275 -0.133665,-0.328953 -0.180298,-0.847611 -0.109535,-1.218287 0.113316,-0.59359 0.512456,-1.086527 1.005488,-1.241777 0.211252,-0.06652 0.570884,-0.08324 0.789284,-0.03668 0.348094,0.0742 0.585023,0.200575 0.960938,0.512566 0.135607,0.112546 0.259283,0.204629 0.274843,0.204629 0.09156,0 0.231008,-0.197691 0.577358,-0.818512 0.228939,-0.410364 0.285417,-0.542954 0.265348,-0.622922 -0.0087,-0.03447 -0.08614,-0.136139 -0.172212,-0.225938 -0.08607,-0.0898 -0.145285,-0.159171 -0.131601,-0.15416 0.01368,0.005 1.154753,0.661583 2.535706,1.459048 l 2.510827,1.449938 -0.220485,0.01169 c -0.121267,0.0064 -0.235254,0.02119 -0.253304,0.03283 -0.03453,0.02222 -0.0347,-0.02286 0.01294,3.393945 0.01617,1.160462 0.01095,1.244494 -0.08953,1.444432 -0.173688,0.345551 -0.613508,0.501319 -1.165116,0.412644 -0.179145,-0.0288 -0.382543,-0.11625 -0.47575,-0.204547 -0.03657,-0.03464 -0.09026,-0.110344 -0.119298,-0.168227 -0.166296,-0.331407 -0.174559,-0.701625 -0.08276,-3.706694 0.03072,-1.00557 0.0297,-1.124174 -0.01,-1.163865 -0.02545,-0.02545 -0.154757,-0.03654 -0.567113,-0.0486 -0.293772,-0.0086 -0.718619,-0.02236 -0.944104,-0.03061 -0.377587,-0.01381 -0.413351,-0.01162 -0.452724,0.02775 -0.0488,0.0488 -0.04643,0.206687 0.0263,1.753203 0.02719,0.578318 0.03714,1.194453 0.03389,2.099598 -0.0042,1.157457 0.0075,1.519989 0.05685,1.766692 0.0082,0.04085 0.0056,0.07391 -0.0056,0.07347 -0.01124,-5.29e-4 -0.953419,-0.539779 -2.093699,-1.198536 z"
         id="path2018" />
      <path
         style="fill:#002b00;stroke-width:0.0011693;stroke-miterlimit:4;stroke-dasharray:none"
         d="m 22.174095,24.013477 c -0.837819,-0.484555 -1.514962,-0.884187 -1.504765,-0.888072 0.01019,-0.0039 0.08451,0.01003 0.165129,0.03092 0.251486,0.06517 0.622583,0.104309 1.132374,0.119438 1.253723,0.0372 2.192928,-0.144431 2.69239,-0.520687 0.235897,-0.177704 0.375152,-0.39384 0.455064,-0.706297 0.09609,-0.375703 0.113335,-0.657299 0.124828,-2.03836 0.0061,-0.726723 0.0271,-1.70543 0.04678,-2.174907 0.01968,-0.469477 0.03602,-0.97286 0.03631,-1.118635 2.65e-4,-0.153863 0.0097,-0.26177 0.02236,-0.257246 0.01201,0.0043 0.495287,0.281313 1.073952,0.615611 l 1.052118,0.607817 0.015,0.152231 c 0.02064,0.209362 -0.02421,0.940207 -0.08232,1.340985 -0.323914,2.234274 -1.528112,4.206822 -3.370313,5.520764 -0.155048,0.110588 -0.293992,0.200255 -0.308763,0.199257 -0.01476,-0.0011 -0.712343,-0.398266 -1.550165,-0.882824 z"
         id="path2020" />
    </g>
  </g>
</svg>
